<svg xmlns="http://www.w3.org/2000/svg" xmlns:xlink="http://www.w3.org/1999/xlink" viewBox="0 0 1518.52 1213.52"><defs><style>.cls-1{fill:url(#linear-gradient);}.cls-2{fill:url(#linear-gradient-2);}.cls-3{fill:url(#linear-gradient-3);}.cls-4{fill:url(#linear-gradient-4);}.cls-5{fill:url(#linear-gradient-5);}.cls-6{fill:url(#linear-gradient-6);}.cls-7{fill:url(#linear-gradient-7);}.cls-8{fill:url(#linear-gradient-8);}.cls-9{fill:url(#linear-gradient-9);}.cls-10{fill:url(#linear-gradient-10);}.cls-11{fill:url(#linear-gradient-11);}.cls-12{fill:url(#linear-gradient-12);}.cls-13{fill:url(#linear-gradient-13);}.cls-14{fill:#fff;}.cls-15{fill:#bcbec0;}.cls-16{fill:#f1f2f2;}.cls-17{fill:url(#linear-gradient-14);}.cls-18{fill:url(#linear-gradient-15);}.cls-19{fill:url(#linear-gradient-16);}.cls-20{fill:url(#linear-gradient-17);}.cls-21{fill:#a7a9ac;}.cls-22{fill:url(#linear-gradient-18);}.cls-23{fill:url(#linear-gradient-19);}.cls-24{fill:#3aaaff;}.cls-25{fill:url(#linear-gradient-20);}.cls-26{fill:#0095ff;}.cls-27{fill:url(#linear-gradient-21);}.cls-28{fill:url(#linear-gradient-22);}.cls-29{fill:url(#linear-gradient-23);}.cls-30{fill:url(#linear-gradient-24);}.cls-31{fill:url(#linear-gradient-25);}.cls-32{fill:url(#linear-gradient-26);}.cls-33{fill:url(#linear-gradient-27);}.cls-34{fill:url(#linear-gradient-28);}.cls-35{fill:url(#linear-gradient-29);}.cls-36{fill:url(#linear-gradient-30);}.cls-37{fill:url(#linear-gradient-31);}.cls-38{fill:url(#linear-gradient-32);}.cls-39{fill:url(#linear-gradient-33);}.cls-40{fill:url(#linear-gradient-34);}.cls-41{fill:url(#linear-gradient-35);}.cls-42{fill:url(#linear-gradient-36);}.cls-43{fill:url(#linear-gradient-37);}.cls-44{fill:url(#linear-gradient-38);}.cls-45{fill:url(#linear-gradient-39);}.cls-46{fill:url(#linear-gradient-40);}.cls-47{fill:url(#linear-gradient-41);}.cls-48{fill:url(#linear-gradient-42);}.cls-49{fill:#ffd400;}.cls-50{fill:url(#linear-gradient-43);}.cls-51{fill:url(#linear-gradient-44);}.cls-52{fill:url(#linear-gradient-45);}.cls-53{fill:url(#linear-gradient-46);}.cls-54{fill:url(#linear-gradient-47);}.cls-55{fill:url(#linear-gradient-48);}.cls-56{fill:url(#linear-gradient-49);}.cls-57{fill:url(#linear-gradient-50);}.cls-58{fill:url(#linear-gradient-51);}.cls-59{fill:url(#linear-gradient-52);}.cls-60{fill:url(#linear-gradient-53);}.cls-61{fill:url(#linear-gradient-54);}.cls-62{fill:url(#linear-gradient-55);}.cls-63{fill:url(#linear-gradient-56);}.cls-64{fill:url(#linear-gradient-57);}.cls-65{fill:url(#linear-gradient-58);}.cls-66{fill:url(#linear-gradient-59);}.cls-67{fill:url(#linear-gradient-60);}.cls-68{fill:url(#linear-gradient-61);}.cls-69{fill:url(#linear-gradient-62);}.cls-70{fill:url(#linear-gradient-63);}.cls-71{fill:url(#linear-gradient-64);}.cls-72{fill:url(#linear-gradient-65);}.cls-73{fill:url(#linear-gradient-66);}.cls-74{fill:url(#linear-gradient-67);}.cls-75{fill:url(#linear-gradient-68);}.cls-76{fill:url(#linear-gradient-69);}.cls-77{fill:url(#linear-gradient-70);}.cls-78{fill:url(#linear-gradient-71);}.cls-79{fill:#d1d3d4;}.cls-80{fill:url(#linear-gradient-72);}.cls-81{fill:url(#linear-gradient-73);}.cls-82{fill:url(#linear-gradient-74);}.cls-83{fill:url(#linear-gradient-75);}</style><linearGradient id="linear-gradient" x1="722.27" y1="629.18" x2="2095.49" y2="629.18" gradientTransform="matrix(-1, 0, 0, 1, 2209.19, 0)" gradientUnits="userSpaceOnUse"><stop offset="0" stop-color="#482d9d"/><stop offset="0.21" stop-color="#3e51b3"/><stop offset="0.75" stop-color="#26a7ea"/><stop offset="1" stop-color="#1dc9ff"/></linearGradient><linearGradient id="linear-gradient-2" x1="614.25" y1="257.12" x2="2214.24" y2="453.12" gradientTransform="matrix(-1, 0, 0, 1, 2223.74, 93.2)" xlink:href="#linear-gradient"/><linearGradient id="linear-gradient-3" x1="655.96" y1="-61.62" x2="2256.02" y2="134.39" gradientTransform="matrix(0, -1.35, -1.37, 0, 256.03, 3297.75)" xlink:href="#linear-gradient"/><linearGradient id="linear-gradient-4" x1="1031.79" y1="90.26" x2="1101.33" y2="90.26" gradientTransform="matrix(-1, 0, 0, 1, 2209.19, 0)" gradientUnits="userSpaceOnUse"><stop offset="0" stop-color="#582d7f"/><stop offset="0.21" stop-color="#4b5194"/><stop offset="0.75" stop-color="#2aa7c8"/><stop offset="1" stop-color="#1dc9dc"/></linearGradient><linearGradient id="linear-gradient-5" x1="1089.75" y1="88.41" x2="1349.92" y2="88.41" xlink:href="#linear-gradient"/><linearGradient id="linear-gradient-6" x1="1916.33" y1="236.36" x2="2048.91" y2="236.36" xlink:href="#linear-gradient"/><linearGradient id="linear-gradient-7" x1="1542.57" y1="177.87" x2="1971.01" y2="177.87" xlink:href="#linear-gradient"/><linearGradient id="linear-gradient-8" x1="1907.09" y1="447.3" x2="2049.02" y2="447.3" xlink:href="#linear-gradient"/><linearGradient id="linear-gradient-9" x1="822.75" y1="307.85" x2="1093.49" y2="307.85" xlink:href="#linear-gradient"/><linearGradient id="linear-gradient-10" x1="1555.74" y1="1092.85" x2="2090.15" y2="1092.85" xlink:href="#linear-gradient"/><linearGradient id="linear-gradient-11" x1="1056.64" y1="1141.62" x2="1322.26" y2="1141.62" xlink:href="#linear-gradient"/><linearGradient id="linear-gradient-12" x1="913.12" y1="1144.4" x2="1076.92" y2="1144.4" xlink:href="#linear-gradient"/><linearGradient id="linear-gradient-13" x1="722.35" y1="994.79" x2="1056.64" y2="994.79" xlink:href="#linear-gradient"/><linearGradient id="linear-gradient-14" x1="444.65" y1="1265.67" x2="444.65" y2="1005.46" gradientTransform="matrix(1, 0, 0, 1, 0, 0)" xlink:href="#linear-gradient-4"/><linearGradient id="linear-gradient-15" x1="510.59" y1="865.99" x2="510.59" y2="810.43" gradientUnits="userSpaceOnUse"><stop offset="0" stop-color="#a7a9ac"/><stop offset="1" stop-color="#808285"/></linearGradient><linearGradient id="linear-gradient-16" x1="510.59" y1="515.45" x2="510.59" y2="546.22" xlink:href="#linear-gradient-15"/><linearGradient id="linear-gradient-17" x1="584.51" y1="693.21" x2="584.51" y2="515.26" xlink:href="#linear-gradient-15"/><linearGradient id="linear-gradient-18" x1="448.92" y1="693.2" x2="448.92" y2="515.26" xlink:href="#linear-gradient-15"/><linearGradient id="linear-gradient-19" x1="510.59" y1="528.56" x2="510.59" y2="541.07" xlink:href="#linear-gradient-15"/><linearGradient id="linear-gradient-20" x1="581.15" y1="601.58" x2="519.98" y2="670.89" gradientUnits="userSpaceOnUse"><stop offset="0" stop-color="#ceecfa"/><stop offset="1" stop-color="#ee6ee4"/></linearGradient><linearGradient id="linear-gradient-21" x1="565.82" y1="733.83" x2="563.51" y2="843.22" gradientUnits="userSpaceOnUse"><stop offset="0" stop-color="#0095ff"/><stop offset="1" stop-color="#3aaaff"/></linearGradient><linearGradient id="linear-gradient-22" x1="443.39" y1="766.52" x2="506.17" y2="823.14" xlink:href="#linear-gradient-21"/><linearGradient id="linear-gradient-23" x1="515.33" y1="579.31" x2="539.03" y2="552" gradientUnits="userSpaceOnUse"><stop offset="0" stop-color="#ffde39"/><stop offset="0.09" stop-color="#ffc63c"/><stop offset="0.29" stop-color="#fe9843"/><stop offset="0.42" stop-color="#fe7d4b"/><stop offset="0.65" stop-color="#fe4f59"/><stop offset="1" stop-color="#ed327f"/></linearGradient><linearGradient id="linear-gradient-24" x1="514.6" y1="578.67" x2="538.3" y2="551.36" xlink:href="#linear-gradient-23"/><linearGradient id="linear-gradient-25" x1="521.42" y1="570.81" x2="545.12" y2="543.5" xlink:href="#linear-gradient-23"/><linearGradient id="linear-gradient-26" x1="532.24" y1="564.62" x2="555.54" y2="511.86" xlink:href="#linear-gradient-23"/><linearGradient id="linear-gradient-27" x1="529.32" y1="563.33" x2="552.62" y2="510.57" xlink:href="#linear-gradient-23"/><linearGradient id="linear-gradient-28" x1="531.9" y1="557.49" x2="555.2" y2="504.73" xlink:href="#linear-gradient-23"/><linearGradient id="linear-gradient-29" x1="481.64" y1="590.12" x2="557.7" y2="554.95" xlink:href="#linear-gradient-23"/><linearGradient id="linear-gradient-30" x1="479.96" y1="586.48" x2="556.01" y2="551.3" xlink:href="#linear-gradient-23"/><linearGradient id="linear-gradient-31" x1="494.45" y1="579.77" x2="570.51" y2="544.6" xlink:href="#linear-gradient-23"/><linearGradient id="linear-gradient-32" x1="468.63" y1="559.18" x2="490.52" y2="543.98" xlink:href="#linear-gradient-23"/><linearGradient id="linear-gradient-33" x1="471.06" y1="562.69" x2="492.96" y2="547.49" xlink:href="#linear-gradient-23"/><linearGradient id="linear-gradient-34" x1="474.99" y1="559.96" x2="496.88" y2="544.76" xlink:href="#linear-gradient-23"/><linearGradient id="linear-gradient-35" x1="479.93" y1="565.86" x2="528.58" y2="540.51" xlink:href="#linear-gradient-23"/><linearGradient id="linear-gradient-36" x1="486.86" y1="561.8" x2="535.51" y2="536.45" xlink:href="#linear-gradient-23"/><linearGradient id="linear-gradient-37" x1="495.63" y1="557.23" x2="544.28" y2="531.88" xlink:href="#linear-gradient-23"/><linearGradient id="linear-gradient-38" x1="468.22" y1="583.15" x2="525.09" y2="556.66" xlink:href="#linear-gradient-23"/><linearGradient id="linear-gradient-39" x1="468.12" y1="582.95" x2="524.99" y2="556.46" xlink:href="#linear-gradient-23"/><linearGradient id="linear-gradient-40" x1="471.6" y1="581.33" x2="528.47" y2="554.84" xlink:href="#linear-gradient-23"/><linearGradient id="linear-gradient-41" x1="-3686.26" y1="-6051.69" x2="-3654.83" y2="-6113.52" gradientTransform="matrix(0.5, 0.87, -0.87, 0.5, -2900.31, 6789.1)" xlink:href="#linear-gradient-23"/><linearGradient id="linear-gradient-42" x1="-3686.55" y1="-6045.3" x2="-3655.12" y2="-6107.13" gradientTransform="matrix(0.5, 0.87, -0.87, 0.5, -2900.31, 6789.1)" xlink:href="#linear-gradient-23"/><linearGradient id="linear-gradient-43" x1="924.72" y1="664.36" x2="795.3" y2="317.71" xlink:href="#linear-gradient-23"/><linearGradient id="linear-gradient-44" x1="1131.09" y1="805.47" x2="804.08" y2="456.51" xlink:href="#linear-gradient-23"/><linearGradient id="linear-gradient-45" x1="1173.62" y1="478.02" x2="915.94" y2="796.94" xlink:href="#linear-gradient-23"/><linearGradient id="linear-gradient-46" x1="859.29" y1="786.35" x2="722.94" y2="447.79" xlink:href="#linear-gradient-23"/><linearGradient id="linear-gradient-47" x1="650.28" y1="779.11" x2="955.34" y2="596.54" xlink:href="#linear-gradient-23"/><linearGradient id="linear-gradient-48" x1="806.69" y1="787.93" x2="1128.05" y2="787.93" xlink:href="#linear-gradient-23"/><linearGradient id="linear-gradient-49" x1="806.69" y1="787.93" x2="1128.05" y2="787.93" xlink:href="#linear-gradient-23"/><linearGradient id="linear-gradient-50" x1="806.69" y1="787.93" x2="1128.05" y2="787.93" xlink:href="#linear-gradient-23"/><linearGradient id="linear-gradient-51" x1="1140.25" y1="869.83" x2="718.85" y2="869.83" gradientUnits="userSpaceOnUse"><stop offset="0" stop-color="#e6e7e8"/><stop offset="1" stop-color="#bcbec0"/></linearGradient><linearGradient id="linear-gradient-52" x1="1140.25" y1="869.83" x2="718.85" y2="869.83" xlink:href="#linear-gradient-51"/><linearGradient id="linear-gradient-53" x1="1140.25" y1="890.05" x2="718.85" y2="890.05" xlink:href="#linear-gradient-51"/><linearGradient id="linear-gradient-54" x1="1140.25" y1="890.05" x2="718.85" y2="890.05" xlink:href="#linear-gradient-51"/><linearGradient id="linear-gradient-55" x1="1140.25" y1="869.83" x2="718.85" y2="869.83" xlink:href="#linear-gradient-51"/><linearGradient id="linear-gradient-56" x1="1140.25" y1="869.83" x2="718.85" y2="869.83" xlink:href="#linear-gradient-51"/><linearGradient id="linear-gradient-57" x1="1140.25" y1="869.83" x2="718.86" y2="869.83" xlink:href="#linear-gradient-51"/><linearGradient id="linear-gradient-58" x1="1140.25" y1="890.05" x2="718.85" y2="890.05" xlink:href="#linear-gradient-51"/><linearGradient id="linear-gradient-59" x1="1140.25" y1="890.05" x2="718.85" y2="890.05" xlink:href="#linear-gradient-51"/><linearGradient id="linear-gradient-60" x1="1140.25" y1="869.83" x2="718.85" y2="869.83" xlink:href="#linear-gradient-51"/><linearGradient id="linear-gradient-61" x1="1140.25" y1="869.83" x2="718.85" y2="869.83" xlink:href="#linear-gradient-51"/><linearGradient id="linear-gradient-62" x1="1140.25" y1="890.05" x2="718.85" y2="890.05" xlink:href="#linear-gradient-51"/><linearGradient id="linear-gradient-63" x1="1140.25" y1="890.05" x2="718.85" y2="890.05" xlink:href="#linear-gradient-51"/><linearGradient id="linear-gradient-64" x1="950.94" y1="765.79" x2="950.94" y2="1239.27" xlink:href="#linear-gradient-23"/><linearGradient id="linear-gradient-65" x1="863.17" y1="697.45" x2="863.17" y2="1511.19" xlink:href="#linear-gradient-23"/><linearGradient id="linear-gradient-66" x1="950.94" y1="1049.26" x2="950.94" y2="1180.94" gradientUnits="userSpaceOnUse"><stop offset="0" stop-color="#bbb"/><stop offset="0.05" stop-color="#cccdcd"/><stop offset="0.11" stop-color="#dddede"/><stop offset="0.19" stop-color="#e8e9e9"/><stop offset="0.3" stop-color="#eff0f0"/><stop offset="0.6" stop-color="#f1f2f2"/><stop offset="1" stop-color="#fff"/></linearGradient><linearGradient id="linear-gradient-67" x1="916.85" y1="1168.03" x2="916.85" y2="968.94" xlink:href="#linear-gradient-66"/><linearGradient id="linear-gradient-68" x1="1184.07" y1="999.14" x2="1296" y2="887.21" gradientUnits="userSpaceOnUse"><stop offset="0" stop-color="#42e397"/><stop offset="1" stop-color="#3cb6b5"/></linearGradient><linearGradient id="linear-gradient-69" x1="-87.45" y1="-228.87" x2="714.26" y2="620.94" gradientUnits="userSpaceOnUse"><stop offset="0" stop-color="#ffde00"/><stop offset="0.11" stop-color="#ffc00e"/><stop offset="0.29" stop-color="#ff9223"/><stop offset="0.46" stop-color="#ff663a"/><stop offset="0.65" stop-color="#ff3852"/><stop offset="1" stop-color="#ff0080"/></linearGradient><linearGradient id="linear-gradient-70" x1="-13396" y1="176.25" x2="-13242.34" y2="-62.06" gradientTransform="translate(14433.86)" xlink:href="#linear-gradient-68"/><linearGradient id="linear-gradient-71" x1="-13113.36" y1="358.49" x2="-12959.7" y2="120.19" gradientTransform="translate(14433.86)" xlink:href="#linear-gradient-68"/><linearGradient id="linear-gradient-72" x1="1873.46" y1="86.39" x2="1780.34" y2="-104.13" gradientTransform="matrix(-1, 0, 0, 1, 3153.06, 0)" gradientUnits="userSpaceOnUse"><stop offset="0" stop-color="#fff"/><stop offset="1" stop-color="#f1f2f2"/></linearGradient><linearGradient id="linear-gradient-73" x1="1199.6" y1="253.95" x2="1199.6" y2="77.37" xlink:href="#linear-gradient-23"/><linearGradient id="linear-gradient-74" x1="1208.53" y1="171.03" x2="1208.53" y2="284.9" xlink:href="#linear-gradient-23"/><linearGradient id="linear-gradient-75" x1="1068.78" y1="327.55" x2="1068.78" y2="241.86" xlink:href="#linear-gradient-23"/></defs><title>Fichier 4</title><g id="Calque_2" data-name="Calque 2"><g id="Layer_11" data-name="Layer 11"><path class="cls-1" d="M1338.45,452.47c87.72,136.26,176.75,297.82,140,459.87-33,145.54-184.65,282.51-355.15,283.58-135.47.85-261-80.68-398-47-168.56,41.41-342.42,121-497.79,1.9-87.62-67.14-129.37-178.4-108.39-280.3,14.65-71.15,56.49-135,84.79-202.73,23.56-56.36,38.59-122.4,16.12-181-41.52-108.35-112.3-210.7,3.19-306.61C292,123,380.69,109,469,92.07c102.14-19.6,205.14-36.62,309.39-43.74,144.37-9.85,292.44-.17,427.82,46.08,26.61,9.09,53.17,19.86,74.06,37.27,48,40,29.49,74,7,119.12-31.86,63.76,9.65,137.5,45,192.1Q1335.38,447.68,1338.45,452.47Z"/><ellipse class="cls-2" cx="1433.58" cy="371.88" rx="79.33" ry="124" transform="translate(-43.84 475.16) rotate(-18.54)"/><ellipse class="cls-3" cx="110.3" cy="554.81" rx="106.01" ry="66.95" transform="translate(-453.49 600.88) rotate(-83.43)"/><path class="cls-4" d="M1118.47,94.43a64.09,64.09,0,0,0-10.6-27q35.18,7.49,69.54,17.75a432.41,432.41,0,0,1-58,27.87A109.71,109.71,0,0,0,1118.47,94.43Z"/><path class="cls-5" d="M1119.39,113.07c-54,20.82-111.54,27.58-169,4.14A210.24,210.24,0,0,1,859.27,45c83.7-1.15,167.61,5.27,248.6,22.48a64.09,64.09,0,0,1,10.6,27A109.71,109.71,0,0,1,1119.39,113.07Z"/><path class="cls-6" d="M292.86,296.26c-37.22,9.39-76.45,10.68-114,2.63a159.74,159.74,0,0,1-18.55-5.11c1.53-38.83,18.37-76.72,62.86-113.67q7.36-6.12,15-11.58c14.38,24.14,27.78,48.84,38.21,74.9A356.35,356.35,0,0,1,292.86,296.26Z"/><path class="cls-7" d="M584,135.31c-26.94,6.42-56.09.11-82.3,9-34.46,11.75-54.82,46-78.78,73.46-33.87,38.75-80.14,65.87-130,78.45a356.35,356.35,0,0,0-16.47-52.83c-10.43-26.06-23.83-50.76-38.21-74.9C304.62,121,387,107.81,469,92.07,534.48,79.51,600.32,68,666.62,59.49a203.6,203.6,0,0,1-18.44,30.26C632.16,111.22,610,129.1,584,135.31Z"/><path class="cls-8" d="M292.86,296.26c14.33,62.56,12.05,129-7.19,190.2a363.14,363.14,0,0,1-60.38,114.35c8.11-38.15,8.67-77.55-5.33-114.09-25.53-66.61-62.11-131-59.67-192.94a159.74,159.74,0,0,0,18.55,5.11C216.41,306.94,255.64,305.65,292.86,296.26Z"/><path class="cls-9" d="M1208.75,402.07c-11.74-44.79.44-93.06-10.18-138.12-2.46-10.46-6.5-21.16-14.81-28-11.79-9.68-29-9.19-42.33-16.63-19.47-10.87-26.12-35.91-25.71-58.2.3-16,3.23-32.09,3.67-48.06a432.41,432.41,0,0,0,58-27.87q14.47,4.35,28.79,9.21c26.61,9.09,53.17,19.86,74.06,37.27,48,40,29.49,74,7,119.12-31.86,63.76,9.65,137.5,45,192.1q3.11,4.78,6.18,9.57c16.22,25.2,32.49,51.27,48,78-23.83-3.17-47.21-8.55-69.59-17.38C1267,493.45,1222.35,453.94,1208.75,402.07Z"/><path class="cls-10" d="M213.83,981.41c82.93,30,129.11,118.83,203.77,165.77,7.42,4.66,15.17,8.93,23.5,11.68,48,15.87,98.1-21.42,148.64-19.15,23.78,1.07,46.85,11.64,63.71,28.38-145.59,40.75-292.61,84.93-426-17.29A291.53,291.53,0,0,1,119,977.1C150.3,969.54,183.54,970.45,213.83,981.41Z"/><path class="cls-11" d="M1152.55,1093.07c-.42,1.11-.85,2.22-1.25,3.35-11.51,31.88-16.78,65.39-19,99.31-3,.1-6,.17-9,.19-80.79.51-158-28.28-236.32-44.47,49.52-39,114.1-60.06,177.74-63.56A392,392,0,0,1,1152.55,1093.07Z"/><path class="cls-12" d="M1152.55,1093.07a401.28,401.28,0,0,1,143.53,54.4c-49.46,28.44-105.41,46.25-163.8,48.26,2.24-33.92,7.51-67.43,19-99.31C1151.7,1095.29,1152.13,1094.18,1152.55,1093.07Z"/><path class="cls-13" d="M1201.87,1006c38.77-51.75,87.91-96.3,145.38-125.93,43.18-22.26,91.17-35.83,139.59-38a345.18,345.18,0,0,1-8.44,70.23c-21.09,92.92-90.51,182.33-182.32,235.13a401.28,401.28,0,0,0-143.53-54.4C1164.32,1061.76,1181.81,1032.8,1201.87,1006Z"/></g><g id="DIGITAL"><path class="cls-14" d="M597.93,125.69a4,4,0,0,1-2.95-4.77l2.3-9.74A4,4,0,1,1,605,113l-2.3,9.75A4,4,0,0,1,597.93,125.69Z"/><path class="cls-14" d="M591.65,152.33a4,4,0,0,1-2.95-4.77l2.3-9.74a4,4,0,1,1,7.71,1.81l-2.29,9.75A4,4,0,0,1,591.65,152.33Z"/><path class="cls-14" d="M614.13,138.42l-9.74-2.3a4,4,0,1,1,1.81-7.71l9.75,2.3a4,4,0,1,1-1.82,7.71Z"/><path class="cls-14" d="M587.49,132.14l-9.74-2.29a4,4,0,0,1,1.81-7.72l9.75,2.3a4,4,0,1,1-1.82,7.71Z"/><path class="cls-14" d="M676.38,92.27a2.6,2.6,0,0,1-3.51-1.13l-3-5.88a2.61,2.61,0,0,1,4.65-2.38l3,5.88A2.61,2.61,0,0,1,676.38,92.27Z"/><path class="cls-14" d="M684.59,108.33a2.6,2.6,0,0,1-3.51-1.14l-3-5.87a2.61,2.61,0,0,1,4.65-2.38l3,5.88A2.61,2.61,0,0,1,684.59,108.33Z"/><path class="cls-14" d="M690,91.75l-5.88,3a2.61,2.61,0,1,1-2.37-4.65l5.87-3A2.61,2.61,0,1,1,690,91.75Z"/><path class="cls-14" d="M673.89,100,668,103a2.61,2.61,0,1,1-2.38-4.65l5.87-3a2.61,2.61,0,1,1,2.38,4.65Z"/><path class="cls-14" d="M658.21,136.34a1.27,1.27,0,0,1-1.79-.09l-2.15-2.38a1.27,1.27,0,1,1,1.88-1.7l2.15,2.38A1.27,1.27,0,0,1,658.21,136.34Z"/><path class="cls-14" d="M664.08,142.85a1.27,1.27,0,0,1-1.79-.09l-2.15-2.38a1.27,1.27,0,1,1,1.88-1.7l2.15,2.38A1.27,1.27,0,0,1,664.08,142.85Z"/><path class="cls-14" d="M664.51,134.39l-2.38,2.15a1.27,1.27,0,0,1-1.7-1.88l2.38-2.15a1.27,1.27,0,1,1,1.7,1.88Z"/><path class="cls-14" d="M658,140.27l-2.38,2.14a1.27,1.27,0,1,1-1.7-1.88l2.38-2.15a1.27,1.27,0,0,1,1.7,1.89Z"/><path class="cls-14" d="M630.6,180.79a1.29,1.29,0,0,1-1.8-.1l-2.14-2.38a1.27,1.27,0,0,1,1.88-1.7l2.15,2.38A1.28,1.28,0,0,1,630.6,180.79Z"/><path class="cls-14" d="M636.47,187.29a1.27,1.27,0,0,1-1.79-.09l-2.15-2.38a1.27,1.27,0,0,1,1.88-1.7l2.15,2.38A1.27,1.27,0,0,1,636.47,187.29Z"/><path class="cls-14" d="M636.9,178.84,634.52,181a1.27,1.27,0,0,1-1.7-1.89L635.2,177a1.27,1.27,0,0,1,1.7,1.89Z"/><path class="cls-14" d="M630.4,184.71,628,186.86a1.27,1.27,0,0,1-1.7-1.88l2.39-2.15a1.27,1.27,0,0,1,1.7,1.88Z"/><path class="cls-14" d="M1333.4,790.44a4,4,0,0,1-3-4.77l2.3-9.74a4,4,0,0,1,7.71,1.81l-2.3,9.75A4,4,0,0,1,1333.4,790.44Z"/><path class="cls-14" d="M1327.12,817.08a4,4,0,0,1-2.94-4.77l2.29-9.75a4,4,0,0,1,7.71,1.82l-2.29,9.75A4,4,0,0,1,1327.12,817.08Z"/><path class="cls-14" d="M1349.6,803.17l-9.74-2.3a4,4,0,0,1,1.81-7.71l9.75,2.3a4,4,0,1,1-1.82,7.71Z"/><path class="cls-14" d="M1323,796.89l-9.74-2.29a4,4,0,0,1,1.81-7.72l9.75,2.3a4,4,0,1,1-1.82,7.71Z"/><path class="cls-14" d="M1411.85,757a2.6,2.6,0,0,1-3.51-1.14l-3-5.87a2.61,2.61,0,0,1,4.65-2.38l3,5.88A2.62,2.62,0,0,1,1411.85,757Z"/><path class="cls-14" d="M1420.06,773.08a2.6,2.6,0,0,1-3.51-1.14l-3-5.87a2.61,2.61,0,0,1,4.65-2.38l3,5.88A2.61,2.61,0,0,1,1420.06,773.08Z"/><path class="cls-14" d="M1425.42,756.5l-5.87,3a2.61,2.61,0,1,1-2.38-4.65l5.87-3a2.61,2.61,0,1,1,2.38,4.65Z"/><path class="cls-14" d="M1409.36,764.72l-5.87,3a2.61,2.61,0,1,1-2.38-4.65l5.87-3a2.61,2.61,0,1,1,2.38,4.65Z"/><path class="cls-14" d="M1393.68,801.09a1.27,1.27,0,0,1-1.79-.09l-2.15-2.38a1.27,1.27,0,0,1,1.88-1.7l2.15,2.38A1.27,1.27,0,0,1,1393.68,801.09Z"/><path class="cls-14" d="M1399.55,807.6a1.27,1.27,0,0,1-1.79-.09l-2.15-2.38a1.27,1.27,0,1,1,1.88-1.7l2.15,2.38A1.27,1.27,0,0,1,1399.55,807.6Z"/><path class="cls-14" d="M1400,799.14l-2.38,2.15a1.27,1.27,0,0,1-1.7-1.88l2.38-2.15a1.27,1.27,0,1,1,1.7,1.88Z"/><path class="cls-14" d="M1393.48,805l-2.38,2.14a1.27,1.27,0,0,1-1.7-1.88l2.38-2.15a1.27,1.27,0,0,1,1.7,1.89Z"/><path class="cls-14" d="M1366.07,845.54a1.28,1.28,0,0,1-1.79-.1l-2.15-2.38a1.27,1.27,0,1,1,1.88-1.7l2.15,2.38A1.28,1.28,0,0,1,1366.07,845.54Z"/><path class="cls-14" d="M1371.94,852a1.27,1.27,0,0,1-1.79-.09l-2.15-2.38a1.27,1.27,0,0,1,1.88-1.7l2.15,2.38A1.27,1.27,0,0,1,1371.94,852Z"/><path class="cls-14" d="M1372.37,843.59l-2.38,2.15a1.27,1.27,0,0,1-1.7-1.89l2.38-2.15a1.27,1.27,0,0,1,1.7,1.89Z"/><path class="cls-14" d="M1365.87,849.46l-2.38,2.15a1.27,1.27,0,1,1-1.7-1.89l2.38-2.14a1.27,1.27,0,1,1,1.7,1.88Z"/><path class="cls-14" d="M749.71,212.63a4,4,0,0,1-3-4.77l2.3-9.75a4,4,0,0,1,7.71,1.82l-2.3,9.75A4,4,0,0,1,749.71,212.63Z"/><path class="cls-14" d="M743.43,239.26a4,4,0,0,1-2.95-4.76l2.3-9.75a4,4,0,0,1,7.71,1.82l-2.29,9.75A4,4,0,0,1,743.43,239.26Z"/><path class="cls-14" d="M765.91,225.36l-9.74-2.3a4,4,0,0,1,1.81-7.71l9.75,2.3a4,4,0,1,1-1.82,7.71Z"/><path class="cls-14" d="M739.27,219.08l-9.74-2.29a4,4,0,0,1,1.81-7.72l9.75,2.3a4,4,0,1,1-1.82,7.71Z"/><path class="cls-14" d="M828.16,179.21a2.6,2.6,0,0,1-3.51-1.14l-3-5.87a2.61,2.61,0,0,1,4.65-2.38l3,5.88A2.61,2.61,0,0,1,828.16,179.21Z"/><path class="cls-14" d="M836.37,195.27a2.61,2.61,0,0,1-3.51-1.14l-3-5.87a2.61,2.61,0,1,1,4.65-2.38l3,5.87A2.62,2.62,0,0,1,836.37,195.27Z"/><path class="cls-14" d="M841.73,178.69l-5.88,3a2.61,2.61,0,1,1-2.37-4.65l5.87-3a2.61,2.61,0,1,1,2.38,4.65Z"/><path class="cls-14" d="M825.67,186.91l-5.87,3a2.61,2.61,0,1,1-2.38-4.65l5.87-3a2.61,2.61,0,1,1,2.38,4.65Z"/><path class="cls-14" d="M810,223.28a1.27,1.27,0,0,1-1.79-.09l-2.15-2.38a1.27,1.27,0,0,1,1.88-1.7l2.15,2.38A1.27,1.27,0,0,1,810,223.28Z"/><path class="cls-14" d="M815.86,229.79a1.27,1.27,0,0,1-1.79-.1l-2.15-2.38a1.27,1.27,0,0,1,1.88-1.7L816,228A1.28,1.28,0,0,1,815.86,229.79Z"/><path class="cls-14" d="M816.29,221.33l-2.38,2.15a1.27,1.27,0,0,1-1.7-1.88l2.38-2.15a1.27,1.27,0,1,1,1.7,1.88Z"/><path class="cls-14" d="M809.79,227.2l-2.38,2.15a1.27,1.27,0,1,1-1.7-1.88l2.38-2.15a1.27,1.27,0,1,1,1.7,1.88Z"/><path class="cls-14" d="M782.38,267.72a1.28,1.28,0,0,1-1.8-.09l-2.14-2.38a1.27,1.27,0,1,1,1.88-1.7l2.15,2.38A1.27,1.27,0,0,1,782.38,267.72Z"/><path class="cls-14" d="M788.25,274.23a1.27,1.27,0,0,1-1.79-.09l-2.15-2.38a1.27,1.27,0,1,1,1.88-1.7l2.15,2.38A1.27,1.27,0,0,1,788.25,274.23Z"/><path class="cls-14" d="M788.68,265.78l-2.38,2.15a1.27,1.27,0,0,1-1.7-1.89l2.38-2.15a1.27,1.27,0,0,1,1.7,1.89Z"/><path class="cls-14" d="M782.17,271.65l-2.38,2.15a1.27,1.27,0,0,1-1.7-1.89l2.38-2.14a1.27,1.27,0,1,1,1.7,1.88Z"/><path class="cls-15" d="M1267.3,451.52v704.92a17.46,17.46,0,0,1-17.46,17.46H275.62a17.46,17.46,0,0,1-17.46-17.46V451.5A17.46,17.46,0,0,1,275.63,434l974.21,0A17.45,17.45,0,0,1,1267.3,451.52Z"/><rect class="cls-14" x="293.13" y="465.44" width="904.78" height="674.02"/><rect class="cls-14" x="1167.12" y="792.57" width="130.95" height="22.81" rx="9" transform="translate(428.6 2036.57) rotate(-90)"/><path class="cls-15" d="M693.72,998.39l-172.44.27a8.52,8.52,0,1,1,0-17l172.44-.27a8.52,8.52,0,0,1,0,17Z"/><path class="cls-15" d="M495.09,998.7,327.32,999a8.52,8.52,0,1,1,0-17l167.77-.26a8.52,8.52,0,0,1,0,17Z"/><path class="cls-15" d="M693.8,1053.4l-67.65.1a8.51,8.51,0,1,1,0-17l67.66-.11a8.52,8.52,0,0,1,0,17Z"/><path class="cls-15" d="M604.32,1053.54l-206.07.32a8.52,8.52,0,1,1,0-17l206.07-.32a8.52,8.52,0,0,1,0,17Z"/><path class="cls-15" d="M374.68,1053.9l-47.28.07a8.52,8.52,0,0,1,0-17l47.27-.07a8.52,8.52,0,0,1,0,17Z"/><path class="cls-15" d="M693.89,1108.41l-217,.34a8.52,8.52,0,1,1,0-17l217-.34a8.52,8.52,0,0,1,0,17Z"/><path class="cls-15" d="M452.47,1108.78l-24.45,0a8.51,8.51,0,0,1,0-17l24.45,0a8.51,8.51,0,1,1,0,17Z"/><path class="cls-15" d="M401.58,1108.86l-74.09.12a8.52,8.52,0,1,1,0-17l74.1-.11a8.51,8.51,0,1,1,0,17Z"/><rect class="cls-16" x="318.97" y="492.72" width="383.25" height="403.87"/><rect class="cls-17" x="318.97" y="913.69" width="251.37" height="44.49"/><rect class="cls-18" x="500.88" y="815.07" width="19.43" height="81.53"/><path class="cls-19" d="M509.14,502.33H512a8.26,8.26,0,0,1,8.26,8.26v28.76a0,0,0,0,1,0,0H500.88a0,0,0,0,1,0,0V510.59A8.26,8.26,0,0,1,509.14,502.33Z"/><path class="cls-20" d="M582.89,601.59l-6.45-1.69-2.75,9.51,5.56,1.45a12,12,0,0,0,14.6-8.3l1.47-5.09A12,12,0,0,1,582.89,601.59Z"/><path class="cls-21" d="M484.37,535h-3.56c0,.38-.05.77-.08,1.15V539c1.2-.24,2.41-.48,3.64-.7Z"/><path class="cls-22" d="M477.61,686.08c-.43-11.65-12.55-22.16-9.13-28.74l-9-30.93-7.66-26.51-6.45,1.69a12,12,0,0,1-14.59-8.3l-6.57-22.7a10.8,10.8,0,0,1-.32-1.56,10.38,10.38,0,0,0-3.32,10.83l6.57,22.7a12,12,0,0,0,14.59,8.3l6.45-1.68,7.67,26.5,8.94,30.93c-3.41,6.58,8.7,17.09,9.14,28.74a26.4,26.4,0,0,1-.11,3.52A18.93,18.93,0,0,0,477.61,686.08Z"/><path class="cls-21" d="M565.14,635.68l-7.47,25.81h3.15c-.3-1.35-.63-2.73-1-4.15l8.94-30.93,4.92-17-.89-.23Z"/><path class="cls-21" d="M565.14,635.68l7.66-26.5.89.23,2.75-9.51,6.45,1.69a12,12,0,0,0,12.43-4.12l5.09-17.61A10.37,10.37,0,0,0,595.68,568c-3.29-1.92-7.2-4-11.7-6.23a171,171,0,0,0-43.68-14.28V536.19a8.77,8.77,0,0,0-.08-1.15H484.37v3.21c-1.23.22-2.44.46-3.64.7v8.57a170.93,170.93,0,0,0-43.67,14.28c-4.5,2.18-8.42,4.31-11.7,6.23a10.33,10.33,0,0,0-1.42,1,10.8,10.8,0,0,0,.32,1.56l6.57,22.7a12,12,0,0,0,14.59,8.3l6.45-1.69,7.66,26.51,9,30.93a6.21,6.21,0,0,0-.45,4.15h89.64Z"/><path class="cls-23" d="M531.51,527.24H489.68a9,9,0,0,0-8.87,7.8h59.56A8.93,8.93,0,0,0,531.51,527.24Z"/><path class="cls-24" d="M580.12,576a32.58,32.58,0,0,1,4-11H540.87l-28.76,45.71,50.06,81.6h2.14V671.34a86.79,86.79,0,0,1,1-13.76,35.52,35.52,0,0,1,1.57-6.08c2.8-8.08,10.32-16,14.32-24.08a40.9,40.9,0,0,0,4-18.14C585.39,594.7,578,588.76,580.12,576Z"/><polygon class="cls-25" points="471.25 675.58 541.99 692.25 562.17 692.25 512.11 610.65 471.25 675.58"/><polygon class="cls-26" points="564.31 692.25 512.11 610.65 484.07 564.94 475.42 564.94 555.17 692.25 564.31 692.25"/><path class="cls-24" d="M475.42,564.94H441a32.58,32.58,0,0,1,4,11c2.12,12.79-5.27,18.73-5.09,33.31a40.8,40.8,0,0,0,4,18.14c4,8.06,11.51,16,14.32,24.08a35.36,35.36,0,0,1,1.56,6.08,85.63,85.63,0,0,1,1,13.76v20.91h94.36Z"/><path class="cls-24" d="M466.75,858.93c1.33,1.83,17.62,23.4,45.63,22.45,25.79-.87,40.27-20.1,42-22.45,0,0-36.61-64.91-30-114V713.44H494.81Z"/><path class="cls-27" d="M612.11,839.45a61.24,61.24,0,0,1-57.75,19.48S502.78,779.7,521,714.3h21.47Z"/><path class="cls-24" d="M564.31,716.25s28,76.79,80.67,86.23c0,0-.65,36.52-32.87,37,0,0-84-65.69-74.83-126Z"/><path class="cls-28" d="M411.59,839.45s22.46,28,55.16,19.48c0,0,31-12.69,28.06-123.73V710.64h-12Z"/><path class="cls-24" d="M460.81,716.25s-27.5,75.33-84.6,86.55c0,0,0,38.07,34.16,36.61S488,741.82,486.68,714.3Z"/><rect class="cls-26" x="460.81" y="692.25" width="103.5" height="5.61"/><rect class="cls-26" x="460.81" y="710.64" width="103.5" height="5.61"/><rect class="cls-24" x="460.81" y="697.86" width="103.5" height="12.77"/><path class="cls-26" d="M584.15,564.94V561.8a170.87,170.87,0,0,0-37.17-13l-6.11,16.11Z"/><path class="cls-26" d="M484.07,564.94l-6.24-16.87A171.1,171.1,0,0,0,441,560v5Z"/><path class="cls-29" d="M547.26,550.84a7.41,7.41,0,0,0-11.42-6.25,7.92,7.92,0,0,1,.85-.05,7.42,7.42,0,0,1,4,13.67A7.42,7.42,0,0,0,547.26,550.84Z"/><path class="cls-30" d="M544.11,552a7.42,7.42,0,0,0-7.42-7.42,7.92,7.92,0,0,0-.85.05,7.42,7.42,0,0,0,4,13.67,7.92,7.92,0,0,0,.85,0A7.42,7.42,0,0,0,544.11,552Z"/><path class="cls-31" d="M544.11,552a7.42,7.42,0,0,0-7.42-7.42,7.92,7.92,0,0,0-.85.05,7.42,7.42,0,0,0,4,13.67,7.92,7.92,0,0,0,.85,0A7.42,7.42,0,0,0,544.11,552Z"/><path class="cls-32" d="M532.42,550.84a8.58,8.58,0,0,0-1.35.1,8.55,8.55,0,0,1,0,16.89,8.55,8.55,0,1,0,1.35-17Z"/><ellipse class="cls-33" cx="531.07" cy="559.38" rx="7.2" ry="8.44"/><ellipse class="cls-34" cx="531.07" cy="559.38" rx="7.2" ry="8.44"/><path class="cls-35" d="M529.41,560.29a9.34,9.34,0,0,1,1.56,5.2,9.44,9.44,0,0,1-15,7.64,9.45,9.45,0,1,0,13.43-12.84Z"/><path class="cls-36" d="M531,565.49a6.06,6.06,0,0,0-7.1-7,8.3,8.3,0,1,0,7.1,7Z"/><path class="cls-37" d="M531,565.49a6.06,6.06,0,0,0-7.1-7,8.3,8.3,0,1,0,7.1,7Z"/><path class="cls-38" d="M487.31,546.22a7.41,7.41,0,0,1,4.27,1.36,7.42,7.42,0,1,0-10.93,9.32,7.31,7.31,0,0,1-.76-3.26A7.42,7.42,0,0,1,487.31,546.22Z"/><path class="cls-39" d="M492.34,550.84a7.27,7.27,0,0,0-.76-3.26,7.41,7.41,0,0,0-11.69,6.06,7.31,7.31,0,0,0,.76,3.26,7.41,7.41,0,0,0,11.69-6.06Z"/><path class="cls-40" d="M492.34,550.84a7.27,7.27,0,0,0-.76-3.26,7.41,7.41,0,0,0-11.69,6.06,7.31,7.31,0,0,0,.76,3.26,7.41,7.41,0,0,0,11.69-6.06Z"/><path class="cls-41" d="M486.18,557.26a8.52,8.52,0,0,1,1.78-5.21,8.55,8.55,0,1,0,11.16,12.55,8.55,8.55,0,0,1-12.94-7.34Z"/><path class="cls-42" d="M492.34,550.84a7.58,7.58,0,0,0,2.39,15,8.63,8.63,0,0,0,4.39-1.21,8.55,8.55,0,0,0-6.78-13.76Z"/><path class="cls-43" d="M492.34,550.84a7.58,7.58,0,0,0,2.39,15,8.63,8.63,0,0,0,4.39-1.21,8.55,8.55,0,0,0-6.78-13.76Z"/><path class="cls-44" d="M494.73,565.9a9.43,9.43,0,0,1,2.95-6.85,9.44,9.44,0,1,0,9.7,15.74,9.45,9.45,0,0,1-12.65-8.89Z"/><path class="cls-45" d="M510.34,567.93a9.45,9.45,0,0,0-9.45-9.44,9.54,9.54,0,0,0-3.21.56,9.44,9.44,0,1,0,12.66,8.88Z"/><path class="cls-46" d="M510.34,567.93a9.45,9.45,0,0,0-9.45-9.44,9.54,9.54,0,0,0-3.21.56,9.44,9.44,0,1,0,12.66,8.88Z"/><path class="cls-47" d="M515.77,578.25a11.46,11.46,0,0,0,4.2-15.66c-.2-.34-.41-.66-.63-1a11.47,11.47,0,0,0-16.73,15c.19.33.4.66.62,1A11.49,11.49,0,0,0,515.77,578.25Z"/><path class="cls-48" d="M518.27,580.78a11.46,11.46,0,0,0,1.07-19.16c.22.31.43.63.63,1a11.47,11.47,0,0,1-16.74,15A11.47,11.47,0,0,0,518.27,580.78Z"/><rect class="cls-49" x="733.51" y="492.72" width="225.3" height="31.18"/><rect class="cls-49" x="733.51" y="536.97" width="281.18" height="15.59"/><path class="cls-50" d="M830.59,596.34c-2.42,3.72-4.6,7.58-6.7,11.5a166.92,166.92,0,0,0,89.46,38.88c10-23.17,19.55-47.56,39.14-63.18A79.71,79.71,0,0,1,970.31,573H852A99.69,99.69,0,0,0,830.59,596.34Z"/><path class="cls-51" d="M1168.36,655.54l-2,.5c-25.32,5.72-53.2,4.17-75.41-9.26-10.17-6.14-19-14.65-30.13-18.89-24.62-9.4-51.18,4.45-76.32,12.35a171,171,0,0,1-71.13,6.48c-.85,2-1.72,4-2.59,5.93C900.82,675,888.55,696.7,871,713.72c-.64.62-1.29,1.23-1.94,1.84h299.3Z"/><path class="cls-52" d="M913.35,646.72a171,171,0,0,0,71.13-6.48c25.14-7.9,51.7-21.75,76.32-12.35,11.1,4.24,20,12.75,30.13,18.89,22.21,13.43,50.09,15,75.41,9.26l2-.5V573h-198a79.71,79.71,0,0,0-17.82,10.59C932.9,599.16,923.38,623.55,913.35,646.72Z"/><path class="cls-53" d="M792.56,573h-59v96.4a135,135,0,0,0,14.85-1.59c23.18-3.86,45.8-15,60.07-33.65,6.18-8.08,10.63-17.29,15.46-26.27,2.1-3.92,4.28-7.78,6.7-11.5A99.69,99.69,0,0,1,852,573Z"/><path class="cls-54" d="M910.76,652.65c.87-2,1.74-3.94,2.59-5.93a166.92,166.92,0,0,1-89.46-38.88c-4.83,9-9.28,18.19-15.46,26.27-14.27,18.68-36.89,29.79-60.07,33.65a135,135,0,0,1-14.85,1.59v46.21H869.06c.65-.61,1.3-1.22,1.94-1.84C888.55,696.7,900.82,675,910.76,652.65Z"/><path class="cls-14" d="M868.6,616.21v3.57a3,3,0,0,1-2.94,2.94H855.13a3,3,0,0,1-3-2.94v-1.4c0-6.66-2.94-12.08-9.6-12.08S833,611.72,833,618.38v4.8c0,1.55,0,5.89,2.33,8.83,6.5,8.22,20,6,30.05,22.78,2.32,3.87,3.25,11.31,3.25,13.32v4.19c0,14.4-9.45,26.18-24,26.18h-4c-14.4,0-23.86-11.78-23.86-26.18v-2.95a2.85,2.85,0,0,1,2.95-2.94H830a2.85,2.85,0,0,1,2.94,2.94v.78c0,6.66,3.1,12.08,9.61,12.08s9.6-5.42,9.6-12.08v-2c0-1.86-.46-7.12-3.25-10.53-7-8.83-23.24-5.42-30.52-23.09-1.4-3.56-1.71-9.29-1.71-11.31v-7c0-14.4,9.46-26.18,23.86-26.18h4C859.15,590,868.6,601.81,868.6,616.21Z"/><path class="cls-14" d="M945.29,698.48H934.75a3.49,3.49,0,0,1-3.41-3l-2.17-13.94h-22L905,695.53a3.34,3.34,0,0,1-3.26,3H891.22a2.43,2.43,0,0,1-2.48-3L905,593a3.6,3.6,0,0,1,3.4-3h19.52a3.36,3.36,0,0,1,3.41,3l16.42,102.55A2.5,2.5,0,0,1,945.29,698.48Zm-18.75-33.31-8.36-51.9-8.37,51.9Z"/><path class="cls-14" d="M1014.68,685v10.53a2.94,2.94,0,0,1-2.94,3h-38a2.82,2.82,0,0,1-2.79-3V593a2.82,2.82,0,0,1,2.79-3h10.53a2.85,2.85,0,0,1,2.94,3v89.23h24.48A2.91,2.91,0,0,1,1014.68,685Z"/><path class="cls-14" d="M1054.18,606.3V636h22.16a3,3,0,0,1,2.94,3v10.53a3,3,0,0,1-2.94,3h-22.16v29.74h28a2.92,2.92,0,0,1,3,2.79v10.53a3,3,0,0,1-3,3h-41.36a2.85,2.85,0,0,1-2.94-3V593a2.85,2.85,0,0,1,2.94-3h41.36a3,3,0,0,1,3,3v10.53a2.92,2.92,0,0,1-3,2.79Z"/><rect class="cls-55" x="733.51" y="735.95" width="103.95" height="103.95"/><rect class="cls-56" x="898.96" y="735.95" width="103.95" height="103.95"/><rect class="cls-57" x="1064.42" y="735.95" width="103.95" height="103.95"/><rect class="cls-58" x="733.51" y="865.7" width="30.64" height="8.26" rx="2.89"/><rect class="cls-59" x="769.15" y="865.7" width="68.31" height="8.26" rx="2.72"/><rect class="cls-60" x="733.51" y="885.92" width="56.66" height="8.26" rx="2.89"/><rect class="cls-61" x="797.16" y="885.92" width="40.29" height="8.26" rx="2.89"/><rect class="cls-62" x="898.96" y="865.7" width="44.94" height="8.26" rx="2.89"/><rect class="cls-63" x="972.03" y="865.7" width="30.87" height="8.26" rx="2.89"/><rect class="cls-64" x="949.27" y="865.7" width="19.07" height="8.26" rx="2.89"/><rect class="cls-65" x="898.96" y="885.92" width="13.74" height="8.26" rx="2.89"/><rect class="cls-66" x="919.7" y="885.92" width="83.2" height="8.26" rx="2.89"/><rect class="cls-67" x="1064.42" y="865.7" width="44.94" height="8.26" rx="2.89"/><rect class="cls-68" x="1114.36" y="865.7" width="54" height="8.26" rx="2.89"/><rect class="cls-69" x="1064.42" y="885.92" width="70.96" height="8.26" rx="2.89"/><rect class="cls-70" x="1142.38" y="885.92" width="25.99" height="8.26" rx="2.89"/><rect class="cls-71" x="733.51" y="922.93" width="434.86" height="28.29"/><rect class="cls-72" x="733.51" y="967.53" width="259.33" height="48.62"/><rect class="cls-73" x="733.51" y="1061.5" width="434.86" height="77.96"/><path class="cls-74" d="M733.51,1041.14v20.36h366.68v-25.13H738.28A4.77,4.77,0,0,0,733.51,1041.14Z"/><path class="cls-75" d="M1163.59,1036.37h-63.4v25.13h68.17v-20.36A4.77,4.77,0,0,0,1163.59,1036.37Z"/><path class="cls-76" d="M383.42,0H142.63A142.63,142.63,0,0,0,0,142.63H0A142.64,142.64,0,0,0,142.63,285.27H253.76a124.33,124.33,0,0,0,24.7,34.57c23.77,23.39,50.78,30.88,63.16,33.47C337,349,317.25,329.43,315.9,298.48a77.19,77.19,0,0,1,.58-13.21h66.94A142.64,142.64,0,0,0,526.05,142.63h0A142.63,142.63,0,0,0,383.42,0Z"/><path class="cls-14" d="M84.62,45.31a5,5,0,0,0,2.58-.71A113.67,113.67,0,0,1,145,28.83h4.29a5.08,5.08,0,0,0,0-10.16H145A123.92,123.92,0,0,0,82,35.86a5.08,5.08,0,0,0,2.59,9.45Z"/><path class="cls-14" d="M491.89,104.75a5.2,5.2,0,0,0,1.84-.34,5.09,5.09,0,0,0,2.9-6.57A124,124,0,0,0,381,18.67H299.27a5.08,5.08,0,1,0,0,10.16H381a114.58,114.58,0,0,1,106.15,72.68A5.08,5.08,0,0,0,491.89,104.75Z"/><path class="cls-14" d="M480.69,212.51A5.06,5.06,0,0,0,485,210.2a123.44,123.44,0,0,0,20-67.57,125.63,125.63,0,0,0-1.41-18.72,5.08,5.08,0,0,0-10,1.52,114.7,114.7,0,0,1,1.29,17.2,113.34,113.34,0,0,1-18.37,62,5.08,5.08,0,0,0,4.25,7.85Z"/><path class="cls-14" d="M456.88,239.24a5.06,5.06,0,0,0,3.24-1.17A126,126,0,0,0,472,226.77a5.08,5.08,0,0,0-7.46-6.89,114.05,114.05,0,0,1-10.94,10.37,5.08,5.08,0,0,0,3.24,9Z"/><path class="cls-14" d="M145,266.59h9.7a5.08,5.08,0,1,0,0-10.15H145A113.56,113.56,0,0,1,34.56,170.07a5.07,5.07,0,1,0-9.85,2.44A123.68,123.68,0,0,0,145,266.59Z"/><path class="cls-14" d="M54.63,70.52a5.09,5.09,0,0,0,3.86-1.78A114.64,114.64,0,0,1,71.25,56a5.08,5.08,0,0,0-6.59-7.72A123.76,123.76,0,0,0,50.77,62.14a5.08,5.08,0,0,0,3.86,8.38Z"/><path class="cls-14" d="M129.37,130.17a37.18,37.18,0,0,1,13.08,7.62A41.18,41.18,0,0,1,152,150.05a29.26,29.26,0,0,1,3.5,13.28v9.88q0,12.36-5.66,21a37.4,37.4,0,0,1-13.9,13q-8.24,4.32-15.24,4.33H86.33c-3.29,0-5.63-.55-7-1.65s-2.06-3-2.06-5.56V77.87c0-2.74,1.37-4.12,4.12-4.12H103a77.08,77.08,0,0,1,18,3,45,45,0,0,1,18.22,9.88q8,7.11,8,19.26a24.38,24.38,0,0,1-3,12.25,26.19,26.19,0,0,1-7.21,8.34A19.13,19.13,0,0,1,129.37,130.17Zm-29.86-10.5c0,1.38.48,2.06,1.44,2.06h.21c0,.28,2.43-.1,7.31-1.13a43.37,43.37,0,0,0,13.08-4.94q5.76-3.41,5.76-9.17a10.69,10.69,0,0,0-5.76-9.88,34.75,34.75,0,0,0-12.88-4.22q-7.1-.93-7.1-.52A2.89,2.89,0,0,0,101,92a1.63,1.63,0,0,0-.82.61,2.43,2.43,0,0,0-.41,1.55q.19,5.14-.21,20.8Zm.62,71.05a5,5,0,0,0,2.06.2l10.71-.2a19.62,19.62,0,0,0,8.65-2.37,23,23,0,0,0,8.13-6.9,17.7,17.7,0,0,0,3.4-10.91v-6a18.19,18.19,0,0,0-6-13.69,20.76,20.76,0,0,0-14.83-5.66c-1.1,0-2.47-.07-4.12-.21s-3.37-.2-5.15-.2a7,7,0,0,0-2.88.41q-.61.61-.62,24.5Q99.51,190.31,100.13,190.72Z"/><path class="cls-14" d="M235.83,102.58a30.6,30.6,0,0,1-4.12-.21H220q-11.34,0-14.42-.2h-1.65c-1.37,0-2.19.24-2.47.72a13.12,13.12,0,0,0-.82,3.6q-.21,5.36-.21,19.36h10.3q17.7,0,20.39.62c1.78.27,2.67,2.06,2.67,5.35,0,5.49-.34,9.55-1,12.15a5.09,5.09,0,0,1-3.19,1.44,22.67,22.67,0,0,1-3.19.42l-22.86.41a2.37,2.37,0,0,0-2.68,2.67q-.4,7.83-.41,14.83,0,8.65.21,15.55t.2,7.51q3.09-.2,34.6-.2c2.06,0,3.43.24,4.12.72a2.28,2.28,0,0,1,1,2L240,206.16a2,2,0,0,1-1.34,1.85,7.41,7.41,0,0,1-3.19.62l-55.81.21a3,3,0,0,1-2.47-.83,4.09,4.09,0,0,1-.61-2.47q0-113.86.2-119.85a5.06,5.06,0,0,1,1.34-3.08A3.69,3.69,0,0,1,180.85,81H235q6,0,6,6v5.25a37.33,37.33,0,0,1-.82,8.34C239.61,101.9,238.16,102.58,235.83,102.58Z"/><path class="cls-14" d="M277.43,156.12c.54.41.82,2.88.82,7.41,0,3.85.07,6.59.21,8.24a25.83,25.83,0,0,0,3.6,9.58,9.93,9.93,0,0,0,9.16,5q6.79,0,9-5.76t2.16-16.07a14,14,0,0,0-4.63-10.81q-4.63-4.22-14.31-9.57A118.13,118.13,0,0,1,269,135.32a36,36,0,0,1-9.57-11q-4-6.9-4-16.79a27.77,27.77,0,0,1,4.33-14.41,34,34,0,0,1,12.56-12,38.23,38.23,0,0,1,19.36-4.73,32.36,32.36,0,0,1,17.91,5q7.83,5.06,10.19,10c1.58,3.3,2.44,5,2.58,5.15a6,6,0,0,1,1.23,2.68c0,.55-.75,1.37-2.26,2.47q-8.24,4.93-12.56,7.2a2.55,2.55,0,0,1-1.86.21c-.82-.13-1.23-.34-1.23-.62a19.92,19.92,0,0,0-5.56-8,12.48,12.48,0,0,0-8.44-3.5,16,16,0,0,0-9.89,3.09q-4.12,3.09-4.12,9.88a10.49,10.49,0,0,0,4.64,8.65,61.54,61.54,0,0,0,12,6.8c.55.28,1.2.58,2,.93a22.06,22.06,0,0,1,2.16,1.13,141.73,141.73,0,0,1,11.64,8.44q5,4.13,10.29,12.36A34.09,34.09,0,0,1,325.61,167,69.05,69.05,0,0,1,323,183.92a41.81,41.81,0,0,1-10.61,18.33q-8,8.44-23.06,8.44a34.36,34.36,0,0,1-17.81-4.43,31.46,31.46,0,0,1-11.43-11A26.55,26.55,0,0,1,256,182.69c-.13-2.89-.21-7.07-.21-12.57V157.56c0-1.09.18-1.78.52-2.06a3.82,3.82,0,0,1,2.16-.41h8.24C273.17,155.09,276.74,155.44,277.43,156.12Z"/><path class="cls-14" d="M340.64,101.35q-.81,0-.82-11.95c0-1.51,0-2.57-.1-3.19s-.11-1-.11-1.13a3.82,3.82,0,0,1,1.55-3.71,6.18,6.18,0,0,1,3.6-1.23h63.43a18.88,18.88,0,0,1,4.73.41,1.78,1.78,0,0,1,1.45,1.85l-.21,17.09a1.82,1.82,0,0,1-1.54,1.86,26.1,26.1,0,0,1-5.67.41H389.86a1.57,1.57,0,0,0-.93.41,1.28,1.28,0,0,0-.51,1v99.87q0,3.92-1.34,5.05t-5.66,1.34q-3.09.19-10.71.2a3.9,3.9,0,0,1-3.19-1.13,6,6,0,0,1-.93-3.81q0-25.53-.21-48.6-.4-48.18-.2-52.51c0-1.65-.69-2.47-2.06-2.47h-1c-3.29.28-7,.41-11.12.41Z"/><path class="cls-14" d="M430.84,193.6a14,14,0,0,1,.1-4.12,1.65,1.65,0,0,1,1.34-1.23,41.71,41.71,0,0,1,4.53-.42c1,0,2.6,0,4.94.11a37.82,37.82,0,0,0,6.38-.31,3.85,3.85,0,0,1,2.78.41q.72.61.93,2.88a53.78,53.78,0,0,0,.21,5.56l.2,6a8.42,8.42,0,0,1-1,4.64,3.26,3.26,0,0,1-2.88,1.54q-1.23,0-3.81.21c-1.72.14-3.74.2-6.07.2l-3.51-.2q-3.7-.42-3.91-3.91v-5.36Q431,195.46,430.84,193.6Zm17.5-115.32c1.92,0,2.88,1.31,2.88,3.91l.21,66.52v14.41a6.49,6.49,0,0,1-.52,2.89,3.1,3.1,0,0,1-1,1.33,1.71,1.71,0,0,1-.72.31H433.31a2,2,0,0,1-1.86-1.34,7,7,0,0,1-.61-3q0-67.55.2-80.93c0-2.74,1.44-4.12,4.33-4.12,2.19-.13,4.77-.17,7.72-.1S447.79,78.28,448.34,78.28Z"/><path class="cls-77" d="M1034.11,94.53V331.66a122,122,0,0,1-93.3-118.57h0A122,122,0,0,1,1034.11,94.53Z"/><path class="cls-78" d="M1487.55,213.09h0a122,122,0,0,1-93.3,118.57V94.53A122,122,0,0,1,1487.55,213.09Z"/><path class="cls-14" d="M1415.19,129.88a4.36,4.36,0,0,1-2.21-.61,97.23,97.23,0,0,0-49.45-13.49h-3.67a4.34,4.34,0,1,1,0-8.68h3.67a105.82,105.82,0,0,1,53.87,14.7,4.34,4.34,0,0,1-2.21,8.08Z"/><path class="cls-14" d="M970,180.7a4.27,4.27,0,0,1-1.56-.29,4.34,4.34,0,0,1-2.48-5.62,106.06,106.06,0,0,1,98.86-67.69h69.89a4.34,4.34,0,0,1,0,8.68h-69.89a98,98,0,0,0-90.77,62.15A4.33,4.33,0,0,1,970,180.7Z"/><path class="cls-14" d="M979.59,272.84a4.32,4.32,0,0,1-3.64-2,105.56,105.56,0,0,1-17.11-57.78,107,107,0,0,1,1.2-16,4.34,4.34,0,1,1,8.58,1.31,98.73,98.73,0,0,0-1.1,14.7,96.91,96.91,0,0,0,15.71,53,4.34,4.34,0,0,1-3.64,6.71Z"/><path class="cls-14" d="M1000,295.69a4.28,4.28,0,0,1-2.77-1A106.78,106.78,0,0,1,987,285a4.34,4.34,0,0,1,6.38-5.9,96.71,96.71,0,0,0,9.35,8.87,4.34,4.34,0,0,1-2.77,7.68Z"/><path class="cls-14" d="M1363.53,319.09h-8.3a4.35,4.35,0,0,1,0-8.69h8.3A97.09,97.09,0,0,0,1458,236.55a4.34,4.34,0,0,1,8.43,2.09A105.76,105.76,0,0,1,1363.53,319.09Z"/><path class="cls-14" d="M1440.84,151.43a4.32,4.32,0,0,1-3.3-1.52,99.37,99.37,0,0,0-10.91-10.9,4.34,4.34,0,1,1,5.63-6.6,106.44,106.44,0,0,1,11.88,11.86,4.34,4.34,0,0,1-3.3,7.16Z"/><path class="cls-79" d="M1063.27,91.14h-.5a122.47,122.47,0,0,0-28.66,3.39V80.79a10.52,10.52,0,0,1,10.51-10.51h18.65V91.14Z"/><path class="cls-79" d="M1062.77,91.14h.5V335.05h-.5a122.47,122.47,0,0,1-28.66-3.39V94.53A122.47,122.47,0,0,1,1062.77,91.14Z"/><path class="cls-14" d="M1063.27,335.05V320.71a67.33,67.33,0,0,1,3.51,14.34Z"/><path class="cls-80" d="M1073.78,41.12h310a10.52,10.52,0,0,1,10.52,10.51v280a122.53,122.53,0,0,1-28.66,3.39H1120.42c.42-.87.82-1.72,1.19-2.54l-58.34-20V51.63A10.52,10.52,0,0,1,1073.78,41.12Z"/><path class="cls-14" d="M1222.53,364.61a109.13,109.13,0,0,1-54,28.62c4-3.72,20.84-20.42,22-46.88a64.49,64.49,0,0,0-.5-11.3h53.64A106.28,106.28,0,0,1,1222.53,364.61Z"/><path class="cls-15" d="M1330.58,79.58a4,4,0,0,1-2.8-6.75l15.65-15.65a4,4,0,0,1,5.59,5.59l-15.65,15.65A3.94,3.94,0,0,1,1330.58,79.58Z"/><path class="cls-15" d="M1346.23,79.58a4,4,0,0,1-2.8-1.16l-15.65-15.65a4,4,0,1,1,5.59-5.59L1349,72.83a4,4,0,0,1-2.79,6.75Z"/><path class="cls-21" d="M1373.44,93a1.91,1.91,0,0,1-1.37-.56,1.94,1.94,0,0,1,0-2.75l7.68-7.68a1.94,1.94,0,0,1,2.75,2.74l-7.69,7.69A1.91,1.91,0,0,1,1373.44,93Z"/><path class="cls-21" d="M1381.13,93a1.94,1.94,0,0,1-1.38-.56l-7.68-7.69a1.94,1.94,0,0,1,2.74-2.74l7.69,7.68a1.94,1.94,0,0,1-1.37,3.31Z"/><polygon class="cls-16" points="1127.54 183.76 1162.1 171.38 1199.6 171.38 1253.8 163.76 1321.26 137.73 1350.18 97.88 1350.18 86.29 1049.01 86.29 1049.01 183.76 1096.16 198.47 1127.54 183.76"/><polygon class="cls-81" points="1317.9 115.17 1251.66 108.29 1209.12 152.92 1163.66 155.24 1127.96 136.86 1095.9 171.38 1049.01 183.76 1049.01 212.6 1350.18 212.6 1350.18 97.88 1317.9 115.17"/><polygon class="cls-82" points="1066.87 212.64 1099.51 191.1 1119.59 199.77 1177.74 122.55 1226.28 194.13 1249.49 175.84 1263.47 183.76 1316.23 136.86 1350.18 183.29 1350.18 212.6 1066.87 212.64"/><rect class="cls-83" x="1049.01" y="226.54" width="39.54" height="39.54" rx="8.23"/><path class="cls-16" d="M1138.16,236.15h-38.94a2.84,2.84,0,1,1,0-5.67h38.94a2.84,2.84,0,1,1,0,5.67Z"/><path class="cls-16" d="M1346.93,249.15h-95.82a2.86,2.86,0,1,1,0-5.67h95.82a2.86,2.86,0,1,1,0,5.67Z"/><path class="cls-16" d="M1242.8,249.15H1149a2.84,2.84,0,1,1,0-5.67h93.76a2.84,2.84,0,1,1,0,5.67Z"/><path class="cls-16" d="M1139.37,249.15h-40.15a2.84,2.84,0,1,1,0-5.67h40.15a2.84,2.84,0,0,1,0,5.67Z"/><path class="cls-16" d="M1346.93,262.15H1223.56a2.86,2.86,0,1,1,0-5.67h123.37a2.86,2.86,0,1,1,0,5.67Z"/><path class="cls-16" d="M1213.16,262.15h-29.5a2.84,2.84,0,1,1,0-5.67h29.5a2.84,2.84,0,0,1,0,5.67Z"/><path class="cls-16" d="M1174,262.15h-74.76a2.84,2.84,0,1,1,0-5.67H1174a2.84,2.84,0,1,1,0,5.67Z"/><rect class="cls-83" x="1049.01" y="281.07" width="39.54" height="39.54" rx="8.23"/><path class="cls-16" d="M1138.16,290.68h-38.94a2.84,2.84,0,1,1,0-5.68h38.94a2.84,2.84,0,0,1,0,5.68Z"/><path class="cls-16" d="M1346.93,303.68h-169.6a2.86,2.86,0,1,1,0-5.67h169.6a2.86,2.86,0,1,1,0,5.67Z"/><path class="cls-16" d="M1168.73,303.68h-53.36a2.84,2.84,0,1,1,0-5.67h53.36a2.84,2.84,0,1,1,0,5.67Z"/><path class="cls-16" d="M1105.7,303.68h-6.48a2.84,2.84,0,1,1,0-5.67h6.48a2.84,2.84,0,0,1,0,5.67Z"/><path class="cls-16" d="M1346.93,316.68h-150.2a2.86,2.86,0,1,1,0-5.67h150.2a2.86,2.86,0,1,1,0,5.67Z"/><path class="cls-16" d="M1188.91,316.68h-52.39a2.84,2.84,0,1,1,0-5.67h52.39a2.84,2.84,0,1,1,0,5.67Z"/><path class="cls-16" d="M1126.85,316.68h-27.63a2.84,2.84,0,1,1,0-5.67h27.63a2.84,2.84,0,0,1,0,5.67Z"/></g></g></svg>