<svg xmlns="http://www.w3.org/2000/svg" xmlns:xlink="http://www.w3.org/1999/xlink" viewBox="0 0 1561.01 1286.53"><defs><style>.cls-1{fill:#ffde39;}.cls-2{fill:url(#linear-gradient);}.cls-3{fill:url(#linear-gradient-2);}.cls-4{fill:url(#linear-gradient-3);}.cls-5{fill:url(#linear-gradient-4);}.cls-6{fill:url(#linear-gradient-5);}.cls-7{fill:url(#linear-gradient-6);}.cls-8{fill:url(#linear-gradient-7);}.cls-9{fill:url(#linear-gradient-8);}.cls-10{fill:url(#linear-gradient-9);}.cls-11{fill:url(#linear-gradient-10);}.cls-12{fill:url(#linear-gradient-11);}.cls-13{fill:url(#linear-gradient-12);}.cls-14{fill:url(#linear-gradient-13);}.cls-15{fill:url(#linear-gradient-14);}.cls-16{fill:url(#linear-gradient-15);}.cls-17{fill:#c49a6c;}.cls-18{fill:#a97c50;}.cls-19{fill:#8b5e3c;}.cls-20{fill:#754c29;}.cls-21{fill:url(#linear-gradient-16);}.cls-22{fill:url(#linear-gradient-17);}.cls-23{fill:url(#linear-gradient-18);}.cls-24{fill:url(#linear-gradient-19);}.cls-25{fill:#e1e1e5;}.cls-26{fill:#fff;}.cls-27{fill:url(#linear-gradient-20);}.cls-28{fill:#d8eeff;}.cls-29{fill:#d1d3d4;}.cls-30{fill:url(#linear-gradient-21);}.cls-31{fill:url(#linear-gradient-22);}.cls-32{fill:url(#linear-gradient-23);}.cls-33{fill:url(#linear-gradient-24);}.cls-34{fill:#ff6464;}.cls-35{fill:#ffe182;}.cls-36{fill:#a4d66e;}.cls-37{fill:#86daf1;}.cls-38{fill:url(#linear-gradient-25);}.cls-39{fill:url(#linear-gradient-26);}.cls-40{fill:url(#linear-gradient-27);}.cls-41{fill:url(#linear-gradient-28);}.cls-42{fill:url(#linear-gradient-29);}.cls-43{fill:url(#linear-gradient-30);}.cls-44{fill:url(#linear-gradient-31);}.cls-45{fill:#bcbec0;}.cls-46{fill:#a7a9ac;}.cls-47{clip-path:url(#clip-path);}.cls-48{clip-path:url(#clip-path-2);}.cls-49{fill:url(#linear-gradient-33);}.cls-50{fill:url(#linear-gradient-34);}.cls-51{fill:url(#linear-gradient-35);}.cls-52{clip-path:url(#clip-path-3);}.cls-53{fill:url(#linear-gradient-37);}.cls-54{clip-path:url(#clip-path-4);}.cls-55{fill:#76d10d;}.cls-56{fill:#afe66e;}.cls-57{clip-path:url(#clip-path-5);}.cls-58{fill:url(#linear-gradient-40);}.cls-59{fill:#ffeb88;}.cls-60{fill:url(#linear-gradient-41);}.cls-61{fill:#5cc933;}.cls-62{fill:url(#linear-gradient-44);}.cls-63{fill:#66b366;}.cls-64{fill:url(#linear-gradient-45);}.cls-65{fill:url(#linear-gradient-46);}.cls-66{fill:#fcd118;}.cls-67{fill:#f3b43a;}.cls-68{fill:url(#linear-gradient-47);}.cls-69{fill:url(#linear-gradient-48);}.cls-70{fill:url(#linear-gradient-49);}.cls-71{fill:url(#linear-gradient-50);}.cls-72{fill:url(#linear-gradient-51);}</style><linearGradient id="linear-gradient" x1="335.45" y1="116.7" x2="352.35" y2="163.24" gradientUnits="userSpaceOnUse"><stop offset="0" stop-color="#33bc00"/><stop offset="1" stop-color="#268d00"/></linearGradient><linearGradient id="linear-gradient-2" x1="366.2" y1="180.39" x2="454.71" y2="177.95" gradientUnits="userSpaceOnUse"><stop offset="0" stop-color="#00ac00"/><stop offset="1" stop-color="#008100"/></linearGradient><linearGradient id="linear-gradient-3" x1="-102.3" y1="626.31" x2="-27.87" y2="529.92" gradientTransform="translate(455.82 -319.19) rotate(24.1)" gradientUnits="userSpaceOnUse"><stop offset="0" stop-color="#5ba10a"/><stop offset="1" stop-color="#79d60d"/></linearGradient><linearGradient id="linear-gradient-4" x1="-156.48" y1="1315.7" x2="-143.61" y2="1396.9" gradientTransform="translate(1432.2 -200.76) rotate(68.57)" xlink:href="#linear-gradient"/><linearGradient id="linear-gradient-5" x1="-59.62" y1="1569.13" x2="1364.81" y2="144.7" gradientUnits="userSpaceOnUse"><stop offset="0" stop-color="#482d9d"/><stop offset="0.21" stop-color="#3e51b3"/><stop offset="0.75" stop-color="#26a7ea"/><stop offset="1" stop-color="#1dc9ff"/></linearGradient><linearGradient id="linear-gradient-6" x1="31.37" y1="712.37" x2="559.65" y2="184.1" xlink:href="#linear-gradient-5"/><linearGradient id="linear-gradient-7" x1="152.1" y1="676.52" x2="254.03" y2="574.59" xlink:href="#linear-gradient-5"/><linearGradient id="linear-gradient-8" x1="1047.25" y1="217.74" x2="1137.32" y2="127.68" xlink:href="#linear-gradient-5"/><linearGradient id="linear-gradient-9" x1="97.86" y1="1095.55" x2="438.27" y2="755.14" xlink:href="#linear-gradient-5"/><linearGradient id="linear-gradient-10" x1="1145.37" y1="584.27" x2="1398.35" y2="331.29" xlink:href="#linear-gradient-5"/><linearGradient id="linear-gradient-11" x1="727.9" y1="325.9" x2="1007.29" y2="46.51" xlink:href="#linear-gradient-5"/><linearGradient id="linear-gradient-12" x1="1094.48" y1="1172.39" x2="1247.96" y2="1018.91" xlink:href="#linear-gradient-5"/><linearGradient id="linear-gradient-13" x1="1002.75" y1="1204.04" x2="1610.76" y2="596.03" xlink:href="#linear-gradient-5"/><linearGradient id="linear-gradient-14" x1="242.78" y1="1182.4" x2="445.9" y2="979.28" xlink:href="#linear-gradient-5"/><linearGradient id="linear-gradient-15" x1="359.56" y1="1378.13" x2="806.5" y2="931.19" xlink:href="#linear-gradient-5"/><linearGradient id="linear-gradient-16" x1="-206.7" y1="1078.02" x2="489.21" y2="611.52" gradientTransform="translate(631.36 110.83) rotate(45)" xlink:href="#linear-gradient-5"/><linearGradient id="linear-gradient-17" x1="-285.27" y1="960.82" x2="410.64" y2="494.31" xlink:href="#linear-gradient-5"/><linearGradient id="linear-gradient-18" x1="574.17" y1="474.71" x2="1125.33" y2="474.71" xlink:href="#linear-gradient-5"/><linearGradient id="linear-gradient-19" x1="857.87" y1="1199.93" x2="857.87" y2="1017.01" gradientUnits="userSpaceOnUse"><stop offset="0" stop-color="#9d9e9f"/><stop offset="1" stop-color="#d1d3d4"/></linearGradient><linearGradient id="linear-gradient-20" x1="877.1" y1="527.76" x2="877.1" y2="1017.59" gradientUnits="userSpaceOnUse"><stop offset="0" stop-color="#42e397"/><stop offset="1" stop-color="#3cb6b5"/></linearGradient><linearGradient id="linear-gradient-21" x1="748.88" y1="940.56" x2="1087.89" y2="940.56" xlink:href="#linear-gradient-20"/><linearGradient id="linear-gradient-22" x1="748.88" y1="940.56" x2="1087.89" y2="940.56" xlink:href="#linear-gradient-20"/><linearGradient id="linear-gradient-23" x1="748.88" y1="940.56" x2="1087.89" y2="940.56" xlink:href="#linear-gradient-20"/><linearGradient id="linear-gradient-24" x1="487.73" y1="581.09" x2="449.42" y2="581.09" gradientUnits="userSpaceOnUse"><stop offset="0" stop-color="#e6e7e8"/><stop offset="1" stop-color="#d1d3d4"/></linearGradient><linearGradient id="linear-gradient-25" x1="525.36" y1="658.15" x2="525.36" y2="1006.93" xlink:href="#linear-gradient-20"/><linearGradient id="linear-gradient-26" x1="537.98" y1="658.15" x2="537.98" y2="1006.93" xlink:href="#linear-gradient-20"/><linearGradient id="linear-gradient-27" x1="593.43" y1="658.15" x2="593.43" y2="1006.93" xlink:href="#linear-gradient-20"/><linearGradient id="linear-gradient-28" x1="537.05" y1="658.15" x2="537.05" y2="1006.93" xlink:href="#linear-gradient-20"/><linearGradient id="linear-gradient-29" x1="9525.64" y1="173.75" x2="9685.41" y2="-74.03" gradientTransform="matrix(-1, 0, 0, 1, 9993.21, 0)" xlink:href="#linear-gradient-20"/><linearGradient id="linear-gradient-30" x1="9819.52" y1="363.24" x2="9979.29" y2="115.46" gradientTransform="matrix(-1, 0, 0, 1, 9993.21, 0)" xlink:href="#linear-gradient-20"/><linearGradient id="linear-gradient-31" x1="156.45" y1="9.73" x2="310.45" y2="253.73" gradientUnits="userSpaceOnUse"><stop offset="0" stop-color="#9d9e9f"/><stop offset="0.08" stop-color="#a1a2a3"/><stop offset="1" stop-color="#d1d3d4"/></linearGradient><clipPath id="clip-path"><rect class="cls-1" x="117.94" y="81.67" width="302.28" height="121.44"/></clipPath><clipPath id="clip-path-2"><path class="cls-2" d="M323.78,178.69a44.56,44.56,0,0,1-11.3,2.38c-3.85.13-7.9-.84-10.73-3.46a22.13,22.13,0,0,1-4.17-6.05l-4.13-7.67c-1-1.88-2.06-4.06-.52-6.09a4.42,4.42,0,0,1,2-1.43c2.21-.83,4.48-.31,6.71,0a43.56,43.56,0,0,0,24.24-3.28,2,2,0,0,0,1.18-1.38c.39-1.74-1.86-2.42-3.51-2.47l-13.78-.4c-6.3-.19-13.55-.86-17.16-6-3.06-4.37-2.22-10.42-.07-15.3a3.56,3.56,0,0,1,1.32-1.78c1-.53,2.15-.12,3.16.31,6.66,2.84,14.05,6.49,20.77,3.78-2.29-3.59-6.33-5.57-10-7.72s-7.45-5-8.38-9.14a17.3,17.3,0,0,1,.14-6.25l.74-5.14a9.59,9.59,0,0,1,13.87-7.17l.13.07c7.77,3.95,7.64,15.59,14.24,21.42a2.42,2.42,0,0,0,2.55.47c1.16-.52,1.15-1.57,1.07-2.51a28.53,28.53,0,0,0-6.39-15.67c-.88-1.06-1.9-2.21-1-3.83a3.47,3.47,0,0,1,1.56-1.47,13.86,13.86,0,0,1,19.6,9.18c.67,2.77.47,5.68.68,8.53a29.26,29.26,0,0,0,4,12.66,2.18,2.18,0,0,0,2.26,1.08c.94-.18,1.14-.9,1.27-1.58,1.73-9.08-5.73-18.45-2.78-27.2a4,4,0,0,1,.92-1.66c1-1,2.58-.93,3.95-.69,7.48,1.34,13.77,6.67,17.89,13a19.3,19.3,0,0,1,3.53,9.66c.12,3.7-1.38,7.23-2.15,10.85a27.74,27.74,0,0,0,.57,13.72c2.84-.26,4-3.76,4.4-6.59q1.07-6.73,2.12-13.49c.28-1.8.65-3.79,2.72-4.49a4,4,0,0,1,2-.13,8.79,8.79,0,0,1,4.56,3,42.62,42.62,0,0,1,11.37,24.69,9,9,0,0,1-.83,4.84h0Z"/></clipPath><linearGradient id="linear-gradient-33" x1="816.04" y1="-572.32" x2="832.35" y2="-469.42" gradientTransform="translate(59.85 1074.95) rotate(-41.31)" xlink:href="#linear-gradient"/><linearGradient id="linear-gradient-34" x1="1224" y1="-324.22" x2="1178.8" y2="-288.98" gradientTransform="translate(-72.94 1282.17) rotate(-52.94)" gradientUnits="userSpaceOnUse"><stop offset="0" stop-color="#008100"/><stop offset="1" stop-color="#006100"/></linearGradient><linearGradient id="linear-gradient-35" x1="1619.91" y1="-485.03" x2="1663.03" y2="-396.37" gradientTransform="translate(188.6 1869.52) rotate(-68.73)" xlink:href="#linear-gradient-3"/><clipPath id="clip-path-3"><path class="cls-3" d="M426.17,162.55c.47-3.32.42-3.59-3.15-4.79-4-1.34-8-2.45-12.08-3.39l-.7-.16A133.65,133.65,0,0,0,360.35,152a91.9,91.9,0,0,0-20.48,5.59A78.87,78.87,0,0,0,312,176.68c-1.44,1.55-5.19,5.23-7.16,8.75a3.4,3.4,0,0,0,1.87,3.92,181.06,181.06,0,0,0,43.1,16.56L419,208.4q2.17-13.9,4.36-27.83C424.29,174.57,425.33,168.57,426.17,162.55Z"/></clipPath><linearGradient id="linear-gradient-37" x1="355.13" y1="160.04" x2="373.95" y2="198.73" xlink:href="#linear-gradient-2"/><clipPath id="clip-path-4"><path class="cls-4" d="M219.17,169.8c4-7.57,13.9-10.57,17.73-18.21a5.41,5.41,0,0,0,.52-1.9,1.67,1.67,0,0,0-.61-.17,3.84,3.84,0,0,0-2.35.94,23,23,0,0,1-20.52,2.4c-3-1.11-5.7-2.84-8.74-3.74s-6.68-.8-9,1.39c-1.89,1.8-2.93,4.93-5.51,5.22-1.62.19-3.06-.9-4.51-1.65a12.14,12.14,0,0,0-13.25,1.6c-1.84,1.61-3.13,3.74-4.78,5.55s-3.89,3.35-6.33,3.16-4.52-2.14-6.5-3.74a17,17,0,0,0-9.35-4.08c-4.82-.29-9.29,2.33-13.25,5.09a33.4,33.4,0,0,0-6.75,5.83h0l-2-1.68a15.72,15.72,0,0,0-1,1.72c-2.18,4.23-2.12,9.25-3.53,13.8-.72,2.33-2,4.74-4.34,5.58-1.5.55-3.17.33-4.77.41a12.37,12.37,0,0,0-7.33,3l2,2.17q4.69,4.35,9.53,9.4a221.37,221.37,0,0,1,15,17.46c1.5-2.65,3.76-5.93,6.55-5.69a11.86,11.86,0,0,1,3.41,1.2A11.26,11.26,0,0,0,150.77,213c2.64-2.26,4.44-5.88,7.84-6.58,3.07-.63,6,1.46,8.93,2.48a13.67,13.67,0,0,0,12.66-2.14,17.9,17.9,0,0,0,3.41-3.65c1.63-2.22,3-4.71,4.59-7a30,30,0,0,1,4.09-4.56c.56-.51,1.13-1,1.72-1.47a31,31,0,0,1,13-6.07,17.36,17.36,0,0,0,5-1.39,7.82,7.82,0,0,0,2.62-2.39C216.79,177.33,217.44,173.11,219.17,169.8Zm-93.69-1.65,0,0Zm-.47.66-.08.11Zm-.44.69-.1.15Z"/></clipPath><clipPath id="clip-path-5"><path class="cls-5" d="M115.39,109.56A45.88,45.88,0,0,1,117,97.87c1.21-3.76,3.56-7.31,7.06-9.12a22.91,22.91,0,0,1,7.27-1.91l8.81-1.3c2.16-.32,4.62-.57,6,1.61a4.55,4.55,0,0,1,.68,2.41c0,2.42-1.25,4.42-2.36,6.45a44.67,44.67,0,0,0-5.28,24.46,2.12,2.12,0,0,0,.92,1.61c1.54,1,3-1,3.6-2.52q2.58-6.56,5.18-13.11c2.36-6,5.53-12.73,11.75-14.41,5.27-1.42,10.79,1.49,14.75,5.26a3.61,3.61,0,0,1,1.24,1.88c.18,1.11-.62,2.11-1.39,2.93-5.05,5.42-11.13,11.26-10.86,18.66,4.25-1,7.56-4.15,10.9-6.94s7.39-5.44,11.72-4.89a18,18,0,0,1,6,2.31l4.69,2.5a9.81,9.81,0,0,1,2.06,15.84l-.1.09c-6.51,6.1-17.66,1.93-25.56,6.25a2.48,2.48,0,0,0-1.34,2.29c.09,1.29,1.11,1.65,2,1.9a29.23,29.23,0,0,0,17.29-.69c1.33-.48,2.79-1.06,4.05.34a3.62,3.62,0,0,1,.87,2,14.17,14.17,0,0,1-15.65,15.65c-2.9-.31-5.62-1.52-8.44-2.3a29.75,29.75,0,0,0-13.56-.57,2.22,2.22,0,0,0-1.83,1.8c-.15,1,.47,1.41,1.08,1.77,8.13,4.81,19.73.9,27.13,6.78a4.4,4.4,0,0,1,1.28,1.47c.58,1.3,0,2.81-.72,4-3.88,6.72-11.2,10.92-18.77,12.67-3.45.8-7.13,1.14-10.51,0-3.6-1.18-6.47-3.85-9.69-5.85A28.41,28.41,0,0,0,134,173.05c-.74,2.83,2.24,5.12,4.8,6.53L151,186.3c1.64.9,3.42,2,3.38,4.19a4.31,4.31,0,0,1-.59,2,9,9,0,0,1-4.46,3.36,43.63,43.63,0,0,1-27.7,2.34,9.14,9.14,0,0,1-4.36-2.48h0Z"/></clipPath><linearGradient id="linear-gradient-40" x1="-165.63" y1="1264.14" x2="-148.95" y2="1369.39" gradientTransform="translate(1432.2 -200.76) rotate(68.57)" xlink:href="#linear-gradient"/><linearGradient id="linear-gradient-41" x1="181.59" y1="308.71" x2="434.39" y2="308.71" gradientUnits="userSpaceOnUse"><stop offset="0" stop-color="#d1d3d4"/><stop offset="1" stop-color="#e6e7e8"/></linearGradient><linearGradient id="linear-gradient-44" x1="269.08" y1="213.24" x2="269.08" y2="497.81" xlink:href="#linear-gradient"/><linearGradient id="linear-gradient-45" x1="378.27" y1="195" x2="378.27" y2="478.08" gradientTransform="matrix(1, 0, 0, 1, 0, 0)" xlink:href="#linear-gradient-34"/><linearGradient id="linear-gradient-46" x1="1265.92" y1="419.97" x2="1154.13" y2="165.13" gradientUnits="userSpaceOnUse"><stop offset="0" stop-color="#808285"/><stop offset="0.32" stop-color="#d1d3d4"/><stop offset="0.65" stop-color="#f1f2f2"/><stop offset="1" stop-color="#fff"/></linearGradient><linearGradient id="linear-gradient-47" x1="2110.38" y1="-450.11" x2="2434.22" y2="-328.67" gradientTransform="matrix(0.95, 0.31, -0.31, 0.95, -1113.63, -268.13)" gradientUnits="userSpaceOnUse"><stop offset="0" stop-color="#582d7f"/><stop offset="0.21" stop-color="#4b5194"/><stop offset="0.75" stop-color="#2aa7c8"/><stop offset="1" stop-color="#1dc9dc"/></linearGradient><linearGradient id="linear-gradient-48" x1="1294.29" y1="-25.9" x2="1177.54" y2="-63.4" gradientTransform="matrix(1, 0.09, -0.09, 1, 56.11, 84.74)" xlink:href="#linear-gradient-19"/><linearGradient id="linear-gradient-49" x1="2537.9" y1="-260.37" x2="2447.16" y2="-293.47" gradientTransform="matrix(0.95, 0.31, -0.31, 0.95, -1099.59, -314)" xlink:href="#linear-gradient-19"/><linearGradient id="linear-gradient-50" x1="1644.21" y1="338.61" x2="1134.06" y2="338.61" gradientUnits="userSpaceOnUse"><stop offset="0" stop-color="#d1d3d4"/><stop offset="0.51" stop-color="#f1f2f2"/><stop offset="1" stop-color="#fff"/></linearGradient><linearGradient id="linear-gradient-51" x1="1558.78" y1="333.48" x2="1333.25" y2="107.95" gradientUnits="userSpaceOnUse"><stop offset="0" stop-color="#f1f2f2"/><stop offset="1" stop-color="#fff"/></linearGradient></defs><title>Fichier 3</title><g id="Calque_2" data-name="Calque 2"><g id="Layer_11" data-name="Layer 11"><path class="cls-6" d="M1469.33,616.57c-21.37-130.24-74.19-257.35-165.78-347-116.2-113.71-280-165-439.5-173-125.45-6.33-253.29,12.59-371,56.67-92.46,34.63-186.74,85.86-249.5,164.1-27.36,34.11-83.75,104.4-83.14,201.21.24,38.24,4.91,76.4,21.89,111.18C221,709.07,308.07,739.83,293.79,842c-5,36.07-18.87,70.21-29.46,105-16.51,54.32-23.53,116.8,18.95,161.2,38,39.76,96.47,44.71,148.24,38.9,223.55-25.08,448.16-39.33,672.66-53.56l130.64-8.29c14.29-.9,30.34-1.22,40.84,8.52s6.35,32.67-8,32.11c149.64,5.93,202.5-193,210.84-313A855.08,855.08,0,0,0,1469.33,616.57Z"/><path class="cls-7" d="M278.89,628.22c2.07,5.64,3.77,11.47,5.35,17.36A155.61,155.61,0,0,0,294.7,603c3.66-37.18-6.65-74.23-8.66-111.53-3.9-72.39,25.28-145.91,77.76-195.92,27.57-26.26,61.26-46.47,84.13-76.92,11.95-15.92,20-36.29,21.16-56.07-84.54,34.33-168.2,83.26-225.54,154.75-27.36,34.11-83.75,104.4-83.14,201.21.05,8.59.33,17.18.92,25.73C211.93,547.05,261.27,580.18,278.89,628.22Z"/><path class="cls-8" d="M278.89,628.22c-17.62-48-67-81.17-117.56-84,2,29.49,7.81,58.49,21,85.45,15.49,31.74,38.7,55.71,60.08,79.58,17.88-18.94,32.52-40.27,41.86-63.7C282.66,639.69,281,633.86,278.89,628.22Z"/><path class="cls-9" d="M1079.8,198.79c10,7.86,21.57,13,33.52,17.52a382.42,382.42,0,0,0,61-39.85,664,664,0,0,0-122.6-49C1048.43,153.87,1058.75,182.22,1079.8,198.79Z"/><path class="cls-10" d="M448.55,1008.47a348.11,348.11,0,0,0,5.1-132.23c-7.93-50.26-29.72-102.17-73.5-128.12-23.69-14-53-20.09-71.16-40.81-14.79-16.89-18.88-39.73-24.75-61.73-9.34,23.43-24,44.76-41.86,63.7,32.06,35.82,60,71.41,51.41,132.72-5,36.07-18.87,70.21-29.46,105-11.38,37.45-18.25,78.78-7.5,115.39,24.87-12.75,48.73-27.79,74-39.77C367.55,1005.29,410.47,994.51,448.55,1008.47Z"/><path class="cls-11" d="M1139.33,225.82c29.55,11.57,58,30.18,72.64,58.32,10.36,19.88,13,42.72,16,64.94,9.29,69.4,23.56,139.05,54.35,201.93s79.61,119,143.56,147.46c1.23.55,2.47,1.09,3.71,1.61,10.23-20.34,16.51-42.53,15.18-65.09-1.81-30.58-17.41-60-13.93-90.43,1.48-13,6.28-24.93,12.93-36.1-28.49-90.49-74.31-174.38-140.21-238.88-38.48-37.66-82.18-68.46-129.22-93.12a382.42,382.42,0,0,1-61,39.85C1122,219.56,1130.78,222.48,1139.33,225.82Z"/><path class="cls-12" d="M770.64,159.28c8.78-.9,17.58-2.95,26.32-1.81,20.17,2.64,33.94,20.77,48.24,35.23,47.32,47.86,120.72,64.19,186.93,52,28.42-5.22,55.59-15.14,81.19-28.43-12-4.51-23.53-9.66-33.52-17.52-21-16.57-31.37-44.92-28.07-71.33C990.64,109.64,927,99.72,864.05,96.54a942.74,942.74,0,0,0-192.73,10.11C690.92,140.84,731.11,163.37,770.64,159.28Z"/><path class="cls-13" d="M1250.09,1041.1a96.8,96.8,0,0,1-14.15,3.83c-18.87,3.52-38.43.6-57.43,3.39-29.44,4.32-55.54,22.22-75.32,44.46-.27.3-.53.62-.79.92l1.78-.11,130.64-8.29a127.12,127.12,0,0,1,18.21-.14A288.58,288.58,0,0,1,1250.09,1041.1Z"/><path class="cls-14" d="M1479.66,716a851.29,851.29,0,0,0-10.33-99.38,781.91,781.91,0,0,0-25.57-108.11c-6.65,11.17-11.45,23.11-12.93,36.1C1427.35,575,1443,604.41,1444.76,635c1.33,22.56-5,44.75-15.18,65.09a200.69,200.69,0,0,1-14,23.53c-17.95,26.1-40.73,48.44-61.44,72.41-51.45,59.52-91,131.44-101.5,209.41a289.81,289.81,0,0,0,.39,79.73c8.46.71,16.5,3,22.63,8.66,10.5,9.74,6.35,32.67-8,32.11,90,3.56,145-67.07,176.4-150,20.74-54.9,31.12-115.2,34.44-163A846.62,846.62,0,0,0,1479.66,716Z"/><path class="cls-15" d="M330.86,1022.67c-25.3,12-49.16,27-74,39.77a110.23,110.23,0,0,0,26.45,45.81c26.27,27.45,62.26,38.31,99.07,40.49a363.77,363.77,0,0,0,66.2-140.27C410.47,994.51,367.55,1005.29,330.86,1022.67Z"/><path class="cls-16" d="M812.56,1021.67c-61.78-20.84-131.83-8.57-188.12,24.33-14.85,8.68-29.44,18.94-46.39,21.85-23.83,4.09-47.62-7.16-67.63-20.73s-38.61-30-61.26-38.44c-.2-.08-.41-.14-.61-.21a363.77,363.77,0,0,1-66.2,140.27,290.32,290.32,0,0,0,49.17-1.59c159.88-17.94,320.31-30.33,480.85-41.15C891.7,1067,854.78,1035.91,812.56,1021.67Z"/><path class="cls-17" d="M382.68,1250.8a178.52,178.52,0,0,0,19,10,12.42,12.42,0,0,1-.39-3.07v-79A12.74,12.74,0,0,1,414,1166H710.72a12.73,12.73,0,0,1,12.73,12.74V1253q18.66-7.35,36.66-16.23C802,1216,842.8,1188,888,1174.58a12.73,12.73,0,0,1,12-8.6h296.73a12.69,12.69,0,0,1,7.44,2.41,402.4,402.4,0,0,0,66.54-23.1H320.68C323.24,1189.92,341.24,1225.57,382.68,1250.8Z"/><path class="cls-17" d="M477.94,1281.65a483.55,483.55,0,0,0,192-11.19H427A326.56,326.56,0,0,0,477.94,1281.65Z"/><path class="cls-18" d="M427,1270.46H669.89A481.31,481.31,0,0,0,723.45,1253v-74.23A12.73,12.73,0,0,0,710.72,1166H414a12.74,12.74,0,0,0-12.74,12.74v79a12.42,12.42,0,0,0,.39,3.07Zm277-31.77a12.74,12.74,0,0,1-12.73,12.74H433.47a12.74,12.74,0,0,1-12.74-12.74v-40.94A12.73,12.73,0,0,1,433.47,1185H691.24A12.73,12.73,0,0,1,704,1197.75Z"/><path class="cls-19" d="M691.24,1185H433.47a12.73,12.73,0,0,0-12.74,12.73v40.94a12.74,12.74,0,0,0,12.74,12.74H691.24A12.74,12.74,0,0,0,704,1238.69v-40.94A12.73,12.73,0,0,0,691.24,1185Z"/><path class="cls-20" d="M643.49,1232.54H481.21a6.62,6.62,0,0,1-6.62-6.63v-12.79a6.63,6.63,0,1,1,13.25,0v6.16h149v-6.16a6.63,6.63,0,0,1,13.26,0v12.79A6.63,6.63,0,0,1,643.49,1232.54Z"/><path class="cls-18" d="M900,1166a12.73,12.73,0,0,0-12,8.6,188,188,0,0,1,35.06-7c59.24-5.87,118.5,13,177.66,13.36a412.18,412.18,0,0,0,103.48-12.5,12.69,12.69,0,0,0-7.44-2.41Z"/><path class="cls-18" d="M1406.82,1082.7H270.24a31.3,31.3,0,0,0-31.3,31.3h0a31.29,31.29,0,0,0,31.3,31.29H1406.82a31.3,31.3,0,0,0,31.24-29.47c0-.6,0-1.21,0-1.82h0A31.29,31.29,0,0,0,1406.82,1082.7Z"/><circle class="cls-21" cx="181.9" cy="817.53" r="99.28" transform="translate(-524.8 368.07) rotate(-45)"/><circle class="cls-22" cx="144.16" cy="672.95" r="42.48"/><path class="cls-23" d="M1111.66,665.15c22.41-27.57,15.42-70.86-7.64-97.88s-58.07-40.71-92.58-49.17c-20.57-5.05-43.72-10.06-55.39-27.73-13.89-21-4.69-49.22-9-74-4.23-24.07-22.67-45.09-46-52.41-44.28-13.89-95.65,19.31-137.15-1.46-25.13-12.58-37.54-40.83-56.57-61.5-5.79-6.28-12.5-12.06-20.58-14.81-12.27-4.18-25.86-.81-37.72,4.42-53.44,23.56-85.3,87.85-71.67,144.65l4.76,99.48,278.22,126Z"/></g><g id="DIGITAL"><path class="cls-24" d="M1305.32,1028.82v-492a47.59,47.59,0,0,0-47.59-47.59H458a47.59,47.59,0,0,0-47.59,47.59v515h894.91Zm-59.6-30H470V556.53h775.69Z"/><path class="cls-25" d="M1321,1105.26H394.77a57.66,57.66,0,0,1-56.66-47h0a17.69,17.69,0,0,1,17.38-21H1360.26a17.69,17.69,0,0,1,17.38,21h0A57.67,57.67,0,0,1,1321,1105.26Z"/><path class="cls-26" d="M987.7,1066.8H728.05a9.27,9.27,0,0,1-9.28-9.28v-20.21H997v20.21A9.27,9.27,0,0,1,987.7,1066.8Z"/><rect class="cls-26" x="679.34" y="605.64" width="566.38" height="393.2"/><rect class="cls-27" x="706.26" y="626.9" width="341.69" height="158.25"/><rect class="cls-28" x="1075.21" y="626.9" width="143.59" height="250.09"/><path class="cls-29" d="M882.08,845.17H993.49a5.08,5.08,0,1,0,0-10.15H882.08a5.08,5.08,0,1,0,0,10.15Z"/><path class="cls-29" d="M711.34,845.17h70a5.08,5.08,0,1,0,0-10.15h-70a5.08,5.08,0,1,0,0,10.15Z"/><path class="cls-29" d="M796.53,845.17h66.14a5.08,5.08,0,1,0,0-10.15H796.53a5.08,5.08,0,0,0,0,10.15Z"/><path class="cls-29" d="M834.14,877H993.49a5.08,5.08,0,1,0,0-10.16H834.14a5.08,5.08,0,0,0,0,10.16Z"/><path class="cls-29" d="M711.34,877H813a5.08,5.08,0,1,0,0-10.16H711.34a5.08,5.08,0,1,0,0,10.16Z"/><path class="cls-29" d="M781.37,813.36h40.77a5.08,5.08,0,1,0,0-10.16H781.37a5.08,5.08,0,0,0,0,10.16Z"/><path class="cls-29" d="M711.34,813.36h46.52a5.08,5.08,0,1,0,0-10.16H711.34a5.08,5.08,0,1,0,0,10.16Z"/><path class="cls-29" d="M1145.08,905.08h68.44a5.08,5.08,0,1,0,0-10.16h-68.44a5.08,5.08,0,1,0,0,10.16Z"/><path class="cls-29" d="M1080.29,905.08h6.53a5.08,5.08,0,1,0,0-10.16h-6.53a5.08,5.08,0,1,0,0,10.16Z"/><path class="cls-29" d="M1102,905.08h25.82a5.08,5.08,0,1,0,0-10.16H1102a5.08,5.08,0,1,0,0,10.16Z"/><path class="cls-29" d="M1158.18,928.83h56.1a5.11,5.11,0,0,0,0-10.16h-56.1a5.11,5.11,0,0,0,0,10.16Z"/><path class="cls-29" d="M1080.29,928.83h61.38a5.08,5.08,0,0,0,0-10.16h-61.38a5.08,5.08,0,1,0,0,10.16Z"/><rect class="cls-28" x="706.26" y="892.81" width="95.56" height="95.5"/><rect class="cls-28" x="829.33" y="892.81" width="95.56" height="95.5"/><rect class="cls-28" x="952.39" y="892.81" width="95.56" height="95.5"/><rect class="cls-28" x="1075.21" y="939.37" width="143.59" height="59.48"/><polygon class="cls-26" points="754.04 897.09 768.16 925.71 799.75 930.3 776.9 952.58 782.29 984.04 754.04 969.19 725.78 984.04 731.18 952.58 708.32 930.3 739.91 925.71 754.04 897.09"/><polygon class="cls-30" points="754.04 906.58 765.08 928.95 789.77 932.54 771.9 949.96 776.12 974.55 754.04 962.94 731.95 974.55 736.17 949.96 718.3 932.54 743 928.95 754.04 906.58"/><polygon class="cls-31" points="1000.17 900.5 1013.19 926.88 1042.3 931.11 1021.23 951.64 1026.2 980.62 1000.17 966.94 974.14 980.62 979.11 951.64 958.05 931.11 987.16 926.88 1000.17 900.5"/><path class="cls-32" d="M842.69,911.56h0c8.18-8.39,21.77-6.41,30.15,1.78l4.16,4,4-4.15c8.18-8.39,21.71-10.71,30.1-2.53h0a21.36,21.36,0,0,1,.37,30.13l-4,4.15L877.71,975.5l-30.5-29.76-4.15-4A21.36,21.36,0,0,1,842.69,911.56Z"/><path class="cls-26" d="M889.07,957.31a1.71,1.71,0,0,0-2.41,0l-8.37,8.58-.68.7-2.27-2.21a1.71,1.71,0,1,0-2.39,2.44l3.49,3.41a1.72,1.72,0,0,0,1.22.48,1.71,1.71,0,0,0,1.2-.51l1.87-1.93,8.37-8.57A1.72,1.72,0,0,0,889.07,957.31Z"/><path class="cls-26" d="M910,928.13a1.7,1.7,0,0,1-1.71-1.48,15.7,15.7,0,0,0-2.25-6.28,1.71,1.71,0,1,1,2.89-1.81,18.87,18.87,0,0,1,2.74,7.64,1.71,1.71,0,0,1-1.47,1.92Z"/><path class="cls-26" d="M903.78,917a1.77,1.77,0,0,1-1.09-.37A13.48,13.48,0,0,0,892.14,914a1.71,1.71,0,0,1-.5-3.38A16.92,16.92,0,0,1,904.82,914a1.7,1.7,0,0,1,.27,2.4A1.73,1.73,0,0,1,903.78,917Z"/><rect class="cls-26" x="870.55" y="517.75" width="13.1" height="376.56" transform="translate(-132.15 1205.22) rotate(-65.15)"/><rect class="cls-26" x="688.83" y="699.47" width="376.56" height="13.1" transform="matrix(0.91, -0.42, 0.42, 0.91, -215.49, 433.96)"/><rect class="cls-26" x="1002.43" y="745.39" width="288.63" height="13.1" transform="translate(-77.3 1370.14) rotate(-60.05)"/><rect class="cls-26" x="1140.2" y="607.63" width="13.1" height="288.63" transform="translate(-222.27 672.91) rotate(-29.95)"/><rect class="cls-33" x="470.03" y="556.54" width="775.69" height="49.11"/><rect class="cls-26" x="725.92" y="574.03" width="384.03" height="14.13" rx="7.01"/><rect class="cls-29" x="583.8" y="574.03" width="31.25" height="14.13" rx="7.01"/><rect class="cls-29" x="633.19" y="574.03" width="31.25" height="14.13" rx="7.01"/><rect class="cls-34" x="493.23" y="574.03" width="14.13" height="14.13" rx="7.01"/><rect class="cls-35" x="520.72" y="574.03" width="14.13" height="14.13" rx="7.01"/><rect class="cls-36" x="548.21" y="574.03" width="14.13" height="14.13" rx="7.01"/><rect class="cls-36" x="1135.43" y="574.03" width="81.64" height="14.13" rx="7.01"/><rect class="cls-37" x="468.66" y="605.64" width="210.68" height="393.2"/><path class="cls-38" d="M540.82,678.31H509.91a6,6,0,0,1,0-12.06h30.91a6,6,0,0,1,0,12.06Z"/><path class="cls-26" d="M527.85,765H509.91a6,6,0,0,1,0-12.07h17.94a6,6,0,0,1,0,12.07Z"/><path class="cls-26" d="M656.84,765H547.67a6,6,0,0,1,0-12.07H656.84a6,6,0,0,1,0,12.07Z"/><path class="cls-26" d="M538,851.6H509.91a6,6,0,1,1,0-12.06H538a6,6,0,0,1,0,12.06Z"/><path class="cls-26" d="M657.46,851.6H555.06a6,6,0,1,1,0-12.06h102.4a6,6,0,0,1,0,12.06Z"/><path class="cls-39" d="M566.05,721.63H509.91a6,6,0,0,1,0-12.06h56.14a6,6,0,1,1,0,12.06Z"/><path class="cls-26" d="M644.33,721.63H605.67a6,6,0,0,1,0-12.06h38.66a6,6,0,0,1,0,12.06Z"/><path class="cls-26" d="M540.82,894.92H509.91a6,6,0,0,1,0-12.06h30.91a6,6,0,0,1,0,12.06Z"/><path class="cls-40" d="M622.66,894.92H564.2a6,6,0,1,1,0-12.06h58.46a6,6,0,1,1,0,12.06Z"/><path class="cls-26" d="M652.67,894.92h-11a6,6,0,0,1,0-12.06h11a6,6,0,1,1,0,12.06Z"/><path class="cls-26" d="M567,938.24H509.91a6,6,0,1,1,0-12.06H567a6,6,0,0,1,0,12.06Z"/><path class="cls-26" d="M653.49,938.24H616.6a6,6,0,1,1,0-12.06h36.89a6,6,0,0,1,0,12.06Z"/><path class="cls-41" d="M564.2,808.28H509.91a6,6,0,0,1,0-12.07H564.2a6,6,0,0,1,0,12.07Z"/><path class="cls-26" d="M626.08,808.28H587.43a6,6,0,0,1,0-12.07h38.65a6,6,0,0,1,0,12.07Z"/><path class="cls-26" d="M496.57,672.28a6,6,0,1,1-6-6A6,6,0,0,1,496.57,672.28Z"/><path class="cls-26" d="M496.57,715.6a6,6,0,1,1-6-6A6,6,0,0,1,496.57,715.6Z"/><circle class="cls-26" cx="587.43" cy="715.6" r="6.03"/><path class="cls-26" d="M496.57,758.92a6,6,0,1,1-6-6A6,6,0,0,1,496.57,758.92Z"/><path class="cls-26" d="M496.57,802.25a6,6,0,1,1-6-6A6,6,0,0,1,496.57,802.25Z"/><circle class="cls-26" cx="650.36" cy="802.25" r="6.03"/><path class="cls-26" d="M496.57,845.57a6,6,0,1,1-6-6A6,6,0,0,1,496.57,845.57Z"/><path class="cls-26" d="M496.57,888.89a6,6,0,1,1-6-6A6,6,0,0,1,496.57,888.89Z"/><path class="cls-26" d="M496.57,932.21a6,6,0,1,1-6-6A6,6,0,0,1,496.57,932.21Z"/><circle class="cls-26" cx="591.58" cy="932.21" r="6.03"/><path class="cls-42" d="M471.46,88.78V335.34a126.85,126.85,0,0,0,97-123.28h0A126.85,126.85,0,0,0,471.46,88.78Z"/><path class="cls-43" d="M0,212.06H0A126.85,126.85,0,0,0,97,335.34V88.78A126.85,126.85,0,0,0,0,212.06Z"/><path class="cls-26" d="M75.23,125.53a4.45,4.45,0,0,0,2.29-.63,101.14,101.14,0,0,1,51.43-14h3.81a4.52,4.52,0,0,0,0-9H129a110.17,110.17,0,0,0-56,15.28,4.51,4.51,0,0,0,2.3,8.4Z"/><path class="cls-26" d="M538.11,178.38a4.47,4.47,0,0,0,1.63-.3,4.52,4.52,0,0,0,2.57-5.84,110.27,110.27,0,0,0-102.79-70.39H366.86a4.52,4.52,0,1,0,0,9h72.66A101.87,101.87,0,0,1,533.9,175.5,4.51,4.51,0,0,0,538.11,178.38Z"/><path class="cls-26" d="M528.15,274.18a4.49,4.49,0,0,0,3.78-2.05,109.78,109.78,0,0,0,17.8-60.07,111.29,111.29,0,0,0-1.25-16.64,4.52,4.52,0,0,0-8.93,1.35,101.48,101.48,0,0,1-15.18,70.44,4.51,4.51,0,0,0,1.32,6.24A4.44,4.44,0,0,0,528.15,274.18Z"/><path class="cls-26" d="M507,298a4.49,4.49,0,0,0,2.88-1.05,110.27,110.27,0,0,0,10.59-10,4.51,4.51,0,1,0-6.63-6.13A102.05,102.05,0,0,1,504.1,290a4.51,4.51,0,0,0,2.88,8Z"/><path class="cls-26" d="M129,322.27h8.62a4.52,4.52,0,0,0,0-9H129a101,101,0,0,1-98.22-76.79A4.52,4.52,0,0,0,22,238.62,110,110,0,0,0,129,322.27Z"/><path class="cls-26" d="M48.56,148A4.5,4.5,0,0,0,52,146.36,102.81,102.81,0,0,1,63.34,135a4.51,4.51,0,1,0-5.86-6.87A111.55,111.55,0,0,0,45.13,140.5,4.52,4.52,0,0,0,48.56,148Z"/><path class="cls-29" d="M441.14,85.25h.53a127.13,127.13,0,0,1,29.79,3.53V74.5a10.93,10.93,0,0,0-10.93-10.93H441.14V85.25Z"/><path class="cls-29" d="M441.67,85.25h-.53V315.43l4.58-1.57A71.45,71.45,0,0,0,441.14,324v14.92h.53a127.13,127.13,0,0,0,29.79-3.53V88.78A127.13,127.13,0,0,0,441.67,85.25Z"/><path class="cls-29" d="M445.72,313.86l-4.58,1.57V324A71.45,71.45,0,0,1,445.72,313.86Z"/><path class="cls-26" d="M281.63,369.6a113.38,113.38,0,0,0,56.15,29.76c-4.11-3.86-21.67-21.23-22.87-48.75a68.52,68.52,0,0,1,.52-11.74H259.67A110.4,110.4,0,0,0,281.63,369.6Z"/><path class="cls-44" d="M430.21,33.25H107.94A10.93,10.93,0,0,0,97,44.18V335.34a127.21,127.21,0,0,0,29.8,3.53H441.14V44.18A10.93,10.93,0,0,0,430.21,33.25Z"/><path class="cls-45" d="M405.26,73.24a4.12,4.12,0,0,1-2.9-7L418.63,50a4.11,4.11,0,0,1,5.81,5.81L408.17,72A4.06,4.06,0,0,1,405.26,73.24Z"/><path class="cls-45" d="M421.54,73.24A4.06,4.06,0,0,1,418.63,72L402.36,55.76A4.11,4.11,0,1,1,408.17,50l16.27,16.27a4.12,4.12,0,0,1-2.9,7Z"/><path class="cls-46" d="M449.83,87.22a2,2,0,0,1-1.43-3.45l8-8a2,2,0,0,1,2.85,2.86l-8,8A2,2,0,0,1,449.83,87.22Z"/><path class="cls-46" d="M457.82,87.22a2,2,0,0,1-1.42-.59l-8-8a2,2,0,0,1,2.86-2.86l8,8a2,2,0,0,1-1.43,3.45Z"/><rect class="cls-1" x="117.94" y="81.67" width="302.28" height="121.44"/><g class="cls-47"><path class="cls-2" d="M323.78,178.69a44.56,44.56,0,0,1-11.3,2.38c-3.85.13-7.9-.84-10.73-3.46a22.13,22.13,0,0,1-4.17-6.05l-4.13-7.67c-1-1.88-2.06-4.06-.52-6.09a4.42,4.42,0,0,1,2-1.43c2.21-.83,4.48-.31,6.71,0a43.56,43.56,0,0,0,24.24-3.28,2,2,0,0,0,1.18-1.38c.39-1.74-1.86-2.42-3.51-2.47l-13.78-.4c-6.3-.19-13.55-.86-17.16-6-3.06-4.37-2.22-10.42-.07-15.3a3.56,3.56,0,0,1,1.32-1.78c1-.53,2.15-.12,3.16.31,6.66,2.84,14.05,6.49,20.77,3.78-2.29-3.59-6.33-5.57-10-7.72s-7.45-5-8.38-9.14a17.3,17.3,0,0,1,.14-6.25l.74-5.14a9.59,9.59,0,0,1,13.87-7.17l.13.07c7.77,3.95,7.64,15.59,14.24,21.42a2.42,2.42,0,0,0,2.55.47c1.16-.52,1.15-1.57,1.07-2.51a28.53,28.53,0,0,0-6.39-15.67c-.88-1.06-1.9-2.21-1-3.83a3.47,3.47,0,0,1,1.56-1.47,13.86,13.86,0,0,1,19.6,9.18c.67,2.77.47,5.68.68,8.53a29.26,29.26,0,0,0,4,12.66,2.18,2.18,0,0,0,2.26,1.08c.94-.18,1.14-.9,1.27-1.58,1.73-9.08-5.73-18.45-2.78-27.2a4,4,0,0,1,.92-1.66c1-1,2.58-.93,3.95-.69,7.48,1.34,13.77,6.67,17.89,13a19.3,19.3,0,0,1,3.53,9.66c.12,3.7-1.38,7.23-2.15,10.85a27.74,27.74,0,0,0,.57,13.72c2.84-.26,4-3.76,4.4-6.59q1.07-6.73,2.12-13.49c.28-1.8.65-3.79,2.72-4.49a4,4,0,0,1,2-.13,8.79,8.79,0,0,1,4.56,3,42.62,42.62,0,0,1,11.37,24.69,9,9,0,0,1-.83,4.84h0Z"/><g class="cls-48"><path class="cls-49" d="M362.62,113.78c1.68,13.21-6.53,28.56-1.11,41.16a115.58,115.58,0,0,1-12.39-9.7c-2.09-1.85-4.15-3.75-6.2-5.65-.48-10.3-.05-21.53-5.13-30.85-.68-1.26-2.7-.29-2,1,4.56,8.36,4.48,18.37,4.83,27.72-2.7-2.5-5.4-5-8.18-7.41-5.55-4.83-12-8.8-16.81-14.42-5.53-6.47-9-14.42-11.56-22.46-.44-1.36-2.64-.94-2.2.42a73.57,73.57,0,0,0,9.32,20c4.45,6.37,10.56,10.54,16.48,15.38,3.35,2.74,6.57,5.64,9.76,8.59a40.75,40.75,0,0,0-8.2.32c-2.53.27-5.06.55-7.58.94-2.3.36-5.62,1.46-7.5-.43-1-1-2.69.45-1.68,1.47,3.16,3.18,8.28,1.3,12.13.79,5-.65,11.22-2,16,0l.13,0c6,5.57,12,11.1,18.74,15.7-7.65.14-14.17,5.53-21.12,8.57-8.82,3.88-18.73,3.92-28.14,2.87-1.44-.16-1.58,2.07-.15,2.23,8.71,1,17.73,1,26.12-1.87,8.66-2.93,17.08-11.62,26.86-9.19a1.19,1.19,0,0,0,.53,0l.34.2a.88.88,0,0,0,.46.27,54.45,54.45,0,0,0,20,7.12c1.43.2,1.56-2,.14-2.23a51.88,51.88,0,0,1-19.12-6.9c-4.53-6.34-3.61-14.33-2.51-21.61,1.13-7.45,2.88-14.83,1.92-22.4C364.64,111.93,362.44,112.36,362.62,113.78Z"/></g><path class="cls-50" d="M418.63,106.2a49,49,0,0,0-26.15-16.07c4.14,8.62,3.25,18.75,1.51,28.14s-4.26,18.89-3.08,28.38c1.32,10.61,7.11,20.06,12.76,29.13L420,186,422,109.68Z"/><path class="cls-51" d="M424.19,154.75c-4-1.34-8-2.45-12.08-3.39l-.7-.16A133.65,133.65,0,0,0,361.52,149,92.59,92.59,0,0,0,341,154.62a79,79,0,0,0-27.86,19c-1.87,2-7.59,7.58-8.33,11.76,2-3.52,5.72-7.2,7.16-8.75a78.87,78.87,0,0,1,27.86-19.05A91.9,91.9,0,0,1,360.35,152a133.65,133.65,0,0,1,49.89,2.17l.7.16c4.07.94,8.12,2,12.08,3.39,3.57,1.2,3.62,1.47,3.15,4.79-.84,6-1.88,12-2.82,18q-2.18,13.92-4.36,27.83l.69,0,4.84-30.87c.94-6,2-12,2.82-18C427.81,156.22,427.76,156,424.19,154.75Z"/><path class="cls-3" d="M426.17,162.55c.47-3.32.42-3.59-3.15-4.79-4-1.34-8-2.45-12.08-3.39l-.7-.16A133.65,133.65,0,0,0,360.35,152a91.9,91.9,0,0,0-20.48,5.59A78.87,78.87,0,0,0,312,176.68c-1.44,1.55-5.19,5.23-7.16,8.75a3.4,3.4,0,0,0,1.87,3.92,181.06,181.06,0,0,0,43.1,16.56L419,208.4q2.17-13.9,4.36-27.83C424.29,174.57,425.33,168.57,426.17,162.55Z"/><g class="cls-52"><path class="cls-53" d="M301.34,188.1c5.41,2.3,11.07,3.83,17,3.19s9.86-3.46,14.74-6.4c10.64-6.42,25.72-6.82,37.8-6.35,9.95.39,19.48,3.42,29.37,4s19.4-2.83,27.34-8.58c2.59-1.86.09-6.2-2.52-4.31-8,5.77-17.05,8.78-26.9,7.71-9.17-1-18-3.49-27.29-3.86-10.78-.42-23.31.16-33.57,3.84-4.32,1.56-7.75,4.19-11.7,6.4-6.9,3.87-14.7,3-21.73,0-2.93-1.25-5.48,3.06-2.53,4.31Z"/></g><path class="cls-4" d="M219.17,169.8c4-7.57,13.9-10.57,17.73-18.21a5.41,5.41,0,0,0,.52-1.9,1.67,1.67,0,0,0-.61-.17,3.84,3.84,0,0,0-2.35.94,23,23,0,0,1-20.52,2.4c-3-1.11-5.7-2.84-8.74-3.74s-6.68-.8-9,1.39c-1.89,1.8-2.93,4.93-5.51,5.22-1.62.19-3.06-.9-4.51-1.65a12.14,12.14,0,0,0-13.25,1.6c-1.84,1.61-3.13,3.74-4.78,5.55s-3.89,3.35-6.33,3.16-4.52-2.14-6.5-3.74a17,17,0,0,0-9.35-4.08c-4.82-.29-9.29,2.33-13.25,5.09a33.4,33.4,0,0,0-6.75,5.83h0l-2-1.68a15.72,15.72,0,0,0-1,1.72c-2.18,4.23-2.12,9.25-3.53,13.8-.72,2.33-2,4.74-4.34,5.58-1.5.55-3.17.33-4.77.41a12.37,12.37,0,0,0-7.33,3l2,2.17q4.69,4.35,9.53,9.4a221.37,221.37,0,0,1,15,17.46c1.5-2.65,3.76-5.93,6.55-5.69a11.86,11.86,0,0,1,3.41,1.2A11.26,11.26,0,0,0,150.77,213c2.64-2.26,4.44-5.88,7.84-6.58,3.07-.63,6,1.46,8.93,2.48a13.67,13.67,0,0,0,12.66-2.14,17.9,17.9,0,0,0,3.41-3.65c1.63-2.22,3-4.71,4.59-7a30,30,0,0,1,4.09-4.56c.56-.51,1.13-1,1.72-1.47a31,31,0,0,1,13-6.07,17.36,17.36,0,0,0,5-1.39,7.82,7.82,0,0,0,2.62-2.39C216.79,177.33,217.44,173.11,219.17,169.8Zm-93.69-1.65,0,0Zm-.47.66-.08.11Zm-.44.69-.1.15Z"/><g class="cls-54"><path class="cls-55" d="M116.89,206.07c8.83-13.75,27.82-10.69,41.65-13.34,10.72-2.06,18.1-8.89,27.53-13.67,9.91-5,20.83-7.51,30.87-12.35,9.26-4.48,17.13-10.14,22.44-19.1,1.23-2.08-2-4-3.24-1.89-12.11,20.45-38,21.45-56.69,32.7-3.52,2.11-6.73,4.71-10.35,6.66-7.34,3.95-15.42,4.71-23.59,5.37-11.88,1-24.89,2.87-31.86,13.73-1.3,2,1.94,3.92,3.24,1.89Z"/></g><path class="cls-56" d="M235.72,146.66a3.76,3.76,0,0,0-2.35.94,23,23,0,0,1-20.52,2.4c-3-1.11-5.7-2.84-8.74-3.74s-6.68-.8-9,1.39c-1.88,1.79-2.92,4.92-5.5,5.22-1.62.19-3.07-.9-4.51-1.65a12.12,12.12,0,0,0-13.25,1.6c-1.84,1.61-3.13,3.74-4.78,5.55s-3.9,3.34-6.33,3.16-4.52-2.14-6.51-3.74a17,17,0,0,0-9.34-4.08c-4.82-.29-9.3,2.33-13.26,5.09a29.91,29.91,0,0,0-7.64,7l2,1.68a33.4,33.4,0,0,1,6.75-5.83c4-2.76,8.43-5.38,13.25-5.09a17,17,0,0,1,9.35,4.08c2,1.6,4,3.55,6.5,3.74s4.68-1.36,6.33-3.16,2.94-3.94,4.78-5.55a12.14,12.14,0,0,1,13.25-1.6c1.45.75,2.89,1.84,4.51,1.65,2.58-.29,3.62-3.42,5.51-5.22,2.29-2.19,5.93-2.29,9-1.39s5.77,2.63,8.74,3.74a23,23,0,0,0,20.52-2.4,3.84,3.84,0,0,1,2.35-.94,1.67,1.67,0,0,1,.61.17C237.55,148.23,237.09,146.79,235.72,146.66Z"/><path class="cls-5" d="M115.39,109.56A45.88,45.88,0,0,1,117,97.87c1.21-3.76,3.56-7.31,7.06-9.12a22.91,22.91,0,0,1,7.27-1.91l8.81-1.3c2.16-.32,4.62-.57,6,1.61a4.55,4.55,0,0,1,.68,2.41c0,2.42-1.25,4.42-2.36,6.45a44.67,44.67,0,0,0-5.28,24.46,2.12,2.12,0,0,0,.92,1.61c1.54,1,3-1,3.6-2.52q2.58-6.56,5.18-13.11c2.36-6,5.53-12.73,11.75-14.41,5.27-1.42,10.79,1.49,14.75,5.26a3.61,3.61,0,0,1,1.24,1.88c.18,1.11-.62,2.11-1.39,2.93-5.05,5.42-11.13,11.26-10.86,18.66,4.25-1,7.56-4.15,10.9-6.94s7.39-5.44,11.72-4.89a18,18,0,0,1,6,2.31l4.69,2.5a9.81,9.81,0,0,1,2.06,15.84l-.1.09c-6.51,6.1-17.66,1.93-25.56,6.25a2.48,2.48,0,0,0-1.34,2.29c.09,1.29,1.11,1.65,2,1.9a29.23,29.23,0,0,0,17.29-.69c1.33-.48,2.79-1.06,4.05.34a3.62,3.62,0,0,1,.87,2,14.17,14.17,0,0,1-15.65,15.65c-2.9-.31-5.62-1.52-8.44-2.3a29.75,29.75,0,0,0-13.56-.57,2.22,2.22,0,0,0-1.83,1.8c-.15,1,.47,1.41,1.08,1.77,8.13,4.81,19.73.9,27.13,6.78a4.4,4.4,0,0,1,1.28,1.47c.58,1.3,0,2.81-.72,4-3.88,6.72-11.2,10.92-18.77,12.67-3.45.8-7.13,1.14-10.51,0-3.6-1.18-6.47-3.85-9.69-5.85A28.41,28.41,0,0,0,134,173.05c-.74,2.83,2.24,5.12,4.8,6.53L151,186.3c1.64.9,3.42,2,3.38,4.19a4.31,4.31,0,0,1-.59,2,9,9,0,0,1-4.46,3.36,43.63,43.63,0,0,1-27.7,2.34,9.14,9.14,0,0,1-4.36-2.48h0Z"/><g class="cls-57"><path class="cls-58" d="M164.3,169.5c-13.28-3-25.19-16.23-39.2-15.39a119.56,119.56,0,0,1,13.64-8.54c2.51-1.37,5-2.69,7.6-4,10.07,3.12,20.72,7.44,31.45,5.8,1.45-.22,1.22-2.5-.24-2.28-9.63,1.48-19.22-2.08-28.34-5,3.34-1.72,6.69-3.45,10-5.28,6.58-3.66,12.64-8.48,19.71-11.15,8.15-3.08,17-3.64,25.63-3.31,1.46.05,1.82-2.21.35-2.26a74.85,74.85,0,0,0-22.42,2c-7.67,2.06-13.81,6.48-20.52,10.49-3.8,2.27-7.72,4.36-11.66,6.4a41.3,41.3,0,0,0,2.54-8c.63-2.52,1.24-5.06,1.74-7.61.45-2.34.55-5.92,3-7.07,1.33-.61.5-2.75-.83-2.13-4.16,1.94-4.13,7.51-5,11.39-1.11,5-1.95,11.51-5.56,15.44a1,1,0,0,1-.08.11c-7.43,3.83-14.84,7.68-21.62,12.57,2.53-7.41-.38-15.56-.89-23.29-.66-9.84,2.74-19.39,7-28.07.65-1.33-1.45-2.24-2.1-.92-4,8-7.1,16.72-7.28,25.77-.19,9.35,5.23,20.47-.5,29a1.21,1.21,0,0,0-.2.51l-.31.25a1,1,0,0,0-.42.35A55.91,55.91,0,0,0,106,172.09c-.68,1.31,1.41,2.21,2.09.91a53.08,53.08,0,0,1,13.29-16c7.68-2.15,15,1.52,21.66,5.11,6.77,3.68,13.26,7.93,20.88,9.63C165.39,172.08,165.73,169.82,164.3,169.5Z"/></g></g><path class="cls-26" d="M313,186.35H225.11V98.42H313ZM230.49,181h77.17V103.8H230.49Z"/><rect class="cls-26" x="245.67" y="121.48" width="46.8" height="6.36"/><rect class="cls-26" x="280.5" y="141.48" width="20.21" height="6.36"/><rect class="cls-26" x="237.44" y="141.48" width="36.94" height="6.36"/><rect class="cls-26" x="258.49" y="156.94" width="42.22" height="6.36"/><rect class="cls-26" x="237.44" y="156.94" width="14.44" height="6.36"/><rect class="cls-59" x="117.94" y="281.72" width="83.89" height="10.32" rx="3.51"/><rect class="cls-60" x="117.94" y="303.55" width="83.89" height="10.32" rx="3.51"/><rect class="cls-60" x="227.13" y="303.55" width="83.89" height="10.32" rx="3.51"/><rect class="cls-60" x="336.32" y="303.55" width="83.89" height="10.32" rx="3.51"/><rect class="cls-1" x="117.94" y="221.83" width="83.89" height="46.43" rx="4.75"/><rect class="cls-61" x="227.13" y="281.72" width="83.89" height="10.32" rx="3.51"/><rect class="cls-62" x="227.13" y="221.83" width="83.89" height="46.43" rx="4.75"/><rect class="cls-63" x="336.32" y="281.72" width="83.89" height="10.32" rx="3.51"/><rect class="cls-64" x="336.32" y="221.83" width="83.89" height="46.43" rx="4.75"/><path class="cls-65" d="M1359.13,411c-64.32,18.15-178.83,38-335.59-.29-51.25-.05-93.16-42-93.11-93.28s42-93.16,93.28-93.11h4.82a138.09,138.09,0,0,1,67.55-111.66c15.14-8.75,54.35-28.64,106.66-24.73,70.75,5.3,114.13,50.3,124,61.09,2.89-.26,7.22-.56,12.48-.58,44-.11,104.72,20.19,136.61,72.54,5.93,9.74,34.51,56.63,17.66,103.55C1475.69,374.12,1419,394.1,1359.13,411Z"/><path class="cls-45" d="M1078.6,146.88a4.42,4.42,0,0,1-3.14-7.54,128.85,128.85,0,0,1,11.7-10.46,4.42,4.42,0,1,1,5.49,6.94,121.32,121.32,0,0,0-10.91,9.75A4.42,4.42,0,0,1,1078.6,146.88Z"/><path class="cls-45" d="M1059.94,170.87a4.42,4.42,0,0,1-3.79-6.71c1.95-3.24,4.06-6.44,6.29-9.51a4.42,4.42,0,1,1,7.16,5.2c-2.07,2.86-4,5.84-5.86,8.87A4.44,4.44,0,0,1,1059.94,170.87Z"/><path class="cls-45" d="M968.25,263.65a4.42,4.42,0,0,1-3.14-7.54,90.6,90.6,0,0,1,15.15-12.27,4.43,4.43,0,0,1,4.8,7.44,81.58,81.58,0,0,0-13.67,11.07A4.4,4.4,0,0,1,968.25,263.65Z"/><path class="cls-45" d="M947,299.59a4.22,4.22,0,0,1-1.25-.19,4.42,4.42,0,0,1-3-5.49,88.69,88.69,0,0,1,8.19-19.16,4.42,4.42,0,1,1,7.67,4.4,79.83,79.83,0,0,0-7.37,17.26A4.43,4.43,0,0,1,947,299.59Z"/><path class="cls-66" d="M1107.83,341.72a2,2,0,0,1-2-2V55.25l0-54.88L1172.23,0c67.22,0,156.8.52,156.8.52V50.67h49.24v229l-.47,62Z"/><polygon class="cls-67" points="1378.27 50.67 1329.03 0.52 1329.03 50.67 1378.27 50.67"/><path class="cls-26" d="M1219,218.36h-71.82a6.86,6.86,0,0,1,0-13.71H1219a6.86,6.86,0,0,1,0,13.71Z"/><path class="cls-26" d="M1297.58,242.69h-150.4a6.86,6.86,0,0,1,0-13.71h150.4a6.86,6.86,0,0,1,0,13.71Z"/><path class="cls-26" d="M1219,280.54h-71.82a6.86,6.86,0,0,1,0-13.71H1219a6.86,6.86,0,0,1,0,13.71Z"/><path class="cls-26" d="M1297.58,304.87h-150.4a6.86,6.86,0,0,1,0-13.71h150.4a6.86,6.86,0,0,1,0,13.71Z"/><polygon class="cls-68" points="1355.92 176.53 1128.59 177.02 1128.15 63.1 1355.48 62.62 1355.92 176.53"/><polygon class="cls-69" points="1278.84 100.75 1220.24 176.82 1338.03 176.56 1278.84 100.75"/><polygon class="cls-70" points="1355.75 134.34 1321.51 94.16 1252.9 176.75 1355.92 176.53 1355.75 134.34"/><circle class="cls-66" cx="1172.41" cy="94.16" r="10.68" transform="translate(192.48 744.66) rotate(-38.17)"/><path class="cls-71" d="M1549.09,377.2c30.61-46.46-1.11-109.34-56.72-110.94-.87,0-1.75,0-2.63,0a90.18,90.18,0,0,0-78.62,45.93,83.3,83.3,0,0,0-117.26,16.13,45.89,45.89,0,0,0-39.06,82.46l272,.24Z"/><path class="cls-29" d="M1524.49,296.87a4.47,4.47,0,0,1-2.27-.63,67.59,67.59,0,0,0-12.51-5.87,4.42,4.42,0,0,1,2.92-8.35,75.89,75.89,0,0,1,14.14,6.63,4.42,4.42,0,0,1-2.28,8.22Z"/><path class="cls-29" d="M1471.13,288.37a4.43,4.43,0,0,1-1-8.75,77.72,77.72,0,0,1,20.66-1.81,4.42,4.42,0,0,1-.41,8.84,68.4,68.4,0,0,0-18.3,1.61A4.75,4.75,0,0,1,1471.13,288.37Z"/><path class="cls-72" d="M1515.23,174c.24.13,1.67-13.21,1.64-14.29-.24-9.68-2.94-19.95-9.24-27.5-7.88-9.44-20.79-14.13-36.88-14.13a49.21,49.21,0,0,0-21.58,4.95,70.7,70.7,0,0,0-137.49,23.21v.82a35.59,35.59,0,0,0-39.54,35.9c.25,19.59,16.58,35.18,36.18,35.18h196a23.06,23.06,0,0,0,23.06-23.07C1527.36,187,1523.09,178.29,1515.23,174Z"/><path class="cls-29" d="M1351.38,106.93a3.89,3.89,0,0,1-2.2-7.11,56.07,56.07,0,0,1,31.72-9.77,3.89,3.89,0,0,1,0,7.78,48.26,48.26,0,0,0-27.33,8.42A3.87,3.87,0,0,1,1351.38,106.93Z"/><path class="cls-29" d="M1329.39,140.39a4.63,4.63,0,0,1-.74-.07,3.9,3.9,0,0,1-3.09-4.56,55.77,55.77,0,0,1,8.2-20.24,3.89,3.89,0,1,1,6.51,4.27,48.14,48.14,0,0,0-7.07,17.43A3.88,3.88,0,0,1,1329.39,140.39Z"/><path class="cls-26" d="M718.93,195.79A3.94,3.94,0,0,1,716,191l2.29-9.75A4,4,0,0,1,726,183.1l-2.3,9.74A4,4,0,0,1,718.93,195.79Z"/><path class="cls-26" d="M712.66,222.43a4,4,0,0,1-2.95-4.76l2.3-9.75a4,4,0,1,1,7.71,1.82l-2.3,9.74A4,4,0,0,1,712.66,222.43Z"/><path class="cls-26" d="M735.14,208.53l-9.75-2.3a4,4,0,1,1,1.82-7.71l9.74,2.29a4,4,0,0,1-1.81,7.72Z"/><path class="cls-26" d="M708.5,202.25l-9.75-2.3a4,4,0,1,1,1.82-7.71l9.74,2.3a4,4,0,1,1-1.81,7.71Z"/><path class="cls-26" d="M797.38,162.38a2.62,2.62,0,0,1-3.51-1.14l-3-5.87a2.61,2.61,0,1,1,4.65-2.38l3,5.87A2.61,2.61,0,0,1,797.38,162.38Z"/><path class="cls-26" d="M805.6,178.44a2.63,2.63,0,0,1-3.52-1.14l-3-5.88a2.61,2.61,0,1,1,4.65-2.37l3,5.87A2.62,2.62,0,0,1,805.6,178.44Z"/><path class="cls-26" d="M811,161.86l-5.88,3a2.61,2.61,0,1,1-2.38-4.64l5.88-3a2.61,2.61,0,0,1,2.38,4.65Z"/><path class="cls-26" d="M794.9,170.07l-5.88,3a2.61,2.61,0,0,1-2.38-4.65l5.88-3a2.61,2.61,0,0,1,2.38,4.65Z"/><path class="cls-26" d="M779.21,206.45a1.26,1.26,0,0,1-1.79-.1L775.27,204a1.27,1.27,0,0,1,1.89-1.7l2.15,2.39A1.28,1.28,0,0,1,779.21,206.45Z"/><path class="cls-26" d="M785.08,213a1.27,1.27,0,0,1-1.79-.09l-2.15-2.38a1.27,1.27,0,0,1,1.89-1.7l2.15,2.38A1.26,1.26,0,0,1,785.08,213Z"/><path class="cls-26" d="M785.52,204.5l-2.38,2.15a1.27,1.27,0,0,1-1.7-1.89l2.38-2.14a1.27,1.27,0,1,1,1.7,1.88Z"/><path class="cls-26" d="M779,210.37l-2.38,2.15a1.27,1.27,0,0,1-1.7-1.88l2.38-2.15a1.27,1.27,0,1,1,1.7,1.88Z"/><path class="cls-26" d="M751.6,250.89a1.27,1.27,0,0,1-1.79-.09l-2.15-2.38a1.27,1.27,0,0,1,1.89-1.7l2.14,2.38A1.27,1.27,0,0,1,751.6,250.89Z"/><path class="cls-26" d="M757.47,257.4a1.27,1.27,0,0,1-1.79-.09l-2.15-2.38a1.27,1.27,0,1,1,1.89-1.7l2.15,2.38A1.28,1.28,0,0,1,757.47,257.4Z"/><path class="cls-26" d="M757.91,248.94l-2.38,2.15a1.27,1.27,0,1,1-1.7-1.88l2.38-2.15a1.27,1.27,0,1,1,1.7,1.88Z"/><path class="cls-26" d="M751.4,254.82,749,257a1.27,1.27,0,1,1-1.7-1.88l2.38-2.15a1.27,1.27,0,0,1,1.7,1.89Z"/><path class="cls-26" d="M771.92,294.69a4,4,0,0,1-2.95-4.76l2.29-9.75A4,4,0,0,1,779,282l-2.3,9.75A3.94,3.94,0,0,1,771.92,294.69Z"/><path class="cls-26" d="M765.64,321.33a4,4,0,0,1-2.95-4.76l2.3-9.75a4,4,0,1,1,7.71,1.82l-2.3,9.75A4,4,0,0,1,765.64,321.33Z"/><path class="cls-26" d="M788.12,307.43l-9.75-2.3a4,4,0,0,1,1.82-7.71l9.75,2.29a4,4,0,0,1-1.82,7.72Z"/><path class="cls-26" d="M761.48,301.15l-9.75-2.3a4,4,0,0,1,1.82-7.71l9.75,2.3a4,4,0,0,1-1.82,7.71Z"/><path class="cls-26" d="M850.37,261.28a2.62,2.62,0,0,1-3.52-1.14l-3-5.87a2.61,2.61,0,1,1,4.65-2.38l3,5.87A2.62,2.62,0,0,1,850.37,261.28Z"/><path class="cls-26" d="M858.58,277.34a2.61,2.61,0,0,1-3.51-1.14l-3-5.87a2.61,2.61,0,1,1,4.65-2.38l3,5.87A2.62,2.62,0,0,1,858.58,277.34Z"/><path class="cls-26" d="M863.94,260.76l-5.88,3a2.61,2.61,0,0,1-2.38-4.65l5.88-3a2.61,2.61,0,0,1,2.38,4.65Z"/><path class="cls-26" d="M847.88,269,842,272a2.61,2.61,0,0,1-2.37-4.65l5.87-3a2.61,2.61,0,0,1,2.38,4.65Z"/><path class="cls-26" d="M832.2,305.35a1.28,1.28,0,0,1-1.8-.09l-2.14-2.38a1.27,1.27,0,1,1,1.88-1.7l2.15,2.38A1.27,1.27,0,0,1,832.2,305.35Z"/><path class="cls-26" d="M838.07,311.85a1.27,1.27,0,0,1-1.79-.09l-2.15-2.38a1.27,1.27,0,1,1,1.88-1.7l2.15,2.38A1.27,1.27,0,0,1,838.07,311.85Z"/><path class="cls-26" d="M838.5,303.4l-2.38,2.15a1.27,1.27,0,1,1-1.7-1.88l2.38-2.15a1.27,1.27,0,0,1,1.7,1.88Z"/><path class="cls-26" d="M832,309.27l-2.38,2.15a1.27,1.27,0,1,1-1.7-1.88l2.38-2.15a1.27,1.27,0,1,1,1.7,1.88Z"/><path class="cls-26" d="M804.58,349.79a1.27,1.27,0,0,1-1.79-.09l-2.15-2.38a1.27,1.27,0,0,1,1.89-1.7l2.15,2.38A1.28,1.28,0,0,1,804.58,349.79Z"/><path class="cls-26" d="M810.46,356.3a1.28,1.28,0,0,1-1.8-.09l-2.14-2.38a1.27,1.27,0,1,1,1.88-1.7l2.15,2.38A1.27,1.27,0,0,1,810.46,356.3Z"/><path class="cls-26" d="M810.89,347.85,808.51,350a1.27,1.27,0,1,1-1.7-1.88l2.38-2.15a1.27,1.27,0,0,1,1.7,1.89Z"/><path class="cls-26" d="M804.38,353.72,802,355.87a1.27,1.27,0,0,1-1.7-1.89l2.38-2.15a1.27,1.27,0,0,1,1.7,1.89Z"/><path class="cls-26" d="M1364.65,808.67a4,4,0,0,1-3-4.76l2.29-9.75a4,4,0,0,1,7.72,1.82l-2.3,9.75A3.94,3.94,0,0,1,1364.65,808.67Z"/><path class="cls-26" d="M1358.37,835.31a4,4,0,0,1-2.95-4.76l2.3-9.75a4,4,0,0,1,7.71,1.82l-2.3,9.75A3.94,3.94,0,0,1,1358.37,835.31Z"/><path class="cls-26" d="M1380.85,821.41l-9.75-2.3a4,4,0,0,1,1.82-7.71l9.75,2.3a4,4,0,0,1-1.82,7.71Z"/><path class="cls-26" d="M1354.21,815.13l-9.75-2.3a4,4,0,0,1,1.82-7.71l9.75,2.3a4,4,0,0,1-1.82,7.71Z"/><path class="cls-26" d="M1443.1,775.26a2.61,2.61,0,0,1-3.52-1.14l-3-5.87a2.61,2.61,0,1,1,4.65-2.38l3,5.88A2.61,2.61,0,0,1,1443.1,775.26Z"/><path class="cls-26" d="M1451.31,791.32a2.61,2.61,0,0,1-3.51-1.14l-3-5.87a2.61,2.61,0,1,1,4.65-2.38l3,5.87A2.62,2.62,0,0,1,1451.31,791.32Z"/><path class="cls-26" d="M1456.67,774.74l-5.88,3a2.61,2.61,0,0,1-2.38-4.65l5.88-3a2.61,2.61,0,0,1,2.38,4.65Z"/><path class="cls-26" d="M1440.61,783l-5.88,3a2.61,2.61,0,0,1-2.37-4.65l5.87-3a2.61,2.61,0,0,1,2.38,4.64Z"/><path class="cls-26" d="M1424.93,819.33a1.28,1.28,0,0,1-1.8-.09l-2.14-2.38a1.27,1.27,0,1,1,1.88-1.7l2.15,2.38A1.27,1.27,0,0,1,1424.93,819.33Z"/><path class="cls-26" d="M1430.8,825.84a1.27,1.27,0,0,1-1.79-.1l-2.15-2.38a1.27,1.27,0,0,1,1.88-1.7l2.15,2.38A1.28,1.28,0,0,1,1430.8,825.84Z"/><path class="cls-26" d="M1431.23,817.38l-2.38,2.15a1.27,1.27,0,0,1-1.7-1.88l2.38-2.15a1.27,1.27,0,0,1,1.7,1.88Z"/><path class="cls-26" d="M1424.72,823.25l-2.38,2.15a1.27,1.27,0,1,1-1.7-1.88l2.38-2.15a1.27,1.27,0,1,1,1.7,1.88Z"/><path class="cls-26" d="M1397.31,863.77a1.27,1.27,0,0,1-1.79-.09l-2.15-2.38a1.27,1.27,0,0,1,1.89-1.7l2.15,2.38A1.28,1.28,0,0,1,1397.31,863.77Z"/><path class="cls-26" d="M1403.19,870.28a1.28,1.28,0,0,1-1.8-.09l-2.14-2.38a1.27,1.27,0,0,1,1.88-1.7l2.15,2.38A1.27,1.27,0,0,1,1403.19,870.28Z"/><path class="cls-26" d="M1403.62,861.83l-2.38,2.14a1.27,1.27,0,1,1-1.7-1.88l2.38-2.15a1.27,1.27,0,0,1,1.7,1.89Z"/><path class="cls-26" d="M1397.11,867.7l-2.38,2.15A1.27,1.27,0,0,1,1393,868l2.38-2.15a1.27,1.27,0,0,1,1.7,1.89Z"/><path class="cls-26" d="M1349.69,691.23a4,4,0,0,1-3-4.76l2.3-9.75a4,4,0,1,1,7.71,1.82l-2.3,9.74A4,4,0,0,1,1349.69,691.23Z"/><path class="cls-26" d="M1343.41,717.87a4,4,0,0,1-2.94-4.76l2.29-9.75a4,4,0,1,1,7.71,1.82l-2.29,9.74A4,4,0,0,1,1343.41,717.87Z"/><path class="cls-26" d="M1365.89,704l-9.74-2.29A4,4,0,1,1,1358,694l9.75,2.29a4,4,0,1,1-1.82,7.71Z"/><path class="cls-26" d="M1339.25,697.69l-9.74-2.3a4,4,0,0,1,1.81-7.71l9.75,2.29a4,4,0,1,1-1.82,7.72Z"/><path class="cls-26" d="M1428.14,657.81a2.6,2.6,0,0,1-3.51-1.13l-3-5.88a2.61,2.61,0,0,1,4.65-2.37l3,5.87A2.61,2.61,0,0,1,1428.14,657.81Z"/><path class="cls-26" d="M1436.35,673.87a2.61,2.61,0,0,1-3.51-1.13l-3-5.88a2.61,2.61,0,0,1,4.65-2.38l3,5.88A2.61,2.61,0,0,1,1436.35,673.87Z"/><path class="cls-26" d="M1441.71,657.3l-5.87,3a2.61,2.61,0,1,1-2.38-4.65l5.87-3a2.61,2.61,0,1,1,2.38,4.65Z"/><path class="cls-26" d="M1425.65,665.51l-5.87,3a2.61,2.61,0,1,1-2.38-4.64l5.87-3a2.61,2.61,0,1,1,2.38,4.65Z"/><path class="cls-26" d="M1410,701.88a1.27,1.27,0,0,1-1.79-.09l-2.15-2.38a1.27,1.27,0,0,1,1.88-1.7l2.15,2.38A1.27,1.27,0,0,1,1410,701.88Z"/><path class="cls-26" d="M1415.84,708.39a1.27,1.27,0,0,1-1.79-.09l-2.15-2.38a1.27,1.27,0,1,1,1.88-1.7l2.15,2.38A1.27,1.27,0,0,1,1415.84,708.39Z"/><path class="cls-26" d="M1416.27,699.94l-2.38,2.15a1.27,1.27,0,0,1-1.7-1.89l2.38-2.15a1.27,1.27,0,1,1,1.7,1.89Z"/><path class="cls-26" d="M1409.77,705.81l-2.38,2.15a1.27,1.27,0,0,1-1.7-1.89l2.38-2.14a1.27,1.27,0,0,1,1.7,1.88Z"/><path class="cls-26" d="M1382.36,746.33a1.27,1.27,0,0,1-1.79-.09l-2.15-2.38a1.27,1.27,0,1,1,1.88-1.7l2.15,2.38A1.27,1.27,0,0,1,1382.36,746.33Z"/><path class="cls-26" d="M1388.23,752.84a1.27,1.27,0,0,1-1.79-.1l-2.15-2.38a1.27,1.27,0,0,1,1.88-1.7l2.15,2.38A1.28,1.28,0,0,1,1388.23,752.84Z"/><path class="cls-26" d="M1388.66,744.38l-2.38,2.15a1.27,1.27,0,0,1-1.7-1.88l2.38-2.15a1.27,1.27,0,0,1,1.7,1.88Z"/><path class="cls-26" d="M1382.16,750.25l-2.38,2.15a1.27,1.27,0,1,1-1.7-1.88l2.38-2.15a1.27,1.27,0,0,1,1.7,1.88Z"/><path class="cls-26" d="M255.5,535.4a4,4,0,0,1-2.95-4.77l2.3-9.74a4,4,0,1,1,7.71,1.82l-2.3,9.74A4,4,0,0,1,255.5,535.4Z"/><path class="cls-26" d="M249.22,562a4,4,0,0,1-2.95-4.77l2.3-9.74a4,4,0,1,1,7.71,1.81L254,559.09A4,4,0,0,1,249.22,562Z"/><path class="cls-26" d="M271.7,548.13,262,545.84a4,4,0,0,1,1.81-7.72l9.75,2.3a4,4,0,1,1-1.82,7.71Z"/><path class="cls-26" d="M245.06,541.86l-9.74-2.3a4,4,0,1,1,1.81-7.71l9.75,2.29a4,4,0,1,1-1.82,7.72Z"/><path class="cls-26" d="M334,502a2.6,2.6,0,0,1-3.51-1.13l-3-5.88a2.61,2.61,0,0,1,4.65-2.38l3,5.88A2.6,2.6,0,0,1,334,502Z"/><path class="cls-26" d="M342.16,518a2.6,2.6,0,0,1-3.51-1.13l-3-5.88a2.61,2.61,0,0,1,4.65-2.38l3,5.88A2.62,2.62,0,0,1,342.16,518Z"/><path class="cls-26" d="M347.52,501.47l-5.88,3a2.61,2.61,0,1,1-2.37-4.65l5.87-3a2.61,2.61,0,1,1,2.38,4.65Z"/><path class="cls-26" d="M331.46,509.68l-5.87,3a2.61,2.61,0,1,1-2.38-4.65l5.87-3a2.61,2.61,0,1,1,2.38,4.65Z"/><path class="cls-26" d="M315.78,546.05A1.27,1.27,0,0,1,314,546l-2.15-2.38a1.27,1.27,0,0,1,1.88-1.7l2.15,2.38A1.27,1.27,0,0,1,315.78,546.05Z"/><path class="cls-26" d="M321.65,552.56a1.27,1.27,0,0,1-1.79-.09l-2.15-2.38a1.27,1.27,0,0,1,1.88-1.7l2.15,2.38A1.27,1.27,0,0,1,321.65,552.56Z"/><path class="cls-26" d="M322.08,544.11l-2.38,2.14a1.27,1.27,0,0,1-1.7-1.88l2.38-2.15a1.27,1.27,0,1,1,1.7,1.89Z"/><path class="cls-26" d="M315.58,550l-2.38,2.15a1.27,1.27,0,1,1-1.7-1.89l2.38-2.15a1.27,1.27,0,0,1,1.7,1.89Z"/><path class="cls-26" d="M288.17,590.5a1.28,1.28,0,0,1-1.8-.09L284.23,588a1.27,1.27,0,1,1,1.88-1.7l2.15,2.38A1.27,1.27,0,0,1,288.17,590.5Z"/><path class="cls-26" d="M294,597a1.27,1.27,0,0,1-1.79-.09l-2.15-2.38a1.27,1.27,0,1,1,1.88-1.7l2.15,2.38A1.27,1.27,0,0,1,294,597Z"/><path class="cls-26" d="M294.47,588.55l-2.38,2.15a1.27,1.27,0,0,1-1.7-1.88l2.38-2.15a1.27,1.27,0,1,1,1.7,1.88Z"/><path class="cls-26" d="M288,594.42l-2.38,2.15a1.27,1.27,0,0,1-1.7-1.88l2.38-2.15a1.27,1.27,0,1,1,1.7,1.88Z"/></g></g></svg>