<svg xmlns="http://www.w3.org/2000/svg" xmlns:xlink="http://www.w3.org/1999/xlink" viewBox="0 0 230.44 269.82"><defs><style>.cls-1{isolation:isolate;}.cls-2{fill:#fff;}.cls-3{fill:url(#linear-gradient);}.cls-4,.cls-79{mix-blend-mode:multiply;}.cls-4{fill:url(#radial-gradient);}.cls-11,.cls-12,.cls-13,.cls-14,.cls-15,.cls-16,.cls-17,.cls-18,.cls-19,.cls-20,.cls-21,.cls-22,.cls-23,.cls-24,.cls-25,.cls-26,.cls-27,.cls-28,.cls-29,.cls-30,.cls-31,.cls-32,.cls-33,.cls-34,.cls-35,.cls-36,.cls-37,.cls-38,.cls-39,.cls-40,.cls-41,.cls-42,.cls-43,.cls-44,.cls-45,.cls-46,.cls-47,.cls-48,.cls-49,.cls-5,.cls-50,.cls-51,.cls-59,.cls-67,.cls-90{fill:#3c5185;}.cls-6{fill:#2842a2;}.cls-7{opacity:0.83;fill:url(#linear-gradient-2);}.cls-8{fill:#6e84b5;opacity:0.49;}.cls-9{fill:url(#linear-gradient-3);}.cls-10{opacity:0.7;}.cls-11{opacity:0;}.cls-12{opacity:0.02;}.cls-13{opacity:0.05;}.cls-14{opacity:0.07;}.cls-15{opacity:0.1;}.cls-16{opacity:0.12;}.cls-17{opacity:0.15;}.cls-18{opacity:0.17;}.cls-19{opacity:0.2;}.cls-20{opacity:0.22;}.cls-21{opacity:0.24;}.cls-22{opacity:0.27;}.cls-23{opacity:0.29;}.cls-24{opacity:0.32;}.cls-25{opacity:0.34;}.cls-26{opacity:0.37;}.cls-27{opacity:0.39;}.cls-28{opacity:0.41;}.cls-29{opacity:0.44;}.cls-30{opacity:0.46;}.cls-31{opacity:0.49;}.cls-32{opacity:0.51;}.cls-33{opacity:0.54;}.cls-34{opacity:0.56;}.cls-35{opacity:0.59;}.cls-36{opacity:0.61;}.cls-37{opacity:0.63;}.cls-38{opacity:0.66;}.cls-39{opacity:0.68;}.cls-40{opacity:0.71;}.cls-41{opacity:0.73;}.cls-42{opacity:0.76;}.cls-43{opacity:0.78;}.cls-44{opacity:0.8;}.cls-45{opacity:0.83;}.cls-46{opacity:0.85;}.cls-47{opacity:0.88;}.cls-48{opacity:0.9;}.cls-49{opacity:0.93;}.cls-50{opacity:0.95;}.cls-51{opacity:0.98;}.cls-52{fill:url(#linear-gradient-4);}.cls-53{fill:#edf3fa;}.cls-54{fill:url(#linear-gradient-5);}.cls-55{fill:#d1e1f2;}.cls-56{fill:url(#linear-gradient-6);}.cls-57{fill:#7ea7df;}.cls-58{fill:#e3edf7;}.cls-59{opacity:0.15;}.cls-60{fill:url(#linear-gradient-7);}.cls-61{fill:#ffc107;}.cls-62{fill:url(#linear-gradient-8);}.cls-63{fill:#f2b1b5;}.cls-64{fill:url(#linear-gradient-9);}.cls-65{fill:url(#linear-gradient-10);}.cls-66{fill:url(#linear-gradient-11);}.cls-67{opacity:0.2;}.cls-68{fill:url(#linear-gradient-12);}.cls-69{fill:url(#linear-gradient-13);}.cls-70{fill:url(#linear-gradient-14);}.cls-71{fill:#4a65a3;}.cls-72{opacity:0.32;}.cls-73{fill:#231f20;}.cls-74{fill:#ebe9ec;}.cls-75{fill:url(#linear-gradient-15);}.cls-76{fill:url(#linear-gradient-16);}.cls-77{fill:url(#linear-gradient-17);}.cls-78{fill:url(#linear-gradient-18);}.cls-79{fill:url(#radial-gradient-2);}.cls-80{opacity:0.4;}.cls-81{fill:url(#linear-gradient-19);}.cls-82{fill:#f6f9fc;}.cls-83{fill:url(#linear-gradient-20);}.cls-84{fill:url(#linear-gradient-21);}.cls-85{fill:url(#linear-gradient-22);}.cls-86{fill:url(#linear-gradient-23);}.cls-87{fill:url(#linear-gradient-24);}.cls-88{fill:url(#linear-gradient-25);}.cls-89{fill:url(#linear-gradient-26);}.cls-90{opacity:0.3;}.cls-91{fill:url(#linear-gradient-27);}.cls-92{fill:url(#linear-gradient-28);}.cls-93{fill:url(#linear-gradient-29);}.cls-94{fill:url(#linear-gradient-30);}.cls-95{fill:url(#linear-gradient-31);}.cls-96{fill:url(#linear-gradient-32);}.cls-97{fill:url(#linear-gradient-33);}</style><linearGradient id="linear-gradient" x1="53.68" y1="134.91" x2="230.44" y2="134.91" gradientUnits="userSpaceOnUse"><stop offset="0" stop-color="#7ea7df"/><stop offset="0.61" stop-color="#afc9ea"/><stop offset="1" stop-color="#d1e1f2"/></linearGradient><radialGradient id="radial-gradient" cx="130.99" cy="7643.23" r="9.17" gradientTransform="translate(0 -3886.39) scale(1 0.52)" gradientUnits="userSpaceOnUse"><stop offset="0" stop-color="#3c5185"/><stop offset="0.05" stop-color="#596b97"/><stop offset="0.14" stop-color="#8592b3"/><stop offset="0.23" stop-color="#abb4ca"/><stop offset="0.33" stop-color="#c9cfdd"/><stop offset="0.43" stop-color="#e1e4ec"/><stop offset="0.54" stop-color="#f2f3f7"/><stop offset="0.66" stop-color="#fcfcfd"/><stop offset="0.8" stop-color="#fff"/></radialGradient><linearGradient id="linear-gradient-2" x1="124.34" y1="54.89" x2="137.68" y2="54.89" gradientUnits="userSpaceOnUse"><stop offset="0.02" stop-color="#ffc107"/><stop offset="0.14" stop-color="#ffbc06"/><stop offset="1" stop-color="#ff9800"/></linearGradient><linearGradient id="linear-gradient-3" x1="120.04" y1="45.8" x2="142.06" y2="45.8" xlink:href="#linear-gradient-2"/><linearGradient id="linear-gradient-4" x1="146.89" y1="61.98" x2="197.84" y2="61.98" gradientUnits="userSpaceOnUse"><stop offset="0" stop-color="#fff"/><stop offset="0.4" stop-color="#d5e7f8"/><stop offset="0.79" stop-color="#b2d3f1"/><stop offset="1" stop-color="#a5cbef"/></linearGradient><linearGradient id="linear-gradient-5" x1="113.28" y1="93.07" x2="196.44" y2="93.07" gradientUnits="userSpaceOnUse"><stop offset="0" stop-color="#a5cbef"/><stop offset="0.21" stop-color="#b2d3f1"/><stop offset="0.6" stop-color="#d5e7f8"/><stop offset="1" stop-color="#fff"/></linearGradient><linearGradient id="linear-gradient-6" x1="152.27" y1="53.91" x2="189.79" y2="53.91" xlink:href="#linear-gradient-4"/><linearGradient id="linear-gradient-7" x1="160.97" y1="61.27" x2="170.5" y2="61.27" gradientUnits="userSpaceOnUse"><stop offset="0" stop-color="#fff"/><stop offset="0.36" stop-color="#e8f2fb"/><stop offset="1" stop-color="#c2dcf4"/></linearGradient><linearGradient id="linear-gradient-8" x1="324.55" y1="110.12" x2="388.54" y2="110.12" gradientTransform="translate(-162.25)" gradientUnits="userSpaceOnUse"><stop offset="0" stop-color="#ff9800"/><stop offset="1" stop-color="#ffc107"/></linearGradient><linearGradient id="linear-gradient-9" x1="149.77" y1="74.7" x2="158.02" y2="74.7" gradientUnits="userSpaceOnUse"><stop offset="0" stop-color="#a8d9fb"/><stop offset="1" stop-color="#fff"/></linearGradient><linearGradient id="linear-gradient-10" x1="153.17" y1="64.73" x2="157.6" y2="69.28" xlink:href="#linear-gradient-9"/><linearGradient id="linear-gradient-11" x1="148.49" y1="62.84" x2="156.8" y2="62.84" gradientTransform="matrix(1, 0, 0, 1, 0, 0)" xlink:href="#linear-gradient-8"/><linearGradient id="linear-gradient-12" x1="183.06" y1="36.71" x2="192.9" y2="36.71" gradientUnits="userSpaceOnUse"><stop offset="0" stop-color="#fff"/><stop offset="1" stop-color="#ff9800"/></linearGradient><linearGradient id="linear-gradient-13" x1="182.62" y1="36.86" x2="192.46" y2="36.86" gradientTransform="matrix(1, 0, 0, 1, 0, 0)" xlink:href="#linear-gradient-8"/><linearGradient id="linear-gradient-14" x1="181.22" y1="53.05" x2="195.1" y2="53.05" gradientUnits="userSpaceOnUse"><stop offset="0" stop-color="#fff"/><stop offset="1" stop-color="#4a65a3"/></linearGradient><linearGradient id="linear-gradient-15" x1="196.56" y1="46.48" x2="202.97" y2="46.48" xlink:href="#linear-gradient-4"/><linearGradient id="linear-gradient-16" x1="202.49" y1="51.69" x2="196.58" y2="41.59" gradientUnits="userSpaceOnUse"><stop offset="0" stop-color="#5d7dbe"/><stop offset="1" stop-color="#a5cbef"/></linearGradient><linearGradient id="linear-gradient-17" x1="195.94" y1="35.72" x2="200.85" y2="35.72" gradientUnits="userSpaceOnUse"><stop offset="0" stop-color="#fff"/><stop offset="1" stop-color="#3c5185"/></linearGradient><linearGradient id="linear-gradient-18" x1="168.38" y1="33.06" x2="179.47" y2="33.06" xlink:href="#linear-gradient-17"/><radialGradient id="radial-gradient-2" cx="149.99" cy="7765.24" r="10.78" gradientTransform="translate(0 -3886.39) scale(1 0.52)" gradientUnits="userSpaceOnUse"><stop offset="0" stop-color="#3c5185"/><stop offset="0.06" stop-color="#506291"/><stop offset="0.25" stop-color="#8d9ab8"/><stop offset="0.43" stop-color="#bec5d7"/><stop offset="0.59" stop-color="#e2e5ed"/><stop offset="0.72" stop-color="#f7f8fa"/><stop offset="0.8" stop-color="#fff"/></radialGradient><linearGradient id="linear-gradient-19" x1="131.46" y1="125.95" x2="115.76" y2="95.14" gradientUnits="userSpaceOnUse"><stop offset="0" stop-color="#a5cbef"/><stop offset="0.02" stop-color="#a7ccef"/><stop offset="0.25" stop-color="#c1daf5"/><stop offset="0.49" stop-color="#d4e3f9"/><stop offset="0.73" stop-color="#dfe9fb"/><stop offset="1" stop-color="#e3ebfc"/></linearGradient><linearGradient id="linear-gradient-20" x1="107.09" y1="108.34" x2="128.74" y2="108.34" gradientUnits="userSpaceOnUse"><stop offset="0" stop-color="#3c5185"/><stop offset="0.13" stop-color="#41588e"/><stop offset="0.69" stop-color="#5573b1"/><stop offset="1" stop-color="#5d7dbe"/></linearGradient><linearGradient id="linear-gradient-21" x1="108.94" y1="107.67" x2="110.89" y2="107.67" gradientUnits="userSpaceOnUse"><stop offset="0" stop-color="#ff9800"/><stop offset="0.63" stop-color="#ffb004"/><stop offset="1" stop-color="#ffc107"/></linearGradient><linearGradient id="linear-gradient-22" x1="113.34" y1="111.39" x2="114.88" y2="111.39" xlink:href="#linear-gradient-21"/><linearGradient id="linear-gradient-23" x1="110.01" y1="110.64" x2="111.07" y2="110.64" xlink:href="#linear-gradient-21"/><linearGradient id="linear-gradient-24" x1="107.77" y1="112.17" x2="109.68" y2="112.17" xlink:href="#linear-gradient-21"/><linearGradient id="linear-gradient-25" x1="111.23" y1="115.22" x2="112.32" y2="115.22" xlink:href="#linear-gradient-21"/><linearGradient id="linear-gradient-26" x1="107.77" y1="114.56" x2="109" y2="114.56" xlink:href="#linear-gradient-21"/><linearGradient id="linear-gradient-27" x1="122.13" y1="100.09" x2="132.04" y2="100.09" xlink:href="#linear-gradient-20"/><linearGradient id="linear-gradient-28" x1="124.88" y1="101.68" x2="134.79" y2="101.68" xlink:href="#linear-gradient-20"/><linearGradient id="linear-gradient-29" x1="120.13" y1="101.41" x2="127.54" y2="101.41" xlink:href="#linear-gradient-20"/><linearGradient id="linear-gradient-30" x1="125.87" y1="93.5" x2="134.99" y2="93.5" xlink:href="#linear-gradient-5"/><linearGradient id="linear-gradient-31" x1="1555.93" y1="93.57" x2="1564.32" y2="93.57" gradientTransform="matrix(-1, 0, 0, 1, 1690.45, 0)" xlink:href="#linear-gradient-21"/><linearGradient id="linear-gradient-32" x1="121.09" y1="97.85" x2="132.84" y2="97.85" xlink:href="#linear-gradient-5"/><linearGradient id="linear-gradient-33" x1="121.07" y1="84.37" x2="127.68" y2="84.37" xlink:href="#linear-gradient-20"/></defs><title>Fichier 8</title><g class="cls-1"><g id="Calque_2" data-name="Calque 2"><g id="web_design" data-name="web design"><rect class="cls-2" width="230.27" height="269.82"/><path class="cls-3" d="M230.44,138.1V244.36a25.46,25.46,0,0,1-29.11,25.19l-109-15.77A25.43,25.43,0,0,1,74.66,242.5L63.44,225.32a60.05,60.05,0,0,1,.88-67l14-20.26s4.43-10.67,28.42-24.33c0,0,34.71-18.38,17.79-47.86,0,0-6.89-16.2,16.77-27.62,0,0,25.32-12.28,17.38-38.29h71.76Z"/><path class="cls-4" d="M124.57,62.62a14.32,14.32,0,0,1,12.85,0c3.53,2,3.53,5.38,0,7.42a14.26,14.26,0,0,1-12.85,0C121,68,121,64.66,124.57,62.62Z"/><path class="cls-5" d="M132.88,65.75l-.37.3h-3.19l-.35-.32a5,5,0,0,1-1.61-3.66V60.68h7.3v1.25A5,5,0,0,1,132.88,65.75Z"/><path class="cls-5" d="M131.48,67h-1.2A1.07,1.07,0,0,1,129.22,66h3.32A1.07,1.07,0,0,1,131.48,67Z"/><path class="cls-6" d="M133.58,59.2a5.7,5.7,0,0,0-5.15,0c-1.42.82-1.42,2.16,0,3a5.76,5.76,0,0,0,5.15,0C135,61.36,135,60,133.58,59.2Z"/><path class="cls-7" d="M131,47a6.67,6.67,0,0,0-3.64,12.26v1.5h0a1.87,1.87,0,0,0,1.08,1.44,5.74,5.74,0,0,0,5.14,0,1.82,1.82,0,0,0,1-1.43h0v-1.5A6.67,6.67,0,0,0,131,47Z"/><path class="cls-2" d="M127.28,54.39A4.36,4.36,0,0,1,131.64,50c2.23,0,2.06-1.86-.78-1.86a5.16,5.16,0,0,0-5.15,5.15C125.71,55.12,127.28,55.92,127.28,54.39Z"/><path class="cls-8" d="M133.59,62.76a5.74,5.74,0,0,1-5.14,0,1.86,1.86,0,0,1-1.08-1.43v.5a1.86,1.86,0,0,0,1.08,1.43,5.74,5.74,0,0,0,5.14,0,1.8,1.8,0,0,0,1-1.42h0v-.5h0A1.8,1.8,0,0,1,133.59,62.76Z"/><path class="cls-8" d="M133.57,64.21a5.68,5.68,0,0,1-5.14,0,2.35,2.35,0,0,1-.87-.8,4.48,4.48,0,0,0,.37.94,2.79,2.79,0,0,0,.5.36,5.71,5.71,0,0,0,5.14,0,3.44,3.44,0,0,0,.42-.29,5.15,5.15,0,0,0,.44-1A2.19,2.19,0,0,1,133.57,64.21Z"/><path class="cls-9" d="M131,46.44h0a.53.53,0,0,1-.54-.54l0-4.17a.54.54,0,0,1,.54-.54h0a.54.54,0,0,1,.54.54l0,4.17A.54.54,0,0,1,131,46.44Zm4.45.79,2.11-3.59a.55.55,0,0,0-.2-.75.54.54,0,0,0-.74.2l-2.11,3.59a.56.56,0,0,0,.2.75.52.52,0,0,0,.27.07A.55.55,0,0,0,135.44,47.23Zm2.72,3.11,3.62-2.06a.54.54,0,1,0-.53-.94l-3.63,2.06a.54.54,0,0,0,.54.94Zm-13.53-.24a.55.55,0,0,0-.19-.75l-3.58-2.14a.54.54,0,0,0-.56.93l3.58,2.14a.48.48,0,0,0,.28.08A.56.56,0,0,0,124.63,50.1Zm2.73-2.7a.53.53,0,0,0,.21-.74l-2-3.64a.54.54,0,0,0-1,.53l2,3.64a.55.55,0,0,0,.48.28A.48.48,0,0,0,127.36,47.4Z"/><g class="cls-10"><path class="cls-11" d="M143.51,69.77l-32,18.32a1,1,0,0,0,0,1.81l49.91,28.81a4.12,4.12,0,0,0,4.12,0l32.06-18.32a1.05,1.05,0,0,0,0-1.81L147.63,69.78A4.12,4.12,0,0,0,143.51,69.77Z"/><path class="cls-12" d="M143.54,69.8,111.59,88.07a1,1,0,0,0,0,1.79l49.76,28.73a4.13,4.13,0,0,0,4.11,0l32-18.27a1,1,0,0,0,0-1.8L147.65,69.81A4.11,4.11,0,0,0,143.54,69.8Z"/><path class="cls-13" d="M143.58,69.83,111.72,88a1,1,0,0,0,0,1.79l49.61,28.64a4.09,4.09,0,0,0,4.09,0l31.86-18.21a1,1,0,0,0,0-1.79L147.67,69.84A4.09,4.09,0,0,0,143.58,69.83Z"/><path class="cls-14" d="M143.61,69.86,111.85,88a1,1,0,0,0,0,1.79l49.45,28.55a4.1,4.1,0,0,0,4.08,0l31.76-18.16a1,1,0,0,0,0-1.78L147.69,69.87A4.07,4.07,0,0,0,143.61,69.86Z"/><path class="cls-15" d="M143.64,69.89,112,88a1,1,0,0,0,0,1.78l49.3,28.46a4.08,4.08,0,0,0,4.07,0L197,100.14a1,1,0,0,0,0-1.78L147.71,69.9A4.08,4.08,0,0,0,143.64,69.89Z"/><path class="cls-16" d="M143.68,69.92,112.11,88a1,1,0,0,0,0,1.78l49.15,28.37a4,4,0,0,0,4.05,0l31.57-18a1,1,0,0,0,0-1.78L147.74,69.93A4.06,4.06,0,0,0,143.68,69.92Z"/><path class="cls-17" d="M143.71,70l-31.47,18a1,1,0,0,0,0,1.77l49,28.29a4,4,0,0,0,4,0l31.47-18a1,1,0,0,0,0-1.77L147.76,70A4.07,4.07,0,0,0,143.71,70Z"/><path class="cls-18" d="M143.74,70,112.37,87.91a1,1,0,0,0,0,1.77l48.84,28.2a4,4,0,0,0,4,0L196.62,100a1,1,0,0,0,0-1.76L147.78,70A4,4,0,0,0,143.74,70Z"/><path class="cls-19" d="M143.78,70,112.5,87.88a1,1,0,0,0,0,1.76l48.69,28.12a4.06,4.06,0,0,0,4,0l31.28-17.88a1,1,0,0,0,0-1.76L147.8,70A4,4,0,0,0,143.78,70Z"/><path class="cls-20" d="M143.81,70,112.63,87.86a1,1,0,0,0,0,1.75l48.54,28a4,4,0,0,0,4,0l31.18-17.83a1,1,0,0,0,0-1.75L147.82,70A4,4,0,0,0,143.81,70Z"/><path class="cls-21" d="M143.84,70.07,112.77,87.83a1,1,0,0,0,0,1.75l48.39,27.94a4,4,0,0,0,4,0l31.08-17.77a1,1,0,0,0,0-1.75L147.84,70.07A4,4,0,0,0,143.84,70.07Z"/><path class="cls-22" d="M143.88,70.09l-31,17.72a1,1,0,0,0,0,1.74l48.24,27.85a4,4,0,0,0,4,0l31-17.71a1,1,0,0,0,0-1.75L147.86,70.1A4,4,0,0,0,143.88,70.09Z"/><path class="cls-23" d="M143.91,70.12,113,87.78a1,1,0,0,0,0,1.74l48.09,27.76a4,4,0,0,0,4,0L196,99.63a1,1,0,0,0,0-1.73L147.88,70.13A4,4,0,0,0,143.91,70.12Z"/><path class="cls-24" d="M144,70.15l-30.79,17.6a1,1,0,0,0,0,1.74l47.94,27.67a4,4,0,0,0,4,0l30.78-17.6a1,1,0,0,0,0-1.73L147.9,70.16A4,4,0,0,0,144,70.15Z"/><path class="cls-25" d="M144,70.18,113.29,87.73a1,1,0,0,0,0,1.72L161.07,117a3.93,3.93,0,0,0,3.94,0L195.7,99.51a1,1,0,0,0,0-1.73L147.92,70.19A4,4,0,0,0,144,70.18Z"/><path class="cls-26" d="M144,70.21,113.42,87.7a1,1,0,0,0,0,1.72l47.63,27.5a3.94,3.94,0,0,0,3.93,0l30.59-17.49a1,1,0,0,0,0-1.72l-47.64-27.5A4,4,0,0,0,144,70.21Z"/><path class="cls-27" d="M144.05,70.24l-30.5,17.44a1,1,0,0,0,0,1.71L161,116.8a3.92,3.92,0,0,0,3.92,0l30.49-17.43a1,1,0,0,0,0-1.72L148,70.25A4,4,0,0,0,144.05,70.24Z"/><path class="cls-28" d="M144.08,70.27l-30.4,17.38a1,1,0,0,0,0,1.71L161,116.68a3.88,3.88,0,0,0,3.9,0l30.4-17.37a1,1,0,0,0,0-1.71L148,70.28A3.93,3.93,0,0,0,144.08,70.27Z"/><path class="cls-29" d="M144.11,70.3l-30.3,17.32a1,1,0,0,0,0,1.71L161,116.57a3.93,3.93,0,0,0,3.9,0l30.3-17.32a1,1,0,0,0,0-1.7L148,70.31A3.93,3.93,0,0,0,144.11,70.3Z"/><path class="cls-30" d="M144.15,70.33,113.94,87.6a1,1,0,0,0,0,1.7l47,27.15a3.91,3.91,0,0,0,3.89,0l30.2-17.26a1,1,0,0,0,0-1.7L148,70.34A3.9,3.9,0,0,0,144.15,70.33Z"/><path class="cls-31" d="M144.18,70.36,114.07,87.57a1,1,0,0,0,0,1.7l46.87,27.06a3.9,3.9,0,0,0,3.87,0l30.11-17.21a1,1,0,0,0,0-1.7L148.05,70.37A3.9,3.9,0,0,0,144.18,70.36Z"/><path class="cls-32" d="M144.21,70.39l-30,17.16a1,1,0,0,0,0,1.68l46.72,27a3.88,3.88,0,0,0,3.86,0l30-17.16a1,1,0,0,0,0-1.69l-46.72-27A3.88,3.88,0,0,0,144.21,70.39Z"/><path class="cls-33" d="M144.25,70.42l-29.91,17.1a1,1,0,0,0,0,1.68l46.57,26.89a3.89,3.89,0,0,0,3.85,0L194.65,99a1,1,0,0,0,0-1.68L148.09,70.43A3.84,3.84,0,0,0,144.25,70.42Z"/><path class="cls-34" d="M144.28,70.45l-29.81,17a1,1,0,0,0,0,1.68L160.88,116a3.85,3.85,0,0,0,3.83,0l29.81-17a1,1,0,0,0,0-1.68l-46.42-26.8A3.85,3.85,0,0,0,144.28,70.45Z"/><path class="cls-35" d="M144.31,70.48l-29.71,17a1,1,0,0,0,0,1.67l46.27,26.71a3.83,3.83,0,0,0,3.82,0l29.71-17a1,1,0,0,0,0-1.67L148.13,70.49A3.83,3.83,0,0,0,144.31,70.48Z"/><path class="cls-36" d="M144.35,70.51,114.73,87.44a1,1,0,0,0,0,1.67l46.11,26.62a3.84,3.84,0,0,0,3.81,0l29.61-16.93a1,1,0,0,0,0-1.67L148.15,70.52A3.82,3.82,0,0,0,144.35,70.51Z"/><path class="cls-37" d="M144.38,70.54,114.86,87.41a1,1,0,0,0,0,1.67l46,26.53a3.8,3.8,0,0,0,3.79,0l29.52-16.87a1,1,0,0,0,0-1.67l-46-26.53A3.8,3.8,0,0,0,144.38,70.54Z"/><path class="cls-38" d="M144.41,70.57,115,87.39A1,1,0,0,0,115,89l45.81,26.45a3.78,3.78,0,0,0,3.78,0L194,98.68A1,1,0,0,0,194,97L148.19,70.58A3.78,3.78,0,0,0,144.41,70.57Z"/><path class="cls-39" d="M144.45,70.6,115.12,87.36a1,1,0,0,0,0,1.65l45.66,26.36a3.74,3.74,0,0,0,3.76,0l29.33-16.76a1,1,0,0,0,0-1.65L148.22,70.61A3.79,3.79,0,0,0,144.45,70.6Z"/><path class="cls-40" d="M144.48,70.63,115.25,87.34a1,1,0,0,0,0,1.64l45.5,26.27a3.77,3.77,0,0,0,3.76,0l29.23-16.7a1,1,0,0,0,0-1.65l-45.5-26.27A3.77,3.77,0,0,0,144.48,70.63Z"/><path class="cls-41" d="M144.51,70.66,115.38,87.31a1,1,0,0,0,0,1.64l45.35,26.19a3.77,3.77,0,0,0,3.75,0l29.13-16.65a1,1,0,0,0,0-1.64L148.26,70.67A3.77,3.77,0,0,0,144.51,70.66Z"/><path class="cls-42" d="M144.55,70.69l-29,16.59a1,1,0,0,0,0,1.64l45.2,26.1a3.74,3.74,0,0,0,3.73,0l29-16.59a1,1,0,0,0,0-1.64L148.28,70.7A3.74,3.74,0,0,0,144.55,70.69Z"/><path class="cls-43" d="M144.58,70.72,115.65,87.26a.94.94,0,0,0,0,1.63l45.05,26a3.74,3.74,0,0,0,3.72,0l28.94-16.54a.93.93,0,0,0,0-1.62l-45-26A3.72,3.72,0,0,0,144.58,70.72Z"/><path class="cls-44" d="M144.61,70.75,115.78,87.23a.94.94,0,0,0,0,1.63l44.9,25.92a3.75,3.75,0,0,0,3.71,0L193.21,98.3a.93.93,0,0,0,0-1.62l-44.9-25.92A3.7,3.7,0,0,0,144.61,70.75Z"/><path class="cls-45" d="M144.65,70.78,115.91,87.21a.93.93,0,0,0,0,1.61l44.75,25.84a3.71,3.71,0,0,0,3.69,0l28.74-16.43a.93.93,0,0,0,0-1.62L148.34,70.79A3.69,3.69,0,0,0,144.65,70.78Z"/><path class="cls-46" d="M144.68,70.81,116,87.18a.93.93,0,0,0,0,1.61l44.59,25.75a3.69,3.69,0,0,0,3.68,0L193,98.17a.93.93,0,0,0,0-1.61l-44.6-25.74A3.69,3.69,0,0,0,144.68,70.81Z"/><path class="cls-47" d="M144.71,70.84,116.17,87.15a.93.93,0,0,0,0,1.61l44.44,25.66a3.67,3.67,0,0,0,3.67,0l28.54-16.32a.93.93,0,0,0,0-1.61L148.38,70.85A3.67,3.67,0,0,0,144.71,70.84Z"/><path class="cls-48" d="M144.75,70.87,116.3,87.13a.92.92,0,0,0,0,1.6l44.29,25.57a3.66,3.66,0,0,0,3.65,0l28.45-16.26a.92.92,0,0,0,0-1.6L148.4,70.88A3.64,3.64,0,0,0,144.75,70.87Z"/><path class="cls-49" d="M144.78,70.9,116.43,87.1a.92.92,0,0,0,0,1.6l44.14,25.48a3.64,3.64,0,0,0,3.64,0L192.56,98a.91.91,0,0,0,0-1.59L148.42,70.9A3.64,3.64,0,0,0,144.78,70.9Z"/><path class="cls-50" d="M144.81,70.93,116.56,87.08a.92.92,0,0,0,0,1.59l44,25.39a3.65,3.65,0,0,0,3.63,0l28.25-16.15a.92.92,0,0,0,0-1.59l-44-25.4A3.67,3.67,0,0,0,144.81,70.93Z"/><path class="cls-51" d="M144.85,71,116.69,87.05a.91.91,0,0,0,0,1.58l43.84,25.31a3.61,3.61,0,0,0,3.61,0L192.3,97.86a.92.92,0,0,0,0-1.59L148.47,71A3.65,3.65,0,0,0,144.85,71Z"/><path class="cls-5" d="M144.88,71,116.82,87a.91.91,0,0,0,0,1.58l43.68,25.22a3.61,3.61,0,0,0,3.61,0l28.06-16a.91.91,0,0,0,0-1.58L148.49,71A3.63,3.63,0,0,0,144.88,71Z"/></g><path class="cls-52" d="M196.77,56.37,148.36,28.42a1,1,0,0,0-1.47.85V65.75A2.12,2.12,0,0,0,148,67.6l48.42,28a1,1,0,0,0,1.47-.85V58.22A2.13,2.13,0,0,0,196.77,56.37Z"/><path class="cls-5" d="M196.15,56.79,147.73,28.84a1,1,0,0,0-1.47.85V66.17A2.14,2.14,0,0,0,147.33,68l48.41,28a1,1,0,0,0,1.47-.85V58.63A2.12,2.12,0,0,0,196.15,56.79Z"/><polygon class="cls-53" points="194.34 59.09 148.79 32.64 148.79 66.01 194.34 92.47 194.34 59.09"/><path class="cls-54" d="M144.3,69.78l-31,16.35s-.17,2.42.49,2.8l47.5,27.43a3.92,3.92,0,0,0,3.92,0l30.51-17.44c1.26-.78.49-2.8.49-2.8l-48-26.34A3.92,3.92,0,0,0,144.3,69.78Z"/><path class="cls-2" d="M144.3,67.9,113.79,85.34a1,1,0,0,0,0,1.71l47.5,27.43a4,4,0,0,0,3.92,0l30.51-17.44a1,1,0,0,0,0-1.72l-47.5-27.42A3.92,3.92,0,0,0,144.3,67.9Z"/><path class="cls-55" d="M141.59,90.48l-8,4.6a.26.26,0,0,0,0,.45l12.52,7.23a1.07,1.07,0,0,0,1,0l8-4.6a.26.26,0,0,0,0-.45l-12.52-7.23A1.07,1.07,0,0,0,141.59,90.48Z"/><path class="cls-55" d="M147.66,70.56l2.63,1.52a.15.15,0,0,1,0,.27l-1.3.75a.34.34,0,0,1-.34,0L146,71.58a.15.15,0,0,1,0-.27l1.3-.75A.34.34,0,0,1,147.66,70.56Z"/><path class="cls-55" d="M151.51,72.86l2.63,1.51a.16.16,0,0,1,0,.28l-1.3.75a.34.34,0,0,1-.34,0l-2.63-1.52a.16.16,0,0,1,0-.27l1.31-.75A.32.32,0,0,1,151.51,72.86Z"/><path class="cls-55" d="M155.38,75,158,76.55a.16.16,0,0,1,0,.27l-1.31.75a.34.34,0,0,1-.34,0l-2.62-1.52a.15.15,0,0,1,0-.27L155,75A.34.34,0,0,1,155.38,75Z"/><path class="cls-55" d="M159.36,77.27,162,78.79a.16.16,0,0,1,0,.27l-1.31.75a.33.33,0,0,1-.33,0l-2.63-1.52a.15.15,0,0,1,0-.27l1.3-.75A.34.34,0,0,1,159.36,77.27Z"/><path class="cls-55" d="M163.19,79.4l2.63,1.52a.16.16,0,0,1,0,.27l-1.31.75a.34.34,0,0,1-.34,0l-2.63-1.51a.17.17,0,0,1,0-.28l1.31-.75A.34.34,0,0,1,163.19,79.4Z"/><path class="cls-55" d="M166.91,81.7l2.62,1.52a.15.15,0,0,1,0,.27l-1.3.75a.34.34,0,0,1-.34,0l-2.63-1.52a.16.16,0,0,1,0-.27l1.31-.75A.34.34,0,0,1,166.91,81.7Z"/><path class="cls-55" d="M170.8,83.85l2.63,1.51a.16.16,0,0,1,0,.27l-1.31.76a.32.32,0,0,1-.34,0l-2.62-1.51a.15.15,0,0,1,0-.27l1.3-.75A.32.32,0,0,1,170.8,83.85Z"/><path class="cls-55" d="M174.64,86.13l2.62,1.52a.15.15,0,0,1,0,.27l-1.3.75a.34.34,0,0,1-.34,0L173,87.15a.16.16,0,0,1,0-.27l1.31-.75A.34.34,0,0,1,174.64,86.13Z"/><path class="cls-55" d="M178.41,88.36,181,89.87a.16.16,0,0,1,0,.27l-1.31.76a.32.32,0,0,1-.34,0l-2.63-1.51a.16.16,0,0,1,0-.27l1.31-.75A.34.34,0,0,1,178.41,88.36Z"/><path class="cls-55" d="M182.38,90.65,185,92.16a.16.16,0,0,1,0,.28l-1.3.75a.34.34,0,0,1-.34,0l-2.63-1.52a.16.16,0,0,1,0-.27l1.31-.75A.32.32,0,0,1,182.38,90.65Z"/><path class="cls-55" d="M186.25,92.81l2.63,1.52a.16.16,0,0,1,0,.27l-1.3.75a.34.34,0,0,1-.34,0l-2.63-1.51a.17.17,0,0,1,0-.28l1.31-.75A.34.34,0,0,1,186.25,92.81Z"/><path class="cls-55" d="M142.32,73.42l1.78-1a.72.72,0,0,1,.75,0l1.74,1a.37.37,0,0,1,0,.64l-1.73,1.06a.74.74,0,0,1-.76,0l-1.78-1A.37.37,0,0,1,142.32,73.42Z"/><path class="cls-55" d="M146.3,75.72l1.78-1a.77.77,0,0,1,.75,0l1.74,1a.36.36,0,0,1,0,.63l-1.73,1.06a.72.72,0,0,1-.76,0l-1.78-1A.37.37,0,0,1,146.3,75.72Z"/><path class="cls-55" d="M150.17,77.89l1.79-1a.73.73,0,0,1,.74,0l1.74,1a.36.36,0,0,1,0,.63l-1.73,1.07a.76.76,0,0,1-.76,0l-1.78-1A.37.37,0,0,1,150.17,77.89Z"/><path class="cls-55" d="M154.29,80.13l1.78-1a.72.72,0,0,1,.75,0l1.74,1a.37.37,0,0,1,0,.64l-1.73,1.06a.74.74,0,0,1-.76,0l-1.78-1A.37.37,0,0,1,154.29,80.13Z"/><path class="cls-55" d="M157.92,82.26l1.78-1a.75.75,0,0,1,.75,0l1.74,1a.37.37,0,0,1,0,.64l-1.73,1.06a.74.74,0,0,1-.76,0l-1.79-1A.37.37,0,0,1,157.92,82.26Z"/><path class="cls-55" d="M161.61,84.55l1.78-1a.77.77,0,0,1,.75,0l1.74,1a.37.37,0,0,1,0,.63l-1.72,1.06a.74.74,0,0,1-.77,0l-1.78-1A.37.37,0,0,1,161.61,84.55Z"/><path class="cls-55" d="M165.55,86.7l1.78-1a.77.77,0,0,1,.75,0l1.74,1a.37.37,0,0,1,0,.64l-1.73,1.06a.72.72,0,0,1-.76,0l-1.78-1A.38.38,0,0,1,165.55,86.7Z"/><path class="cls-55" d="M169.4,88.89l1.78-1a.72.72,0,0,1,.75,0l1.74,1a.37.37,0,0,1,0,.64L172,90.55a.76.76,0,0,1-.76,0l-1.79-1A.37.37,0,0,1,169.4,88.89Z"/><path class="cls-55" d="M173.19,91.22l1.78-1a.77.77,0,0,1,.75,0l1.74,1a.37.37,0,0,1,0,.64l-1.73,1.06a.72.72,0,0,1-.76,0l-1.79-1A.37.37,0,0,1,173.19,91.22Z"/><path class="cls-55" d="M177.32,93.65l1.78-1.05a.77.77,0,0,1,.75,0l1.74,1a.37.37,0,0,1,0,.63l-1.73,1.06a.74.74,0,0,1-.76,0l-1.79-1A.37.37,0,0,1,177.32,93.65Z"/><path class="cls-55" d="M181.06,95.67l1.78-1a.72.72,0,0,1,.75,0l1.73,1a.37.37,0,0,1,0,.64l-1.73,1.06a.74.74,0,0,1-.76,0l-1.78-1A.37.37,0,0,1,181.06,95.67Z"/><path class="cls-55" d="M138.35,75.58l1.78-1a.75.75,0,0,1,.75,0l1.74,1a.37.37,0,0,1,0,.64l-1.73,1.06a.76.76,0,0,1-.76,0l-1.79-1A.37.37,0,0,1,138.35,75.58Z"/><path class="cls-55" d="M142.34,77.87l1.78-1a.75.75,0,0,1,.75,0l1.73,1a.37.37,0,0,1,0,.64l-1.73,1.06a.74.74,0,0,1-.76,0l-1.78-1A.37.37,0,0,1,142.34,77.87Z"/><path class="cls-55" d="M146.21,80.05,148,79a.77.77,0,0,1,.75,0l1.74,1a.37.37,0,0,1,0,.63l-1.73,1.06a.72.72,0,0,1-.76,0l-1.78-1A.37.37,0,0,1,146.21,80.05Z"/><path class="cls-55" d="M150.32,82.29l1.79-1a.73.73,0,0,1,.74,0l1.74,1a.36.36,0,0,1,0,.63L152.87,84a.76.76,0,0,1-.76,0l-1.78-1A.37.37,0,0,1,150.32,82.29Z"/><path class="cls-55" d="M154,84.42l1.78-1a.72.72,0,0,1,.75,0l1.74,1a.37.37,0,0,1,0,.64l-1.73,1.06a.74.74,0,0,1-.76,0l-1.78-1A.37.37,0,0,1,154,84.42Z"/><path class="cls-55" d="M157.64,86.7l1.78-1a.75.75,0,0,1,.75,0l1.74,1a.37.37,0,0,1,0,.64l-1.73,1.06a.74.74,0,0,1-.76,0l-1.79-1A.37.37,0,0,1,157.64,86.7Z"/><path class="cls-55" d="M161.58,88.86l1.78-1a.72.72,0,0,1,.75,0l1.74,1a.37.37,0,0,1,0,.64l-1.73,1.06a.74.74,0,0,1-.76,0l-1.79-1A.37.37,0,0,1,161.58,88.86Z"/><path class="cls-55" d="M165.43,91.05l1.78-1a.75.75,0,0,1,.75,0l1.74,1a.36.36,0,0,1,0,.63L168,92.71a.76.76,0,0,1-.76,0l-1.78-1A.37.37,0,0,1,165.43,91.05Z"/><path class="cls-55" d="M169.22,93.37l1.79-1a.7.7,0,0,1,.74,0l1.74,1a.37.37,0,0,1,0,.64L171.77,95a.74.74,0,0,1-.76,0l-1.78-1A.37.37,0,0,1,169.22,93.37Z"/><path class="cls-55" d="M173.35,95.8l1.78-1a.77.77,0,0,1,.75,0l1.74,1a.37.37,0,0,1,0,.64l-1.73,1.06a.72.72,0,0,1-.76,0l-1.78-1A.38.38,0,0,1,173.35,95.8Z"/><path class="cls-55" d="M177.09,97.83l1.78-1a.72.72,0,0,1,.75,0l1.74,1a.38.38,0,0,1,0,.64l-1.73,1.06a.76.76,0,0,1-.77,0l-1.78-1A.37.37,0,0,1,177.09,97.83Z"/><path class="cls-55" d="M134.38,77.74l1.78-1a.77.77,0,0,1,.75,0l1.74,1a.37.37,0,0,1,0,.63l-1.73,1.06a.74.74,0,0,1-.76,0l-1.79-1A.37.37,0,0,1,134.38,77.74Z"/><path class="cls-55" d="M138.37,80l1.78-1a.72.72,0,0,1,.75,0l1.74,1a.38.38,0,0,1,0,.64l-1.73,1.06a.76.76,0,0,1-.77,0l-1.78-1A.37.37,0,0,1,138.37,80Z"/><path class="cls-55" d="M142.24,82.2l1.78-1a.75.75,0,0,1,.75,0l1.74,1a.37.37,0,0,1,0,.64l-1.73,1.06a.74.74,0,0,1-.76,0l-1.79-1A.37.37,0,0,1,142.24,82.2Z"/><path class="cls-55" d="M146.36,84.45l1.78-1a.77.77,0,0,1,.75,0l1.74,1a.37.37,0,0,1,0,.63l-1.73,1.06a.74.74,0,0,1-.77,0l-1.78-1A.37.37,0,0,1,146.36,84.45Z"/><path class="cls-55" d="M150,86.58l1.78-1a.74.74,0,0,1,.75,0l1.73,1a.36.36,0,0,1,0,.63l-1.73,1.07a.76.76,0,0,1-.76,0l-1.78-1A.37.37,0,0,1,150,86.58Z"/><path class="cls-55" d="M153.67,88.86l1.78-1a.72.72,0,0,1,.75,0l1.74,1a.37.37,0,0,1,0,.64l-1.73,1.06a.74.74,0,0,1-.76,0l-1.79-1A.37.37,0,0,1,153.67,88.86Z"/><path class="cls-55" d="M157.61,91l1.78-1a.72.72,0,0,1,.75,0l1.74,1a.37.37,0,0,1,0,.64l-1.73,1.06a.76.76,0,0,1-.76,0l-1.79-1A.37.37,0,0,1,157.61,91Z"/><path class="cls-55" d="M161.47,93.21l1.78-1a.77.77,0,0,1,.75,0l1.74,1a.37.37,0,0,1,0,.64L164,94.86a.72.72,0,0,1-.76,0l-1.78-1A.37.37,0,0,1,161.47,93.21Z"/><path class="cls-55" d="M165.26,95.53l1.78-1a.72.72,0,0,1,.75,0l1.74,1a.37.37,0,0,1,0,.64l-1.73,1.06a.76.76,0,0,1-.76,0l-1.78-1A.37.37,0,0,1,165.26,95.53Z"/><path class="cls-55" d="M169.39,98l1.78-1a.72.72,0,0,1,.75,0l1.74,1a.37.37,0,0,1,0,.64l-1.73,1.06a.74.74,0,0,1-.76,0l-1.78-1A.37.37,0,0,1,169.39,98Z"/><path class="cls-55" d="M173.12,100l1.78-1a.75.75,0,0,1,.75,0l1.74,1a.37.37,0,0,1,0,.63l-1.73,1.07a.76.76,0,0,1-.76,0l-1.79-1A.37.37,0,0,1,173.12,100Z"/><path class="cls-55" d="M130.41,79.89l1.78-1a.77.77,0,0,1,.75,0l1.74,1a.37.37,0,0,1,0,.64L133,81.55a.74.74,0,0,1-.76,0l-1.78-1A.38.38,0,0,1,130.41,79.89Z"/><path class="cls-55" d="M134.4,82.19l1.78-1a.75.75,0,0,1,.75,0l1.74,1a.37.37,0,0,1,0,.63L137,83.85a.76.76,0,0,1-.76,0l-1.79-1A.37.37,0,0,1,134.4,82.19Z"/><path class="cls-55" d="M138.27,84.36l1.78-1a.72.72,0,0,1,.75,0l1.74,1a.37.37,0,0,1,0,.64L140.82,86a.74.74,0,0,1-.76,0l-1.79-1A.37.37,0,0,1,138.27,84.36Z"/><path class="cls-55" d="M142.39,86.6l1.78-1a.77.77,0,0,1,.75,0l1.74,1a.37.37,0,0,1,0,.64l-1.73,1.06a.74.74,0,0,1-.76,0l-1.79-1A.38.38,0,0,1,142.39,86.6Z"/><path class="cls-55" d="M146.36,89l1.78-1a.72.72,0,0,1,.75,0l9.05,5.23a.37.37,0,0,1,0,.63l-1.73,1.07a.76.76,0,0,1-.76,0l-9.1-5.26A.37.37,0,0,1,146.36,89Z"/><path class="cls-55" d="M157.5,95.36l1.78-1a.75.75,0,0,1,.75,0l1.74,1a.37.37,0,0,1,0,.64L160.05,97a.74.74,0,0,1-.76,0l-1.79-1A.37.37,0,0,1,157.5,95.36Z"/><path class="cls-55" d="M161.29,97.69l1.78-1a.75.75,0,0,1,.75,0l1.74,1a.37.37,0,0,1,0,.63l-1.73,1.07a.76.76,0,0,1-.76,0l-1.79-1A.37.37,0,0,1,161.29,97.69Z"/><path class="cls-55" d="M165.42,100.12l1.78-1a.75.75,0,0,1,.75,0l1.74,1a.37.37,0,0,1,0,.64L168,101.78a.78.78,0,0,1-.77,0l-1.78-1A.37.37,0,0,1,165.42,100.12Z"/><path class="cls-55" d="M169.15,102.15l1.78-1.05a.77.77,0,0,1,.75,0l1.74,1a.37.37,0,0,1,0,.63l-1.73,1.06a.72.72,0,0,1-.76,0l-1.78-1A.37.37,0,0,1,169.15,102.15Z"/><path class="cls-56" d="M189.79,40.24a2,2,0,0,0-.89-1.55L153.49,18.14a.67.67,0,0,0-.66,0l-.56.28.26,48.21a2,2,0,0,0,.88,1.54l35.83,21.3.55.32Z"/><path class="cls-2" d="M189.24,40.64a2,2,0,0,0-.89-1.54L152.86,18.49c-.48-.28-.88,0-.88.51V67.82l37.26,21.64Z"/><path class="cls-57" d="M188.35,39.1,152.86,18.49c-.48-.28-.88,0-.88.51v2.32L189.24,43V40.64A2,2,0,0,0,188.35,39.1Z"/><path class="cls-2" d="M154,20.44c-.16-.1-.29,0-.29.16a.63.63,0,0,0,.29.5c.16.1.29,0,.29-.16A.63.63,0,0,0,154,20.44Z"/><path class="cls-2" d="M155.21,21.18a.18.18,0,0,0-.29.17.64.64,0,0,0,.29.5c.16.09.29,0,.29-.17A.64.64,0,0,0,155.21,21.18Z"/><path class="cls-2" d="M156.47,21.93c-.16-.09-.29,0-.29.17a.64.64,0,0,0,.29.5c.16.09.29,0,.29-.17A.64.64,0,0,0,156.47,21.93Z"/><polygon class="cls-58" points="154.91 26.94 154.91 41.04 186.02 58.95 186.02 44.93 154.91 26.94"/><polygon class="cls-2" points="165.6 35.1 165.6 36.18 184.61 47.2 184.61 46.13 165.6 35.1"/><polygon class="cls-53" points="154.86 58.97 154.86 60.05 186.02 78.15 186.02 77.08 154.86 58.97"/><polygon class="cls-53" points="154.86 61.9 154.86 62.98 186.02 81.08 186.02 80.01 154.86 61.9"/><polygon class="cls-53" points="154.86 64.97 154.86 66.06 186.02 84.16 186.02 83.08 154.86 64.97"/><polygon class="cls-2" points="165.6 38.03 165.6 39.11 184.61 50.13 184.61 49.06 165.6 38.03"/><polygon class="cls-2" points="165.6 40.96 165.6 42.04 184.61 53.06 184.61 51.99 165.6 40.96"/><polygon class="cls-2" points="165.6 43.89 165.6 44.97 174.5 50.13 174.5 49.06 165.6 43.89"/><polygon class="cls-53" points="154.91 42.94 154.91 54.19 163.85 59.46 163.85 48.29 154.91 42.94"/><polygon class="cls-53" points="177.07 55.98 177.07 67.23 186.02 72.5 186.02 61.32 177.07 55.98"/><path class="cls-2" d="M159.8,32c-2.27-1.31-4.12-.23-4.12,2.39a9.17,9.17,0,0,0,4.13,7.16c2.27,1.31,4.12.23,4.12-2.4A9.22,9.22,0,0,0,159.8,32Z"/><polygon class="cls-2" points="159.57 51.24 163.85 48.45 163.85 48.29 163.7 48.2 159.43 50.99 155.16 43.09 154.91 42.94 154.91 43.25 159.18 51.15 154.91 53.93 154.91 54.19 154.98 54.23 159.32 51.41 163.6 59.31 163.85 59.46 163.85 59.16 159.57 51.24"/><polygon class="cls-2" points="186.02 61.32 185.98 61.3 181.63 64.14 177.28 56.1 177.07 55.98 177.07 56.34 181.38 64.3 177.07 67.11 177.07 67.23 177.26 67.34 181.52 64.56 185.72 72.32 186.02 72.5 186.02 72.26 181.76 64.4 186.02 61.63 186.02 61.32"/><polygon class="cls-59" points="166.43 50.01 166.43 61.26 175.37 66.53 175.37 55.35 166.43 50.01"/><polygon class="cls-59" points="164.15 50.74 164.15 61.99 173.09 67.26 173.09 56.09 164.15 50.74"/><polygon class="cls-60" points="161.56 52.94 160.97 53.09 161.56 64.19 169.91 69.61 170.5 69.46 170.5 58.28 161.56 52.94"/><polygon class="cls-58" points="160.97 53.09 160.97 64.33 169.91 69.61 169.91 58.43 160.97 53.09"/><path class="cls-58" d="M160.52,36.61a.8.8,0,0,0,.25-.65,2.38,2.38,0,0,0-1.06-1.84c-.58-.33-1.06-.06-1.06.62a2.27,2.27,0,0,0,.55,1.38,1.71,1.71,0,0,0-1,1.54v.43l3.16,1.85v-.86A4,4,0,0,0,160.52,36.61Z"/><g class="cls-10"><path class="cls-11" d="M162.19,126.9a1.18,1.18,0,0,1,0-2.23l55.49-32a4.22,4.22,0,0,1,3.88,0l5.22,3.11a1.21,1.21,0,0,1,0,2.28L171.49,130a4.35,4.35,0,0,1-3.9,0Z"/><path class="cls-12" d="M162.25,126.88a1.18,1.18,0,0,1,0-2.23l55.4-32a4.23,4.23,0,0,1,3.87,0l5.2,3.1a1.21,1.21,0,0,1,0,2.27l-55.19,31.87a4.33,4.33,0,0,1-3.89,0Z"/><path class="cls-13" d="M162.31,126.85a1.17,1.17,0,0,1,0-2.22l55.32-32a4.22,4.22,0,0,1,3.85,0l5.18,3.09a1.2,1.2,0,0,1,0,2.26l-55.11,31.84a4.35,4.35,0,0,1-3.87,0Z"/><path class="cls-14" d="M162.37,126.82a1.17,1.17,0,0,1,0-2.21L217.6,92.69a4.2,4.2,0,0,1,3.84,0l5.16,3.08a1.2,1.2,0,0,1,0,2.25l-55,31.8a4.33,4.33,0,0,1-3.86,0Z"/><path class="cls-15" d="M162.43,126.79a1.16,1.16,0,0,1,0-2.2l55.14-31.88a4.18,4.18,0,0,1,3.83,0l5.14,3.07a1.19,1.19,0,0,1,0,2.24l-54.94,31.76a4.29,4.29,0,0,1-3.84,0Z"/><path class="cls-16" d="M162.49,126.76a1.16,1.16,0,0,1,0-2.19l55.06-31.84a4.17,4.17,0,0,1,3.8,0l5.13,3.06a1.18,1.18,0,0,1,0,2.23l-54.85,31.72a4.3,4.3,0,0,1-3.83,0Z"/><path class="cls-17" d="M162.55,126.73a1.15,1.15,0,0,1,0-2.18l55-31.8a4.15,4.15,0,0,1,3.79,0l5.11,3a1.18,1.18,0,0,1,0,2.22l-54.77,31.68a4.26,4.26,0,0,1-3.81,0Z"/><path class="cls-18" d="M162.61,126.71a1.15,1.15,0,0,1,0-2.18L217.5,92.77a4.11,4.11,0,0,1,3.77,0l5.09,3a1.17,1.17,0,0,1,0,2.21l-54.68,31.64a4.27,4.27,0,0,1-3.8,0Z"/><path class="cls-19" d="M162.67,126.68a1.14,1.14,0,0,1,0-2.17l54.8-31.72a4.12,4.12,0,0,1,3.76,0l5.07,3a1.17,1.17,0,0,1,0,2.21L171.7,129.65a4.25,4.25,0,0,1-3.79,0Z"/><path class="cls-20" d="M162.73,126.65a1.14,1.14,0,0,1,0-2.16l54.71-31.67a4.1,4.1,0,0,1,3.75,0l5.05,3a1.17,1.17,0,0,1,0,2.2l-54.51,31.55a4.2,4.2,0,0,1-3.77,0Z"/><path class="cls-21" d="M162.79,126.62a1.13,1.13,0,0,1,0-2.15l54.63-31.63a4.06,4.06,0,0,1,3.73,0l5,3a1.16,1.16,0,0,1,0,2.19l-54.42,31.51a4.21,4.21,0,0,1-3.76,0Z"/><path class="cls-22" d="M162.85,126.59a1.13,1.13,0,0,1,0-2.14l54.54-31.59a4.07,4.07,0,0,1,3.72,0l5,3a1.16,1.16,0,0,1,0,2.19l-54.34,31.47a4.17,4.17,0,0,1-3.74,0Z"/><path class="cls-23" d="M162.91,126.57a1.13,1.13,0,0,1,0-2.14l54.45-31.55a4.08,4.08,0,0,1,3.71,0l5,3a1.16,1.16,0,0,1,0,2.18L171.8,129.49a4.15,4.15,0,0,1-3.73,0Z"/><path class="cls-24" d="M163,126.54a1.12,1.12,0,0,1,0-2.13L217.34,92.9a4,4,0,0,1,3.69,0l5,3a1.15,1.15,0,0,1,0,2.17l-54.17,31.39a4.14,4.14,0,0,1-3.71,0Z"/><path class="cls-25" d="M163,126.51a1.12,1.12,0,0,1,0-2.12l54.28-31.47A4,4,0,0,1,221,93l4.95,3a1.15,1.15,0,0,1,0,2.16l-54.08,31.35a4.12,4.12,0,0,1-3.7,0Z"/><path class="cls-26" d="M163.09,126.48a1.11,1.11,0,0,1,0-2.11l54.2-31.43A4,4,0,0,1,221,93l4.93,2.94a1.14,1.14,0,0,1,0,2.15l-54,31.31a4.11,4.11,0,0,1-3.68,0Z"/><path class="cls-27" d="M163.15,126.45a1.11,1.11,0,0,1,0-2.1L217.26,93a4,4,0,0,1,3.65,0l4.91,2.93a1.14,1.14,0,0,1,0,2.14L171.9,129.33a4.09,4.09,0,0,1-3.67,0Z"/><path class="cls-28" d="M163.21,126.42a1.1,1.1,0,0,1,0-2.09l54-31.35a4,4,0,0,1,3.64,0l4.89,2.92a1.13,1.13,0,0,1,0,2.13l-53.82,31.23a4.07,4.07,0,0,1-3.66,0Z"/><path class="cls-29" d="M163.27,126.4a1.1,1.1,0,0,1,0-2.09L217.21,93a4,4,0,0,1,3.62,0l4.87,2.91a1.13,1.13,0,0,1,0,2.12L172,129.25a4.06,4.06,0,0,1-3.64,0Z"/><path class="cls-30" d="M163.33,126.37a1.1,1.1,0,0,1,0-2.08L217.18,93a3.94,3.94,0,0,1,3.6,0l4.86,2.9a1.12,1.12,0,0,1,0,2.11L172,129.21a4,4,0,0,1-3.63,0Z"/><path class="cls-31" d="M163.39,126.34a1.09,1.09,0,0,1,0-2.07L217.15,93a3.92,3.92,0,0,1,3.59,0L225.58,96a1.11,1.11,0,0,1,0,2.1L172,129.17a4,4,0,0,1-3.61,0Z"/><path class="cls-32" d="M163.45,126.31a1.09,1.09,0,0,1,0-2.06l53.68-31.19a3.91,3.91,0,0,1,3.57,0L225.52,96a1.11,1.11,0,0,1,0,2.09L172,129.13a4,4,0,0,1-3.6,0Z"/><path class="cls-33" d="M163.51,126.28a1.08,1.08,0,0,1,0-2L217.1,93.09a3.89,3.89,0,0,1,3.56,0l4.8,2.86a1.11,1.11,0,0,1,0,2.09l-53.4,31a4,4,0,0,1-3.58,0Z"/><path class="cls-34" d="M163.57,126.25a1.08,1.08,0,0,1,0-2l53.5-31.1a3.87,3.87,0,0,1,3.55,0L225.4,96a1.11,1.11,0,0,1,0,2.09l-53.31,31a4,4,0,0,1-3.57,0Z"/><path class="cls-35" d="M163.63,126.23a1.08,1.08,0,0,1,0-2l53.42-31.06a3.86,3.86,0,0,1,3.53,0L225.34,96a1.11,1.11,0,0,1,0,2.08L172.1,129a4,4,0,0,1-3.55,0Z"/><path class="cls-36" d="M163.7,126.2a1.07,1.07,0,0,1,0-2l53.33-31a3.87,3.87,0,0,1,3.52,0L225.28,96a1.1,1.1,0,0,1,0,2.07L172.13,129a4,4,0,0,1-3.54,0Z"/><path class="cls-37" d="M163.76,126.17a1.06,1.06,0,0,1,0-2l53.25-31a3.83,3.83,0,0,1,3.5,0L225.22,96a1.1,1.1,0,0,1,0,2.06l-53.05,30.87a4,4,0,0,1-3.53,0Z"/><path class="cls-38" d="M163.82,126.14a1.06,1.06,0,0,1,0-2L217,93.19a3.8,3.8,0,0,1,3.49,0l4.7,2.81a1.09,1.09,0,0,1,0,2l-53,30.83a3.94,3.94,0,0,1-3.51,0Z"/><path class="cls-39" d="M163.88,126.11a1.05,1.05,0,0,1,0-2l53.07-30.9a3.81,3.81,0,0,1,3.48,0L225.1,96a1.08,1.08,0,0,1,0,2l-52.88,30.79a3.92,3.92,0,0,1-3.5,0Z"/><path class="cls-40" d="M163.94,126.09a1.05,1.05,0,0,1,0-2l53-30.86a3.77,3.77,0,0,1,3.46,0L225,96a1.08,1.08,0,0,1,0,2l-52.8,30.75a3.91,3.91,0,0,1-3.48,0Z"/><path class="cls-41" d="M164,126.06a1,1,0,0,1,0-2l52.9-30.82a3.75,3.75,0,0,1,3.45,0L225,96.05a1.07,1.07,0,0,1,0,2l-52.71,30.71a3.89,3.89,0,0,1-3.47,0Z"/><path class="cls-42" d="M164.06,126a1,1,0,0,1,0-2l52.81-30.78a3.79,3.79,0,0,1,3.44,0l4.62,2.76a1.07,1.07,0,0,1,0,2l-52.63,30.67a3.84,3.84,0,0,1-3.45,0Z"/><path class="cls-43" d="M164.12,126a1,1,0,0,1,0-2l52.73-30.74a3.75,3.75,0,0,1,3.42,0l4.6,2.75a1.06,1.06,0,0,1,0,2L172.31,128.7a3.85,3.85,0,0,1-3.44,0Z"/><path class="cls-44" d="M164.18,126a1,1,0,0,1,0-2l52.64-30.7a3.71,3.71,0,0,1,3.4,0l4.59,2.74a1.06,1.06,0,0,1,0,2l-52.46,30.59a3.81,3.81,0,0,1-3.42,0Z"/><path class="cls-45" d="M164.24,125.94a1,1,0,0,1,0-2l52.56-30.65a3.7,3.7,0,0,1,3.38,0l4.57,2.72a1.06,1.06,0,0,1,0,2l-52.37,30.55a3.82,3.82,0,0,1-3.41,0Z"/><path class="cls-46" d="M164.3,125.92a1,1,0,0,1,0-2l52.47-30.61a3.68,3.68,0,0,1,3.37,0l4.55,2.71a1.05,1.05,0,0,1,0,2l-52.28,30.51a3.8,3.8,0,0,1-3.4,0Z"/><path class="cls-47" d="M164.36,125.89a1,1,0,0,1,0-1.94l52.38-30.57a3.66,3.66,0,0,1,3.36,0l4.53,2.7a1,1,0,0,1,0,2l-52.2,30.47a3.76,3.76,0,0,1-3.38,0Z"/><path class="cls-48" d="M164.42,125.86a1,1,0,0,1,0-1.93l52.3-30.53a3.65,3.65,0,0,1,3.34,0l4.51,2.69a1,1,0,0,1,0,2L172.44,128.5a3.77,3.77,0,0,1-3.37,0Z"/><path class="cls-49" d="M164.48,125.83a1,1,0,0,1,0-1.92l52.21-30.49a3.66,3.66,0,0,1,3.33,0l4.49,2.68a1,1,0,0,1,0,2l-52,30.38a3.73,3.73,0,0,1-3.35,0Z"/><path class="cls-50" d="M164.54,125.8a1,1,0,0,1,0-1.91l52.12-30.45a3.63,3.63,0,0,1,3.32,0l4.47,2.67a1,1,0,0,1,0,2l-51.94,30.34a3.74,3.74,0,0,1-3.34,0Z"/><path class="cls-51" d="M164.6,125.78a1,1,0,0,1,0-1.91l52-30.41a3.59,3.59,0,0,1,3.3,0l4.45,2.66a1,1,0,0,1,0,1.94l-51.86,30.3a3.7,3.7,0,0,1-3.32,0Z"/><path class="cls-5" d="M164.66,125.75a1,1,0,0,1,0-1.9L216.6,93.48a3.63,3.63,0,0,1,3.29,0l4.43,2.65a1,1,0,0,1,0,1.93l-51.77,30.26a3.68,3.68,0,0,1-3.31,0Z"/></g><path class="cls-61" d="M163.08,125.75a1.15,1.15,0,0,1,0-2.17l53.65-31a4.1,4.1,0,0,1,3.75,0l5.06,3a1.17,1.17,0,0,1,0,2.2l-53.44,30.86a4.24,4.24,0,0,1-3.77,0Z"/><path class="cls-62" d="M163.08,125.2a1.14,1.14,0,0,1,0-2.16l53.65-31a4.13,4.13,0,0,1,3.75,0l5.06,3a1.17,1.17,0,0,1,0,2.2l-53.44,30.85a4.2,4.2,0,0,1-3.77,0Z"/><polygon class="cls-5" points="164.96 122.01 168.39 124 169.16 123.56 165.76 121.56 164.96 122.01"/><polygon class="cls-5" points="169.14 119.59 171.47 120.94 172.23 120.5 169.94 119.14 169.14 119.59"/><polygon class="cls-5" points="173.32 117.18 175.64 118.52 176.41 118.08 174.11 116.72 173.32 117.18"/><polygon class="cls-5" points="177.49 114.76 179.82 116.1 180.59 115.66 178.29 114.3 177.49 114.76"/><polygon class="cls-5" points="181.67 112.34 185.1 114.33 185.87 113.89 182.47 111.89 181.67 112.34"/><polygon class="cls-5" points="185.85 109.92 188.18 111.27 188.94 110.82 186.64 109.47 185.85 109.92"/><polygon class="cls-5" points="190.02 107.5 192.35 108.85 193.12 108.41 190.82 107.05 190.02 107.5"/><polygon class="cls-5" points="194.2 105.08 196.53 106.43 197.29 105.99 195 104.63 194.2 105.08"/><polygon class="cls-5" points="198.38 102.67 201.81 104.66 202.57 104.22 199.17 102.21 198.38 102.67"/><polygon class="cls-5" points="202.56 100.25 204.88 101.59 205.65 101.15 203.35 99.8 202.56 100.25"/><polygon class="cls-5" points="206.73 97.83 209.06 99.17 209.82 98.73 207.53 97.38 206.73 97.83"/><polygon class="cls-5" points="210.91 95.41 213.24 96.76 214 96.31 211.7 94.96 210.91 95.41"/><polygon class="cls-5" points="215.09 92.99 218.51 94.99 219.28 94.54 215.88 92.54 215.09 92.99"/><path class="cls-63" d="M152.93,65.8a.87.87,0,0,1-.81-.56.86.86,0,0,1,.51-1.1l4.24-1.58a.93.93,0,0,0,.46-.37l2.37-3.72a.85.85,0,0,1,1.18-.26c.4.25.32.53.06.93l-2.37,3.72a2.68,2.68,0,0,1-1.31,1.06l-4,1.82A.75.75,0,0,1,152.93,65.8Z"/><path class="cls-63" d="M161,57.13c-.23-.13-1.36.65-1.23,1.23a1.09,1.09,0,0,0,1.29.82c.58-.14.5-.34.05-.73C160.85,58.25,161,57.13,161,57.13Z"/><path class="cls-63" d="M160.54,58.83l.86-.6a.33.33,0,0,1,.45.08h0a.32.32,0,0,1-.08.45l-.86.6a.33.33,0,0,1-.45-.08h0A.33.33,0,0,1,160.54,58.83Z"/><path class="cls-5" d="M152.39,95.93l3.6-1.87a.48.48,0,0,0,0-.86l-.06,0a2.64,2.64,0,0,0-2-.13l-2.68.66a.67.67,0,0,0-.54.66V95a.68.68,0,0,0,.34.59l.62.36A.79.79,0,0,0,152.39,95.93Z"/><path class="cls-63" d="M151.88,94.8c-.75,0-.72-.4-.76-.81l.12-8.6-.44-9A1.37,1.37,0,0,1,152.16,75a1.63,1.63,0,0,1,1.48,1.55l-.83,17C152.82,94.19,152.38,94.8,151.88,94.8Z"/><path class="cls-5" d="M155.76,98.46l3.61-1.86a.49.49,0,0,0,0-.87l-.06,0a2.6,2.6,0,0,0-2-.12l-2.69.65a.67.67,0,0,0-.53.66v.6a.7.7,0,0,0,.35.59l.62.36A.74.74,0,0,0,155.76,98.46Z"/><path class="cls-63" d="M155.26,97.33c-.76,0-.72-.4-.76-.81l.12-8.59-.45-9a1.37,1.37,0,0,1,1.37-1.37A1.62,1.62,0,0,1,157,79.12l-.83,17C156.19,96.73,155.76,97.33,155.26,97.33Z"/><path class="cls-64" d="M156.67,66.38l.35,1a4.14,4.14,0,0,1,.08,2.39l-.49,1.16-.13,3.59L158,86.41c-1.65,1-7.29.44-8.25-1.22l1.13-11-.84-9.9a1.8,1.8,0,0,1,2.7-1.56l2.73,1.58A2.36,2.36,0,0,1,156.67,66.38Z"/><path class="cls-5" d="M156.65,75.83l-.17-1.33v-.07a11.87,11.87,0,0,1-5.63-.77l.05.55-.09.84A11.93,11.93,0,0,0,156.65,75.83Z"/><path class="cls-63" d="M153.12,63.45h0a1.52,1.52,0,0,1-1.52-1.52V58.3H156v2.24A2.9,2.9,0,0,1,153.12,63.45Z"/><path class="cls-63" d="M153.08,64.91h0a.93.93,0,0,1-.93-.93V61.4a.23.23,0,0,1,.23-.22h1.4a.22.22,0,0,1,.22.22V64A.93.93,0,0,1,153.08,64.91Z"/><path class="cls-63" d="M157,71.36l-2.88-5a.85.85,0,0,1,.31-1.17.86.86,0,0,1,1.17.31l2.17,4.18L162,71.19a.86.86,0,0,1,1,.67c.09.47-.26.6-.72.69Z"/><path class="cls-65" d="M155,68.38l-1.1-1.89a1,1,0,0,1,.13-1.21,1,1,0,0,1,1.53.2l1,2a.93.93,0,0,1-.46,1.27h0A.92.92,0,0,1,155,68.38Z"/><path class="cls-63" d="M163.68,71.76c.09.5-.56,1-1.07,1a.92.92,0,0,1-.91-.92c0-.5.13-1,.64-1A1.73,1.73,0,0,1,163.68,71.76Z"/><path class="cls-63" d="M162.07,71a.46.46,0,1,1-.45-.46A.45.45,0,0,1,162.07,71Z"/><path class="cls-66" d="M156.76,57.63l0-.08a1.61,1.61,0,0,0-.76-.74A2.92,2.92,0,0,0,154,57a7.83,7.83,0,0,0-2.69,1.19,3.14,3.14,0,0,0-.88.86c-.8,1.28.1,3.07-.58,4.42-.34.66-1,1.12-1.26,1.81a2.32,2.32,0,0,0-.11.94,3.32,3.32,0,0,0,.73,2,2.19,2.19,0,0,0,2,.76,1,1,0,0,0,.45-.18.93.93,0,0,0,.28-.37,4.24,4.24,0,0,0,.22-2,2.91,2.91,0,0,1,.42-2c.19-.23.43-.41.64-.62a3.26,3.26,0,0,0,.91-2.21c0-.33-.08-.65-.06-1a1,1,0,0,1,.41-.84,2.7,2.7,0,0,1,.48-.16,3.21,3.21,0,0,0,1.62-1.31C156.75,58.09,156.86,57.92,156.76,57.63Z"/><path class="cls-67" d="M188.9,38.69l-7.33-4.25V38.7A3.2,3.2,0,0,0,183,41.19l6.78,3.91V40.24A2,2,0,0,0,188.9,38.69Z"/><path class="cls-68" d="M183.31,28.93l-.25.18v8.71a3.17,3.17,0,0,0,1.44,2.49L192,44.65l.59-.29a.63.63,0,0,0,.36-.57V35.46A3.17,3.17,0,0,0,191.46,33l-7.18-4.1A.92.92,0,0,0,183.31,28.93Z"/><path class="cls-69" d="M184.06,29.21c-.79-.45-1.44-.08-1.44.84v8a3.2,3.2,0,0,0,1.44,2.49l7,4c.79.46,1.43.08,1.43-.83v-8A3.15,3.15,0,0,0,191,33.16Z"/><path class="cls-2" d="M185.15,36.52a.76.76,0,0,0,.75.1l.44.61a1.24,1.24,0,0,1-1.13-.16,3.51,3.51,0,0,1-1.11-1,2.16,2.16,0,0,1-.49-1.18c0-.38.1-.61.37-.7a1.39,1.39,0,0,1,1.05.23,3.54,3.54,0,0,1,1.21,1.14l-.37.18a2.17,2.17,0,0,0-.78-.76.77.77,0,0,0-.6-.14c-.17,0-.24.18-.22.42a1.3,1.3,0,0,0,.28.7A1.84,1.84,0,0,0,185.15,36.52Z"/><path class="cls-2" d="M187.41,37.89l0-.65-.71-.41,0-.45.72.41-.05-.66.57.32,0,.66.72.4,0,.45-.72-.41,0,.66Z"/><path class="cls-2" d="M189.81,39.24l-.05-.65-.71-.41,0-.45.72.41-.05-.66.57.32,0,.66.72.4,0,.45-.72-.41,0,.66Z"/><path class="cls-67" d="M189.79,48.32l-8.6-4.9a1.28,1.28,0,0,0-1.37.06l-.35.25h0a1.41,1.41,0,0,0-.62,1.32V56.27a4.52,4.52,0,0,0,2,3.51l8.91,5.14Z"/><path class="cls-70" d="M181.57,42.08l-.35.26V54.62a4.47,4.47,0,0,0,2,3.51l10.51,6.12.83-.41a.9.9,0,0,0,.51-.81V51.29a4.47,4.47,0,0,0-2-3.5L182.94,42A1.28,1.28,0,0,0,181.57,42.08Z"/><path class="cls-71" d="M182.64,42.47c-1.12-.63-2-.1-2,1.19V54.87a4.47,4.47,0,0,0,2,3.51l9.82,5.67c1.12.65,2,.12,2-1.17V51.54a4.47,4.47,0,0,0-2-3.5Z"/><g class="cls-72"><path class="cls-73" d="M185.65,49.84l-.16-.1c-.22-.13-.34-.09-.34.11V51.5c0,.27-.09.42-.28.44a1.23,1.23,0,0,1,.28.78v1.71c0,.17.17.36.5.55v1l-.41-.25a2,2,0,0,1-1.14-1.79V52.29a.45.45,0,0,0-.18-.43l-.35-.2v-1l.35.2c.12.07.18,0,.18-.23V49.09q0-1.12,1.14-.45l.42.24Z"/><path class="cls-73" d="M188.89,56.9l.16.1c.22.13.33.09.33-.11V55.24c0-.27.09-.42.28-.44a1.23,1.23,0,0,1-.28-.78V52.31c0-.17-.16-.36-.49-.55v-1l.42.25a2,2,0,0,1,1.14,1.79v1.61a.45.45,0,0,0,.18.43l.35.21V56l-.35-.2c-.12-.07-.18,0-.18.23v1.58q0,1.13-1.14.45l-.41-.24Z"/></g><path class="cls-74" d="M184.55,49.57l-.55.27.05,1.38c0,.28-.09.43-.28.45a1.2,1.2,0,0,1,.28.77v1.72c0,.17.17.35.5.55v1l-.55.27a2.77,2.77,0,0,1-1-2.32V52a.45.45,0,0,0-.17-.42l-.35-.21v-1l.35.21c.11.07.17,0,.17-.23V48.82c0-.75.38-.9,1.14-.46l.42.25Z"/><path class="cls-74" d="M187.79,56.62l.16.1c.22.13.33.1.33-.11V55c0-.28.1-.43.28-.45a1.24,1.24,0,0,1-.28-.77V52c0-.18-.16-.36-.49-.56l-.55-.68.55-.27.42.24a2,2,0,0,1,1.14,1.8v1.61c0,.21.05.36.17.42l.35.21v1l-.55.27c-.12-.06,0,1.33,0,1.33,0,.75-1,1-1,1l-.55-.77Z"/><polygon class="cls-74" points="181.92 50.7 182.74 50.7 182.74 51.26 182.06 51.12 181.92 50.7"/><path class="cls-2" d="M184,49.84l-.16-.1c-.22-.13-.33-.09-.33.11V51.5c0,.27-.09.42-.28.44a1.23,1.23,0,0,1,.28.78v1.71c0,.17.17.36.5.55v1l-.42-.25a2,2,0,0,1-1.14-1.79V52.29a.47.47,0,0,0-.17-.43l-.35-.2v-1l.35.2c.11.07.17,0,.17-.23V49.09q0-1.12,1.14-.45l.42.24Z"/><path class="cls-2" d="M187.24,56.9l.16.1c.22.13.33.09.33-.11V55.24c0-.27.1-.42.28-.44a1.29,1.29,0,0,1-.28-.78V52.31c0-.17-.16-.36-.49-.55v-1l.42.25a2,2,0,0,1,1.14,1.79v1.61c0,.22,0,.36.17.43l.35.21V56l-.35-.2c-.12-.07-.17,0-.17.23v1.58c0,.75-.39.9-1.15.45l-.41-.24Z"/><path class="cls-75" d="M196.72,41.41l-.16.12V47.2a2.08,2.08,0,0,0,.94,1.63l4.86,2.83.38-.19a.43.43,0,0,0,.23-.38V45.67a2,2,0,0,0-.94-1.62l-4.68-2.67A.58.58,0,0,0,196.72,41.41Z"/><path class="cls-76" d="M197.21,41.59c-.51-.29-.94-.05-.94.55v5.18a2.08,2.08,0,0,0,.94,1.62l4.54,2.62c.52.3.94.06.94-.54V45.78a2.06,2.06,0,0,0-.94-1.62Z"/><path class="cls-2" d="M198.21,45.35a1.26,1.26,0,0,1,.17.65c0,.25-.07.4-.19.44s-.31,0-.55-.15l-.22-.12v.55l-.37-.21,0-2,.59.34A1.42,1.42,0,0,1,198.21,45.35Zm-.28.63s.06-.11.07-.23a.48.48,0,0,0-.09-.29.71.71,0,0,0-.27-.23l-.21-.13v.68l.25.14C197.8,46,197.88,46,197.93,46Z"/><path class="cls-2" d="M199.71,46l.37.22,0,2-.37-.22v-.78l-.66-.39v.79l-.37-.22,0-2,.37.22,0,.83.66.39Z"/><path class="cls-2" d="M201.63,47.34a1.16,1.16,0,0,1,.16.65c0,.25-.06.39-.18.44a.7.7,0,0,1-.55-.15l-.23-.13v.56l-.37-.21,0-2,.58.35A1.46,1.46,0,0,1,201.63,47.34Zm-.29.63s.07-.11.07-.23a.41.41,0,0,0-.08-.29.78.78,0,0,0-.27-.23l-.21-.13v.68l.25.14C201.21,48,201.3,48,201.34,48Z"/><path class="cls-77" d="M196.06,31.84l-.12.09v4.35a1.6,1.6,0,0,0,.71,1.24l3.72,2.16.3-.14a.31.31,0,0,0,.18-.29V35.1a1.6,1.6,0,0,0-.72-1.24l-3.59-2A.44.44,0,0,0,196.06,31.84Z"/><path class="cls-5" d="M196.44,32c-.4-.22-.72,0-.72.42v4a1.59,1.59,0,0,0,.72,1.24l3.47,2c.39.23.72,0,.72-.41v-4a1.6,1.6,0,0,0-.72-1.24Z"/><path class="cls-2" d="M196.78,34.39l.23.13V35.7l-.23-.13V35.1l-.41-.24v.47l-.23-.14V34l.23.14v.49l.41.24Z"/><path class="cls-2" d="M197.69,35.15v1l-.23-.13V35l-.29-.17v-.23l.82.47v.23Z"/><path class="cls-2" d="M199.07,36.17l-.28.48-.14-.08-.27-.81v.75l-.23-.14V35.19l.31.18.26.81.27-.5.31.18v1.19l-.23-.14Z"/><path class="cls-2" d="M199.55,37.2V36l.23.14v.94l.44.26v.24Z"/><path class="cls-67" d="M168.11,38.36,176,42.89a1.18,1.18,0,0,0,1,.16h0l.09,0h0l.56-.27a.72.72,0,0,0,.41-.65V32.7a1.71,1.71,0,0,0,0-.31l-11.33-6.58a1.36,1.36,0,0,0-.22.8v9A3.58,3.58,0,0,0,168.11,38.36Z"/><path class="cls-78" d="M168.66,24.3l-.28.2v9.81A3.61,3.61,0,0,0,170,37.12L178.4,42l.66-.32a.72.72,0,0,0,.41-.65V31.65a3.54,3.54,0,0,0-1.63-2.79l-8.09-4.62A1,1,0,0,0,168.66,24.3Z"/><path class="cls-5" d="M169.52,24.61c-.9-.51-1.63-.08-1.63.95v9a3.58,3.58,0,0,0,1.62,2.8l7.85,4.54c.89.51,1.61.09,1.61-.94V31.85a3.54,3.54,0,0,0-1.62-2.79Z"/><path class="cls-2" d="M171.06,30.9v-.66l1.82,1v2.25c0,.41-.11.66-.32.74a1,1,0,0,1-.83-.17,3.16,3.16,0,0,1-1.1-1.11l.41-.32a1.93,1.93,0,0,0,.65.72.31.31,0,0,0,.29,0c.08,0,.11-.14.11-.31V31.5Z"/><path class="cls-2" d="M174.53,32.91a.16.16,0,0,0-.12.18.53.53,0,0,0,.14.32,4.9,4.9,0,0,0,.64.57,3.83,3.83,0,0,1,.77.81,1.49,1.49,0,0,1,.27.86c0,.31-.11.49-.35.55A1.34,1.34,0,0,1,175,36a4.68,4.68,0,0,1-1.49-1.46l.46-.3A3.78,3.78,0,0,0,175,35.29a.58.58,0,0,0,.34.1c.08,0,.12-.07.12-.18a.51.51,0,0,0-.13-.32,3.83,3.83,0,0,0-.52-.48,5.28,5.28,0,0,1-.89-.88,1.46,1.46,0,0,1-.28-.88c0-.33.12-.52.36-.56a1.39,1.39,0,0,1,.89.25,4,4,0,0,1,.7.52,4.31,4.31,0,0,1,.61.68l-.4.34a3.07,3.07,0,0,0-.94-.88A.54.54,0,0,0,174.53,32.91Z"/><ellipse class="cls-79" cx="149.99" cy="129.43" rx="10.68" ry="6.16"/><path class="cls-5" d="M160.31,125.81c0-.22-.31-.4-.69-.4h-1.47c-.25,0-.65.26-.71.18a.24.24,0,0,1,.1-.38l1.05-.6c.27-.15-1.45-.08-1.72-.23l0-1.3a1.06,1.06,0,0,0-1,0l-1,.6a.87.87,0,0,1-.62.07l-.45-.1c-.22-.05-.36-.17-.36-.31v-.85c0-.22-.31-.4-.69-.4h-2.4c-.38,0-.69.18-.69.4v.84c0,.14-.16.26-.39.31l-.42.11a1,1,0,0,1-.66-.07l-1-.59a1.06,1.06,0,0,0-1,0L146,124.5c-.27.16-1.84,0-1.57.13l1.05.6c.17.1.22.24.13.36s-.48-.17-.71-.17h-1.49c-.38,0-.69.17-.69.39v2c0,.22.31.4.69.4h.86l0,1.67a.14.14,0,0,0,0,.09h0a.37.37,0,0,0,.2.24l1.7,1a1,1,0,0,0,.6.1h0a.84.84,0,0,0,.36-.1l1.05-.61a.94.94,0,0,1,.63-.07l.45.11c.21.05.36.17.36.3v.86c0,.22.31.4.69.4h2.4c.38,0,.69-.17.69-.39v-.85c0-.14.15-.26.38-.31l.41-.1a.9.9,0,0,1,.65.06l1,.6a.88.88,0,0,0,.36.1h0a1.08,1.08,0,0,0,.6-.1l1.69-1a.34.34,0,0,0,.2-.23h0v-.06l0-1.7h.85c.38,0,.69-.18.69-.4Zm-5.43,1.68c-.4,1.22-2.6,1.91-4.57,1.47-1.5-.33-2.42-1.27-2.12-2.18.4-1.22,2.6-1.91,4.57-1.47C154.26,125.65,155.18,126.58,154.88,127.49Z"/><path class="cls-5" d="M158.79,123.51v-1.08h-1.56l-.34-.2a1.12,1.12,0,0,0-1,0l-.34.2h-2.14v-.79c0-.22-.31-.4-.69-.4h-2.4c-.38,0-.69.18-.69.4v.79h-2.18l-.33-.19a1.09,1.09,0,0,0-1,0l-.32.19h-1.57v1.06a.35.35,0,0,0,.2.29l1.05.6h12l1.05-.6a.34.34,0,0,0,.19-.26Z"/><path class="cls-71" d="M157.74,126.31h1.88c.38,0,.69-.17.69-.39v-1.38c0-.22-.31-.4-.69-.4h-1.47a.64.64,0,0,1-.54-.22l-.17-.24c-.1-.12-.07-.27.1-.37l1.05-.6a.3.3,0,0,0,0-.56l-1.7-1a1.12,1.12,0,0,0-1,0l-1,.61a.92.92,0,0,1-.62.07l-.45-.11c-.22,0-.36-.17-.36-.3v-.86c0-.22-.31-.4-.69-.4h-2.4c-.38,0-.69.18-.69.4v.85c0,.14-.16.26-.39.31l-.42.1a.92.92,0,0,1-.66-.06l-1-.6a1.12,1.12,0,0,0-1,0l-1.69,1c-.27.16-.27.41,0,.56l1.05.6c.17.1.22.24.13.37s-.13.17-.19.25a.62.62,0,0,1-.52.21h-1.49c-.38,0-.69.18-.69.4v1.38c0,.22.31.4.69.4h1.47a.67.67,0,0,1,.54.22,2,2,0,0,0,.17.23c.1.13.07.28-.11.38l-1,.6c-.27.15-.26.41,0,.56l1.7,1a1,1,0,0,0,1,0l1.05-.6a.89.89,0,0,1,.63-.07l.45.1c.21.05.36.17.36.31v.85c0,.22.31.4.69.4h2.4c.38,0,.69-.18.69-.4V129c0-.14.15-.26.38-.31l.41-.1a1,1,0,0,1,.65.07l1,.59a1.06,1.06,0,0,0,1,0l1.69-1c.27-.16.27-.41,0-.56l-1.05-.61c-.16-.09-.21-.23-.12-.36S157.73,126.33,157.74,126.31Zm-9.55-1.43c.4-1.22,2.6-1.91,4.57-1.47,1.5.33,2.42,1.26,2.12,2.17-.4,1.22-2.6,1.91-4.57,1.47C148.81,126.72,147.89,125.79,148.19,124.88Z"/><g class="cls-80"><path class="cls-11" d="M139.24,119.51,119.4,108.26a5,5,0,0,0-4.58,0l-8.71,5.21c-.83.48-1.1,1.17-.83,1.79-.27.63,0,1.32.84,1.8L126,128.39a5,5,0,0,0,4.58,0l8.72-5.26c.82-.49,1.09-1.17.83-1.79C140.35,120.68,140.08,120,139.24,119.51Z"/><path class="cls-12" d="M139.17,119.51,119.4,108.3a5,5,0,0,0-4.56,0l-8.66,5.17c-.82.49-1.09,1.17-.82,1.79-.27.62,0,1.31.84,1.79L126,128.34a5,5,0,0,0,4.56,0l8.66-5.22c.83-.49,1.09-1.17.83-1.79C140.27,120.68,140,120,139.17,119.51Z"/><path class="cls-13" d="M139.09,119.51l-19.68-11.16a5,5,0,0,0-4.55,0l-8.6,5.14c-.82.48-1.09,1.16-.82,1.78-.27.62,0,1.3.83,1.77L126,128.29a5,5,0,0,0,4.54,0l8.61-5.2c.82-.48,1.08-1.16.82-1.78C140.19,120.67,139.92,120,139.09,119.51Z"/><path class="cls-14" d="M139,119.52,119.41,108.4a5,5,0,0,0-4.52,0l-8.56,5.11c-.81.48-1.08,1.16-.82,1.77-.26.62,0,1.3.84,1.77L126,128.25a5,5,0,0,0,4.51,0l8.56-5.16c.82-.49,1.08-1.16.82-1.77C140.11,120.67,139.84,120,139,119.52Z"/><path class="cls-15" d="M138.94,119.52l-19.53-11.08a5,5,0,0,0-4.5,0l-8.5,5.08c-.81.48-1.08,1.15-.82,1.76-.26.61,0,1.29.83,1.76L126,128.2a4.91,4.91,0,0,0,4.49,0L139,123c.81-.48,1.07-1.15.81-1.76C140,120.66,139.76,120,138.94,119.52Z"/><path class="cls-16" d="M138.87,119.52l-19.46-11a5,5,0,0,0-4.48,0l-8.45,5c-.8.48-1.07,1.15-.81,1.76-.26.61,0,1.28.83,1.75L126,128.16a4.9,4.9,0,0,0,4.47,0l8.45-5.1c.81-.48,1.07-1.15.81-1.76C140,120.66,139.68,120,138.87,119.52Z"/><path class="cls-17" d="M138.79,119.52l-19.38-11a4.91,4.91,0,0,0-4.45,0l-8.4,5c-.8.47-1.07,1.14-.81,1.74-.26.61,0,1.28.82,1.75l19.39,11a4.83,4.83,0,0,0,4.44,0l8.41-5.07c.8-.47,1.06-1.14.8-1.74C139.87,120.66,139.6,120,138.79,119.52Z"/><path class="cls-18" d="M138.72,119.52l-19.31-10.94a4.87,4.87,0,0,0-4.43,0l-8.35,5c-.8.48-1.06,1.14-.8,1.74-.26.6,0,1.27.82,1.74l19.3,11a4.84,4.84,0,0,0,4.43,0l8.35-5c.8-.48,1.06-1.14.8-1.74C139.79,120.65,139.52,120,138.72,119.52Z"/><path class="cls-19" d="M138.64,119.53l-19.23-10.9a4.86,4.86,0,0,0-4.41,0l-8.29,5c-.8.47-1.06,1.13-.8,1.73-.26.6,0,1.26.81,1.72L126,128a4.83,4.83,0,0,0,4.41,0l8.3-5c.79-.47,1.05-1.13.79-1.73C139.71,120.65,139.45,120,138.64,119.53Z"/><path class="cls-20" d="M138.57,119.53l-19.16-10.86a4.83,4.83,0,0,0-4.38,0l-8.25,4.93c-.79.46-1,1.12-.79,1.71-.26.6,0,1.26.81,1.72L126,128a4.8,4.8,0,0,0,4.38,0l8.25-5c.79-.47,1-1.13.8-1.72C139.63,120.65,139.37,120,138.57,119.53Z"/><path class="cls-21" d="M138.49,119.53l-19.07-10.81a4.84,4.84,0,0,0-4.37,0l-8.19,4.9c-.79.46-1,1.12-.79,1.71-.26.6,0,1.25.8,1.71L126,127.93a4.79,4.79,0,0,0,4.36,0l8.2-5c.78-.46,1-1.12.79-1.71C139.55,120.64,139.29,120,138.49,119.53Z"/><path class="cls-22" d="M138.42,119.53l-19-10.77a4.83,4.83,0,0,0-4.35,0l-8.14,4.87c-.78.46-1,1.11-.78,1.7-.25.59,0,1.24.8,1.7l19,10.82a4.75,4.75,0,0,0,4.34,0l8.14-4.91c.78-.47,1-1.12.79-1.7C139.47,120.64,139.21,120,138.42,119.53Z"/><path class="cls-23" d="M138.34,119.54l-18.92-10.73a4.8,4.8,0,0,0-4.32,0L107,113.67c-.78.46-1,1.11-.78,1.69-.25.59,0,1.24.79,1.7L126,127.83a4.72,4.72,0,0,0,4.31,0l8.1-4.89c.78-.46,1-1.11.78-1.69C139.39,120.64,139.13,120,138.34,119.54Z"/><path class="cls-24" d="M138.27,119.54l-18.85-10.68a4.76,4.76,0,0,0-4.3,0l-8,4.81c-.77.45-1,1.1-.77,1.68-.25.59,0,1.23.79,1.68L126,127.79a4.7,4.7,0,0,0,4.29,0l8-4.85c.78-.46,1-1.11.78-1.69C139.31,120.63,139.05,120,138.27,119.54Z"/><path class="cls-25" d="M138.19,119.54,119.42,108.9a4.71,4.71,0,0,0-4.28,0l-8,4.77c-.77.46-1,1.1-.78,1.68-.24.58,0,1.22.79,1.67L126,127.74a4.69,4.69,0,0,0,4.27,0l8-4.83c.77-.46,1-1.1.77-1.67C139.23,120.63,139,120,138.19,119.54Z"/><path class="cls-26" d="M138.12,119.54,119.42,109a4.65,4.65,0,0,0-4.25,0l-7.94,4.75c-.76.45-1,1.09-.77,1.66-.24.58,0,1.22.79,1.67l18.69,10.65a4.68,4.68,0,0,0,4.25,0l7.94-4.79c.77-.46,1-1.09.77-1.67C139.15,120.63,138.89,120,138.12,119.54Z"/><path class="cls-27" d="M138,119.54,119.42,109a4.64,4.64,0,0,0-4.23,0l-7.88,4.71c-.76.45-1,1.09-.77,1.66-.24.58,0,1.21.78,1.66l18.62,10.6a4.67,4.67,0,0,0,4.23,0l7.89-4.77c.76-.45,1-1.08.76-1.66C139.07,120.62,138.81,120,138,119.54Z"/><path class="cls-28" d="M138,119.55,119.42,109a4.63,4.63,0,0,0-4.21,0l-7.83,4.69c-.76.45-1,1.08-.76,1.65-.24.57,0,1.2.78,1.65l18.54,10.55a4.63,4.63,0,0,0,4.21,0l7.83-4.73c.76-.45,1-1.08.76-1.65C139,120.62,138.73,120,138,119.55Z"/><path class="cls-29" d="M137.89,119.55l-18.46-10.46a4.59,4.59,0,0,0-4.19,0l-7.78,4.65c-.76.45-1,1.08-.76,1.64-.24.57,0,1.2.77,1.64l18.47,10.52a4.57,4.57,0,0,0,4.18,0l7.79-4.7c.75-.45,1-1.07.75-1.64C138.91,120.62,138.66,120,137.89,119.55Z"/><path class="cls-30" d="M137.82,119.55l-18.39-10.42a4.58,4.58,0,0,0-4.17,0l-7.73,4.62c-.75.44-1,1.07-.75,1.63-.24.57,0,1.19.77,1.63l18.39,10.47a4.56,4.56,0,0,0,4.16,0l7.73-4.67c.75-.45,1-1.07.75-1.64C138.83,120.61,138.58,120,137.82,119.55Z"/><path class="cls-31" d="M137.74,119.55l-18.31-10.37a4.57,4.57,0,0,0-4.15,0l-7.67,4.59c-.75.44-1,1.07-.75,1.63-.24.56,0,1.18.76,1.62l18.32,10.43a4.55,4.55,0,0,0,4.14,0l7.68-4.64c.74-.44,1-1.06.75-1.62C138.75,120.61,138.5,120,137.74,119.55Z"/><path class="cls-32" d="M137.67,119.56l-18.24-10.34a4.53,4.53,0,0,0-4.12,0l-7.62,4.56c-.75.44-1,1-.75,1.61-.24.57,0,1.18.76,1.62l18.24,10.38a4.48,4.48,0,0,0,4.11,0l7.63-4.61c.74-.44,1-1.06.75-1.62C138.67,120.61,138.42,120,137.67,119.56Z"/><path class="cls-33" d="M137.59,119.56l-18.16-10.29a4.52,4.52,0,0,0-4.1,0l-7.57,4.53c-.74.44-1,1.05-.74,1.61-.24.56,0,1.17.75,1.61l18.17,10.33a4.44,4.44,0,0,0,4.09,0l7.58-4.58c.74-.44,1-1,.74-1.61C138.59,120.6,138.34,120,137.59,119.56Z"/><path class="cls-34" d="M137.52,119.56l-18.09-10.24a4.48,4.48,0,0,0-4.08,0l-7.51,4.5c-.74.43-1,1-.74,1.6-.24.55,0,1.17.75,1.59l18.08,10.3a4.45,4.45,0,0,0,4.08,0l7.52-4.54c.74-.44,1-1.05.74-1.6C138.5,120.6,138.26,120,137.52,119.56Z"/><path class="cls-35" d="M137.44,119.56l-18-10.2a4.48,4.48,0,0,0-4.05,0l-7.47,4.48c-.73.43-1,1-.73,1.58-.24.56,0,1.17.74,1.59l18,10.25a4.42,4.42,0,0,0,4,0l7.48-4.52c.73-.43,1-1,.73-1.59C138.42,120.6,138.18,120,137.44,119.56Z"/><path class="cls-36" d="M137.37,119.56l-17.94-10.15a4.44,4.44,0,0,0-4,0L108,113.87c-.73.43-1,1-.74,1.58-.23.55,0,1.16.75,1.58l17.93,10.21a4.41,4.41,0,0,0,4,0l7.42-4.48c.73-.43,1-1,.73-1.58C138.34,120.59,138.1,120,137.37,119.56Z"/><path class="cls-37" d="M137.29,119.57l-17.85-10.12a4.45,4.45,0,0,0-4,0l-7.36,4.41c-.72.42-1,1-.73,1.57-.23.54,0,1.15.74,1.57l17.86,10.16a4.4,4.4,0,0,0,4,0l7.37-4.46c.72-.43.95-1,.72-1.57C138.26,120.59,138,120,137.29,119.57Z"/><path class="cls-38" d="M137.22,119.57,119.44,109.5a4.42,4.42,0,0,0-4,0l-7.31,4.38c-.72.43-1,1-.73,1.56-.23.55,0,1.15.74,1.57l17.78,10.12a4.37,4.37,0,0,0,4,0l7.32-4.42c.72-.43,1-1,.72-1.57C138.18,120.59,137.94,120,137.22,119.57Z"/><path class="cls-39" d="M137.14,119.57l-17.7-10a4.37,4.37,0,0,0-4,0l-7.26,4.35c-.72.42-.95,1-.72,1.55-.23.54,0,1.14.73,1.55l17.71,10.08a4.32,4.32,0,0,0,4,0l7.27-4.39c.71-.42.94-1,.71-1.55C138.1,120.58,137.87,120,137.14,119.57Z"/><path class="cls-40" d="M137.07,119.57l-17.63-10a4.4,4.4,0,0,0-4,0l-7.2,4.32c-.72.42-1,1-.72,1.55-.23.54,0,1.13.73,1.54l17.63,10a4.31,4.31,0,0,0,3.94,0l7.21-4.36c.71-.43.94-1,.71-1.55C138,120.58,137.79,120,137.07,119.57Z"/><path class="cls-41" d="M137,119.58l-17.55-9.94a4.33,4.33,0,0,0-3.92,0L108.36,114c-.71.41-.94,1-.71,1.53-.23.54,0,1.13.72,1.54l17.56,10a4.28,4.28,0,0,0,3.91,0l7.17-4.33c.7-.42.93-1,.7-1.54C137.94,120.58,137.71,120,137,119.58Z"/><path class="cls-42" d="M136.92,119.58l-17.48-9.9a4.32,4.32,0,0,0-3.9,0l-7.1,4.25c-.71.42-.94,1-.71,1.53-.23.53,0,1.12.72,1.53L125.92,127a4.29,4.29,0,0,0,3.9,0l7.11-4.3c.7-.42.93-1,.71-1.53C137.86,120.57,137.63,120,136.92,119.58Z"/><path class="cls-43" d="M136.84,119.58l-17.4-9.85a4.25,4.25,0,0,0-3.88,0l-7,4.23c-.7.41-.93,1-.7,1.52-.23.53,0,1.11.71,1.52l17.4,9.9a4.28,4.28,0,0,0,3.88,0l7.06-4.27c.69-.41.92-1,.7-1.52C137.78,120.57,137.55,120,136.84,119.58Z"/><path class="cls-44" d="M136.77,119.58l-17.33-9.8a4.19,4.19,0,0,0-3.85,0l-7,4.19c-.7.41-.93,1-.7,1.51-.23.53,0,1.11.71,1.51l17.32,9.86a4.25,4.25,0,0,0,3.85,0l7-4.24c.7-.42.92-1,.7-1.52C137.7,120.57,137.47,120,136.77,119.58Z"/><path class="cls-45" d="M136.69,119.58l-17.24-9.76a4.23,4.23,0,0,0-3.84,0l-7,4.17c-.69.41-.92,1-.69,1.5-.23.52,0,1.1.7,1.5l17.25,9.81a4.21,4.21,0,0,0,3.83,0l7-4.21c.69-.41.91-1,.69-1.5C137.62,120.56,137.39,120,136.69,119.58Z"/><path class="cls-46" d="M136.62,119.59l-17.17-9.72a4.19,4.19,0,0,0-3.82,0L108.74,114c-.69.41-.92,1-.69,1.5-.23.52,0,1.09.7,1.49l17.17,9.77a4.2,4.2,0,0,0,3.81,0l6.9-4.17c.69-.41.91-1,.69-1.5C137.54,120.56,137.31,120,136.62,119.59Z"/><path class="cls-47" d="M136.54,119.59l-17.09-9.68a4.15,4.15,0,0,0-3.79,0l-6.85,4.1c-.68.4-.91,1-.69,1.48-.22.52,0,1.09.7,1.49l17.1,9.72a4.16,4.16,0,0,0,3.78,0l6.86-4.15c.68-.4.9-1,.68-1.49C137.46,120.56,137.23,120,136.54,119.59Z"/><path class="cls-48" d="M136.47,119.59l-17-9.63a4.14,4.14,0,0,0-3.77,0l-6.79,4.07c-.68.41-.91,1-.69,1.48-.22.52,0,1.08.7,1.48l17,9.68a4.12,4.12,0,0,0,3.76,0l6.8-4.11c.68-.41.9-1,.68-1.48C137.38,120.55,137.15,120,136.47,119.59Z"/><path class="cls-49" d="M136.39,119.59,119.45,110a4.1,4.1,0,0,0-3.75,0l-6.74,4c-.68.4-.89,1-.68,1.47-.22.51,0,1.07.69,1.47l17,9.63a4.08,4.08,0,0,0,3.74,0l6.75-4.09c.67-.4.89-1,.67-1.47C137.3,120.55,137.07,120,136.39,119.59Z"/><path class="cls-50" d="M136.32,119.6l-16.87-9.55a4.1,4.1,0,0,0-3.72,0l-6.69,4c-.68.39-.89,1-.68,1.45-.21.51,0,1.07.69,1.46l16.86,9.59a4,4,0,0,0,3.72,0l6.7-4c.67-.4.89-1,.67-1.46C137.22,120.55,137,120,136.32,119.6Z"/><path class="cls-51" d="M136.24,119.6l-16.79-9.5a4.06,4.06,0,0,0-3.7,0l-6.64,4c-.67.39-.88,1-.67,1.45-.21.51,0,1.06.68,1.45l16.79,9.55a4.06,4.06,0,0,0,3.7,0l6.65-4c.66-.4.88-1,.66-1.45C137.14,120.54,136.92,120,136.24,119.6Z"/><path class="cls-5" d="M136.17,119.6l-16.72-9.46a4.08,4.08,0,0,0-3.68,0l-6.58,4c-.67.39-.88.94-.67,1.44-.21.5,0,1,.68,1.44l16.71,9.5a4,4,0,0,0,3.68,0l6.59-4c.66-.4.88-.95.66-1.45C137.06,120.54,136.84,120,136.17,119.6Z"/></g><path class="cls-81" d="M107.09,103.36s.13-2.45.21-2.5l8.19-4.73a2.66,2.66,0,0,1,2.67,0l19.26,11.13a1.61,1.61,0,0,1,.72,1.26v12.11a2.18,2.18,0,0,1-1.08,1.88l-8.66,5L110.16,115Z"/><path class="cls-82" d="M107.09,101.33c0-.46.32-.65.72-.42L128,112.58a1.62,1.62,0,0,1,.73,1.26v13.1a.65.65,0,0,1-1,.56L107.86,116a1.55,1.55,0,0,1-.77-1.35Z"/><path class="cls-83" d="M128,112.58l-20.2-11.67c-.4-.23-.72,0-.72.42v2l21.65,12.51v-2A1.62,1.62,0,0,0,128,112.58Z"/><path class="cls-2" d="M108.1,102.29c-.18-.11-.33,0-.33.18a.74.74,0,0,0,.33.57c.18.1.32,0,.32-.19A.7.7,0,0,0,108.1,102.29Z"/><path class="cls-2" d="M109.28,102.92a.2.2,0,0,0-.33.19.71.71,0,0,0,.33.56c.18.11.33,0,.33-.18A.74.74,0,0,0,109.28,102.92Z"/><path class="cls-2" d="M110.46,103.56c-.18-.1-.32,0-.32.19a.7.7,0,0,0,.32.56c.18.11.33,0,.33-.19A.74.74,0,0,0,110.46,103.56Z"/><polygon class="cls-5" points="110.53 106.51 117.35 110.45 117.35 110.9 110.53 106.96 110.53 106.51"/><polygon class="cls-5" points="107.77 104.93 110.12 106.29 110.12 106.74 107.77 105.38 107.77 104.93"/><polygon class="cls-84" points="108.94 106.89 110.89 108.01 110.89 108.46 108.94 107.33 108.94 106.89"/><polygon class="cls-5" points="111.23 108.19 113.88 109.73 113.88 110.18 111.23 108.64 111.23 108.19"/><polygon class="cls-5" points="115.5 111.97 128.05 119.22 128.05 119.66 115.5 112.41 115.5 111.97"/><polygon class="cls-85" points="113.34 110.72 114.88 111.61 114.88 112.06 113.34 111.17 113.34 110.72"/><polygon class="cls-5" points="107.77 107.52 112.64 110.33 112.64 110.78 107.77 107.96 107.77 107.52"/><polygon class="cls-5" points="111.36 110.9 116.11 113.64 116.11 114.09 111.36 111.35 111.36 110.9"/><polygon class="cls-86" points="110 110.1 111.07 110.72 111.07 111.17 110 110.55 110 110.1"/><polygon class="cls-5" points="111.93 112.49 127.02 121.2 127.02 121.64 111.93 112.94 111.93 112.49"/><polygon class="cls-5" points="108.44 110.5 111.52 112.27 111.52 112.72 108.44 110.95 108.44 110.5"/><polygon class="cls-5" points="113.59 114.77 128.05 123.09 128.05 123.54 113.59 115.21 113.59 114.77"/><polygon class="cls-5" points="109.98 112.69 113.18 114.54 113.18 114.99 109.98 113.14 109.98 112.69"/><polygon class="cls-87" points="107.77 111.4 109.68 112.49 109.68 112.94 107.77 111.84 107.77 111.4"/><polygon class="cls-88" points="111.23 114.69 112.32 115.31 112.32 115.76 111.23 115.13 111.23 114.69"/><polygon class="cls-5" points="109.83 113.86 110.89 114.46 110.89 114.91 109.83 114.31 109.83 113.86"/><polygon class="cls-5" points="113.94 117.52 128.05 125.68 128.05 126.13 113.94 117.97 113.94 117.52"/><polygon class="cls-5" points="110.63 115.62 112.98 116.98 112.98 117.43 110.63 116.07 110.63 115.62"/><polygon class="cls-89" points="107.77 113.98 109 114.69 109 115.13 107.77 114.43 107.77 113.98"/><path class="cls-90" d="M128.35,103.86a5.24,5.24,0,0,1-1.06.61l-.08,0h0c-2.9,1.17-5.54-1-5.54-1a3.91,3.91,0,0,1-.71-2.71c-.06-.21-.12-.46-.19-.76a13,13,0,0,1-.27-2.61l11.61,6.7v.2l-2.25-1.3Z"/><path class="cls-91" d="M123.65,102.28,129,99.2v3.3l3,1.75V98.66A2.71,2.71,0,0,0,128,96.31l-5.84,3.35Z"/><path class="cls-92" d="M126.39,103.91l5.37-3.09V104l3,1.74v-5.5a2.72,2.72,0,0,0-4.07-2.35l-5.84,3.36Z"/><path class="cls-93" d="M127.54,103.25c-3.32,2.44-6.7-.38-6.7-.38-.72-.65-.84-2.63-.61-3.37l.92-.93,4.74,2.64Z"/><path class="cls-94" d="M134.84,92.66,128,88.72a.14.14,0,0,0-.21.12l-1.92,5.23a.28.28,0,0,0,.15.26l6.84,4c.09.06.15,0,.2-.12L135,92.92A.32.32,0,0,0,134.84,92.66Z"/><path class="cls-5" d="M134.75,92.72l-6.84-4c-.09,0-.17,0-.21.12l-1.92,5.24a.3.3,0,0,0,.15.26l6.84,4c.09,0,.15,0,.21-.12L134.9,93A.32.32,0,0,0,134.75,92.72Z"/><polygon class="cls-95" points="134.53 92.98 127.89 89.22 126.14 94.11 132.75 97.91 134.53 92.98"/><path class="cls-96" d="M125.48,94.56l-4.38,2.31s0,.34.07.39l6.7,3.88a.56.56,0,0,0,.56,0l4.31-2.46c.18-.11.07-.4.07-.4L126,94.56A.54.54,0,0,0,125.48,94.56Z"/><path class="cls-2" d="M125.48,94.29l-4.31,2.47a.13.13,0,0,0,0,.24l6.7,3.87a.56.56,0,0,0,.56,0l4.31-2.46a.14.14,0,0,0,0-.24L126,94.29A.59.59,0,0,0,125.48,94.29Z"/><path class="cls-55" d="M125.09,97.48l-1.13.65a0,0,0,0,0,0,.07l1.77,1a.17.17,0,0,0,.14,0l1.14-.65a0,0,0,0,0,0-.07l-1.77-1A.19.19,0,0,0,125.09,97.48Z"/><path class="cls-55" d="M126,94.67l.37.21a0,0,0,0,1,0,0l-.18.11a0,0,0,0,1,0,0l-.37-.22a0,0,0,1,1,0,0l.18-.11A0,0,0,0,1,126,94.67Z"/><path class="cls-55" d="M126.49,95l.38.22a0,0,0,0,1,0,0l-.19.1a0,0,0,0,1-.05,0l-.37-.21a0,0,0,0,1,0,0l.19-.11Z"/><path class="cls-55" d="M127,95.3l.37.22s0,0,0,0l-.18.11a0,0,0,0,1,0,0l-.37-.22s0,0,0,0l.18-.11Z"/><path class="cls-55" d="M127.6,95.62l.37.21a0,0,0,0,1,0,0l-.18.11h-.05l-.37-.22a0,0,0,0,1,0,0l.19-.1A0,0,0,0,1,127.6,95.62Z"/><path class="cls-55" d="M128.14,95.92l.37.21a0,0,0,0,1,0,0l-.18.11a0,0,0,0,1-.05,0l-.37-.22a0,0,0,0,1,0,0l.19-.1A0,0,0,0,1,128.14,95.92Z"/><path class="cls-55" d="M128.67,96.24l.37.22a0,0,0,0,1,0,0l-.18.1a0,0,0,0,1-.05,0l-.37-.21a0,0,0,0,1,0,0l.18-.11Z"/><path class="cls-55" d="M129.22,96.55l.37.21a0,0,0,0,1,0,0l-.18.1h0l-.37-.21a0,0,0,0,1,0,0l.18-.1Z"/><path class="cls-55" d="M129.76,96.87l.37.21a0,0,0,0,1,0,0l-.18.11h0l-.37-.22a0,0,0,0,1,0,0l.18-.1A0,0,0,0,1,129.76,96.87Z"/><path class="cls-55" d="M130.29,97.18l.37.22a0,0,0,0,1,0,0l-.18.1h0l-.37-.21a0,0,0,0,1,0,0l.19-.11A0,0,0,0,1,130.29,97.18Z"/><path class="cls-55" d="M130.86,97.51l.37.21a0,0,0,0,1,0,0l-.19.11h0l-.37-.22a0,0,0,0,1,0,0l.19-.1A0,0,0,0,1,130.86,97.51Z"/><path class="cls-55" d="M131.4,97.81l.37.22a0,0,0,0,1,0,0l-.18.1a0,0,0,0,1-.05,0l-.37-.21a0,0,0,0,1,0,0l.18-.11A0,0,0,0,1,131.4,97.81Z"/><path class="cls-55" d="M125.2,95.07l.25-.14a.09.09,0,0,1,.1,0l.25.14a.06.06,0,0,1,0,.09l-.24.15a.11.11,0,0,1-.11,0l-.25-.15A0,0,0,0,1,125.2,95.07Z"/><path class="cls-55" d="M125.76,95.4l.25-.15a.11.11,0,0,1,.11,0l.24.14a0,0,0,0,1,0,.09l-.24.15a.11.11,0,0,1-.11,0l-.25-.14A0,0,0,0,1,125.76,95.4Z"/><path class="cls-55" d="M126.31,95.7l.25-.14a.09.09,0,0,1,.1,0l.25.14a.06.06,0,0,1,0,.09l-.24.15a.11.11,0,0,1-.11,0l-.25-.14A.06.06,0,0,1,126.31,95.7Z"/><path class="cls-55" d="M126.89,96l.25-.15a.12.12,0,0,1,.1,0l.25.15a.06.06,0,0,1,0,.09l-.24.15a.11.11,0,0,1-.11,0l-.25-.15A0,0,0,0,1,126.89,96Z"/><path class="cls-55" d="M127.4,96.32l.25-.14a.14.14,0,0,1,.11,0l.24.15a0,0,0,0,1,0,.09l-.24.15a.11.11,0,0,1-.11,0l-.25-.15A0,0,0,0,1,127.4,96.32Z"/><path class="cls-55" d="M127.92,96.65l.25-.15a.11.11,0,0,1,.11,0l.24.14a0,0,0,0,1,0,.09l-.24.15a.11.11,0,0,1-.11,0l-.25-.14A.06.06,0,0,1,127.92,96.65Z"/><path class="cls-55" d="M128.48,97l.25-.15a.09.09,0,0,1,.1,0l.25.14a.06.06,0,0,1,0,.09l-.24.15a.14.14,0,0,1-.11,0l-.25-.15A0,0,0,0,1,128.48,97Z"/><path class="cls-55" d="M129,97.26l.25-.15a.11.11,0,0,1,.11,0l.24.14a.05.05,0,0,1,0,.09l-.25.15a.11.11,0,0,1-.11,0l-.25-.14A.06.06,0,0,1,129,97.26Z"/><path class="cls-55" d="M129.56,97.59l.25-.15a.09.09,0,0,1,.1,0l.25.14a.06.06,0,0,1,0,.09l-.24.15a.11.11,0,0,1-.11,0l-.25-.14A0,0,0,0,1,129.56,97.59Z"/><path class="cls-55" d="M130.14,97.93l.25-.15a.11.11,0,0,1,.11,0l.24.14a0,0,0,0,1,0,.09l-.24.15a.11.11,0,0,1-.11,0l-.25-.15A.06.06,0,0,1,130.14,97.93Z"/><path class="cls-55" d="M130.67,98.22l.25-.15a.09.09,0,0,1,.1,0l.25.14a.05.05,0,0,1,0,.09l-.24.15a.11.11,0,0,1-.11,0l-.25-.14A0,0,0,0,1,130.67,98.22Z"/><path class="cls-55" d="M124.63,95.38l.26-.15a.09.09,0,0,1,.1,0l.25.14a.06.06,0,0,1,0,.09l-.25.15a.09.09,0,0,1-.1,0l-.25-.14A.05.05,0,0,1,124.63,95.38Z"/><path class="cls-55" d="M125.2,95.7l.25-.14a.14.14,0,0,1,.11,0l.24.15a0,0,0,0,1,0,.09l-.24.15a.11.11,0,0,1-.11,0l-.25-.15A0,0,0,0,1,125.2,95.7Z"/><path class="cls-55" d="M125.74,96l.26-.15a.09.09,0,0,1,.1,0l.25.14a.06.06,0,0,1,0,.09l-.25.15a.09.09,0,0,1-.1,0l-.25-.14A.05.05,0,0,1,125.74,96Z"/><path class="cls-55" d="M126.33,96.33l.25-.15a.09.09,0,0,1,.1,0l.25.14a.06.06,0,0,1,0,.09l-.24.15a.11.11,0,0,1-.11,0l-.25-.14A0,0,0,0,1,126.33,96.33Z"/><path class="cls-55" d="M126.84,96.63l.25-.15a.11.11,0,0,1,.11,0l.24.14a0,0,0,0,1,0,.09l-.24.15a.11.11,0,0,1-.11,0l-.25-.14A0,0,0,0,1,126.84,96.63Z"/><path class="cls-55" d="M127.36,97l.25-.15a.11.11,0,0,1,.11,0l.24.14a0,0,0,0,1,0,.09l-.24.15a.14.14,0,0,1-.11,0l-.25-.15A.05.05,0,0,1,127.36,97Z"/><path class="cls-55" d="M127.92,97.25l.25-.14a.09.09,0,0,1,.1,0l.25.14a.06.06,0,0,1,0,.09l-.24.15a.11.11,0,0,1-.11,0l-.25-.14A.06.06,0,0,1,127.92,97.25Z"/><path class="cls-55" d="M128.46,97.56l.25-.14a.11.11,0,0,1,.11,0l.24.14a0,0,0,0,1,0,.09l-.24.15a.11.11,0,0,1-.11,0l-.25-.15A.06.06,0,0,1,128.46,97.56Z"/><path class="cls-55" d="M129,97.89l.25-.15h.1l.25.15a.06.06,0,0,1,0,.09l-.24.15a.11.11,0,0,1-.11,0L129,98A0,0,0,0,1,129,97.89Z"/><path class="cls-55" d="M129.58,98.24l.25-.15a.11.11,0,0,1,.11,0l.24.14a0,0,0,0,1,0,.09l-.24.15a.11.11,0,0,1-.11,0l-.25-.14A0,0,0,0,1,129.58,98.24Z"/><path class="cls-55" d="M130.11,98.52l.25-.15a.12.12,0,0,1,.1,0l.25.15a.06.06,0,0,1,0,.09l-.24.15a.11.11,0,0,1-.11,0l-.25-.15A0,0,0,0,1,130.11,98.52Z"/><path class="cls-55" d="M124.07,95.68l.26-.14a.09.09,0,0,1,.1,0l.25.14a.06.06,0,0,1,0,.09l-.25.15a.09.09,0,0,1-.1,0l-.26-.15A.06.06,0,0,1,124.07,95.68Z"/><path class="cls-55" d="M124.64,96l.25-.15a.09.09,0,0,1,.1,0l.25.14a.05.05,0,0,1,0,.09l-.24.15a.11.11,0,0,1-.11,0l-.25-.14A0,0,0,0,1,124.64,96Z"/><path class="cls-55" d="M125.18,96.31l.26-.14a.09.09,0,0,1,.1,0l.25.14a.06.06,0,0,1,0,.09l-.25.15a.09.09,0,0,1-.1,0l-.26-.15A.06.06,0,0,1,125.18,96.31Z"/><path class="cls-55" d="M125.77,96.63l.25-.15a.09.09,0,0,1,.1,0l.25.15a.06.06,0,0,1,0,.09l-.24.15a.11.11,0,0,1-.11,0l-.25-.15A0,0,0,0,1,125.77,96.63Z"/><path class="cls-55" d="M126.28,96.93l.25-.15a.2.2,0,0,1,.11,0l.24.15a0,0,0,0,1,0,.09l-.24.15a.11.11,0,0,1-.11,0l-.25-.15A0,0,0,0,1,126.28,96.93Z"/><path class="cls-55" d="M126.8,97.25l.25-.14a.11.11,0,0,1,.11,0l.24.14a0,0,0,0,1,0,.09l-.24.15a.11.11,0,0,1-.11,0l-.25-.14A.06.06,0,0,1,126.8,97.25Z"/><path class="cls-55" d="M127.36,97.56l.25-.15a.09.09,0,0,1,.1,0l.25.14a.06.06,0,0,1,0,.09l-.24.15a.14.14,0,0,1-.11,0l-.25-.15A0,0,0,0,1,127.36,97.56Z"/><path class="cls-55" d="M127.9,97.87l.25-.15a.11.11,0,0,1,.11,0l.24.14a0,0,0,0,1,0,.09l-.24.15a.11.11,0,0,1-.11,0L127.9,98A.06.06,0,0,1,127.9,97.87Z"/><path class="cls-55" d="M128.44,98.2l.25-.15a.09.09,0,0,1,.1,0l.25.14a.06.06,0,0,1,0,.09l-.24.15a.11.11,0,0,1-.11,0l-.25-.14A0,0,0,0,1,128.44,98.2Z"/><path class="cls-55" d="M129,98.54l.25-.15a.11.11,0,0,1,.11,0l.24.14a0,0,0,0,1,0,.09l-.24.15a.14.14,0,0,1-.11,0l-.25-.15A0,0,0,0,1,129,98.54Z"/><path class="cls-55" d="M129.55,98.83l.25-.15a.09.09,0,0,1,.1,0l.25.14a.06.06,0,0,1,0,.09l-.24.15a.11.11,0,0,1-.11,0l-.25-.14A0,0,0,0,1,129.55,98.83Z"/><path class="cls-55" d="M123.51,96l.26-.15a.09.09,0,0,1,.1,0l.25.14a.06.06,0,0,1,0,.09l-.25.15a.09.09,0,0,1-.1,0l-.26-.14A.06.06,0,0,1,123.51,96Z"/><path class="cls-55" d="M124.08,96.31l.25-.15h.1l.25.15a.05.05,0,0,1,0,.09l-.24.15a.11.11,0,0,1-.11,0l-.25-.15A0,0,0,0,1,124.08,96.31Z"/><path class="cls-55" d="M124.62,96.62l.26-.15a.09.09,0,0,1,.1,0l.25.14a.06.06,0,0,1,0,.09l-.25.15a.09.09,0,0,1-.1,0l-.26-.14A.06.06,0,0,1,124.62,96.62Z"/><path class="cls-55" d="M125.21,96.94l.25-.15a.09.09,0,0,1,.1,0l.25.14a.06.06,0,0,1,0,.09l-.24.15a.11.11,0,0,1-.11,0l-.25-.14A0,0,0,0,1,125.21,96.94Z"/><path class="cls-55" d="M125.77,97.27l.25-.15a.09.09,0,0,1,.1,0l1.28.74a0,0,0,0,1,0,.09l-.24.15a.11.11,0,0,1-.11,0l-1.28-.74A0,0,0,0,1,125.77,97.27Z"/><path class="cls-55" d="M127.34,98.17l.25-.14a.11.11,0,0,1,.11,0l.24.14a0,0,0,0,1,0,.09l-.24.15a.11.11,0,0,1-.11,0l-.25-.15A.06.06,0,0,1,127.34,98.17Z"/><path class="cls-55" d="M127.88,98.5l.25-.15a.09.09,0,0,1,.1,0l.25.15a.06.06,0,0,1,0,.09l-.25.15a.09.09,0,0,1-.1,0l-.25-.15A0,0,0,0,1,127.88,98.5Z"/><path class="cls-55" d="M128.46,98.84l.25-.14a.11.11,0,0,1,.11,0l.24.14a0,0,0,0,1,0,.09l-.24.15a.11.11,0,0,1-.11,0l-.25-.14A.06.06,0,0,1,128.46,98.84Z"/><path class="cls-55" d="M129,99.13l.25-.15a.09.09,0,0,1,.1,0l.25.15a.06.06,0,0,1,0,.09l-.24.15a.11.11,0,0,1-.11,0l-.25-.15A0,0,0,0,1,129,99.13Z"/><path class="cls-63" d="M124,100.2a.64.64,0,0,1-.36-.15l-3.57-3a3.47,3.47,0,0,1-.93-4.13l1.71-3.68a.67.67,0,0,1,1.21.56l-1.72,3.68a2.15,2.15,0,0,0,.58,2.55l3.57,3a.68.68,0,0,1,.09.94A.69.69,0,0,1,124,100.2Z"/><path class="cls-2" d="M119.5,94.19a1.19,1.19,0,0,1-.36-.09,1.11,1.11,0,0,1-.53-1.47l1.81-3.91a1.11,1.11,0,0,1,2,.94l-1.82,3.9A1.09,1.09,0,0,1,119.5,94.19Z"/><path class="cls-2" d="M126.88,92.5a5.86,5.86,0,0,0-.54-2.9,5.56,5.56,0,0,0-2.15-2.23l-.86-.5c-1.11-.64-1.91.3-2.5,1.44-2.11,4.07-.12,9.75-1.27,13.57,0,0,4,1.89,5.11,1.9,1.57,0,4-.42,3.76-1A20.41,20.41,0,0,1,126.88,92.5Z"/><path class="cls-63" d="M123.83,88.43h0a.75.75,0,0,0,.75-.75V86a.76.76,0,0,0-.75-.75h0a.76.76,0,0,0-.75.75v1.65A.75.75,0,0,0,123.83,88.43Z"/><path class="cls-63" d="M129.55,99.68c-.33,0-1.14,0-1.3-.31l-2.22.28a.87.87,0,0,1-.92-.54,11.72,11.72,0,0,1-.83-4.83l.15-3.65a.9.9,0,0,1,1.8.08l-.16,3.65a4.41,4.41,0,0,0,.54,3.1l3.22,1c.46,0,.85.52.78.7S129.68,99.68,129.55,99.68Z"/><path class="cls-2" d="M125.17,96.24h0a1,1,0,0,1-1-1.06l.16-4.55a1,1,0,0,1,2.06.08l-.17,4.55A1,1,0,0,1,125.17,96.24Z"/><path class="cls-63" d="M122,87.64h0V82.49h4.46v.69A4.46,4.46,0,0,1,122,87.64Z"/><path class="cls-63" d="M129.17,98.88l1.75,0a.21.21,0,0,0,.21-.2h0a.21.21,0,0,0-.2-.21l-1.75,0a.21.21,0,0,0-.21.2h0A.22.22,0,0,0,129.17,98.88Z"/><path class="cls-63" d="M128.3,98.76l1.7-.37a.21.21,0,0,0,.16-.24h0a.21.21,0,0,0-.24-.16l-1.71.37a.22.22,0,0,0-.16.25h0A.21.21,0,0,0,128.3,98.76Z"/><path class="cls-97" d="M127.31,81.11A1.65,1.65,0,0,0,126,81c-.42.13-.8.35-1.22.49a2,2,0,0,1-1.09-.07,1.82,1.82,0,0,0-1.11,0,.71.71,0,0,0-.38.93,1.83,1.83,0,0,0-1,1.06,1.34,1.34,0,0,0,0,.69,4.49,4.49,0,0,1,0,.9,2.83,2.83,0,0,0,.41,2.34,1.29,1.29,0,0,0,1.53.31,1,1,0,0,0,.28-.23,1.85,1.85,0,0,0,.45-.85,2.77,2.77,0,0,1,.11-.48.48.48,0,0,1,.35-.31c.28,0,.61.41.88.18a.37.37,0,0,0,0-.46,3.7,3.7,0,0,0-.37-.42.59.59,0,0,1-.17-.52c.12-.37.81-.58,1.13-.72a4.45,4.45,0,0,0,1.38-.84,1.7,1.7,0,0,0,.55-1.16A.86.86,0,0,0,127.31,81.11Z"/></g></g></g></svg>