<svg xmlns="http://www.w3.org/2000/svg" xmlns:xlink="http://www.w3.org/1999/xlink" viewBox="0 0 1562.53 1252.92"><defs><style>.cls-1{fill:#fff;}.cls-2{fill:url(#linear-gradient);}.cls-3{fill:url(#linear-gradient-2);}.cls-4{fill:url(#linear-gradient-3);}.cls-5{fill:url(#linear-gradient-4);}.cls-6{fill:url(#linear-gradient-5);}.cls-7{fill:url(#linear-gradient-6);}.cls-8{fill:url(#linear-gradient-7);}.cls-9{fill:url(#linear-gradient-8);}.cls-10{fill:url(#linear-gradient-9);}.cls-11{fill:url(#linear-gradient-10);}.cls-12{fill:url(#linear-gradient-11);}.cls-13{fill:url(#linear-gradient-12);}.cls-14{fill:url(#linear-gradient-13);}.cls-15{fill:url(#linear-gradient-14);}.cls-16{fill:url(#linear-gradient-15);}.cls-17{fill:#e1e1e5;}.cls-18{fill:url(#linear-gradient-16);}.cls-19{fill:url(#linear-gradient-17);}.cls-20{fill:url(#linear-gradient-18);}.cls-21{fill:url(#linear-gradient-19);}.cls-22{fill:url(#linear-gradient-20);}.cls-23{fill:url(#linear-gradient-21);}.cls-24{fill:url(#linear-gradient-22);}.cls-25{fill:url(#linear-gradient-23);}.cls-26{fill:url(#linear-gradient-24);}.cls-27{fill:url(#linear-gradient-25);}.cls-28{fill:url(#linear-gradient-26);}.cls-29{fill:url(#linear-gradient-27);}.cls-30{fill:url(#linear-gradient-28);}.cls-31{fill:#a7a9ac;}.cls-32{fill:#f1f2f2;}.cls-33{fill:url(#linear-gradient-29);}.cls-34{fill:url(#linear-gradient-30);}.cls-35{fill:url(#linear-gradient-31);}.cls-36{fill:url(#linear-gradient-32);}.cls-37{fill:url(#linear-gradient-33);}.cls-38{fill:url(#linear-gradient-34);}.cls-39{fill:url(#linear-gradient-35);}.cls-40{fill:url(#linear-gradient-36);}.cls-41{fill:url(#linear-gradient-37);}.cls-42{fill:url(#linear-gradient-38);}.cls-43{fill:url(#linear-gradient-39);}.cls-44{fill:url(#linear-gradient-40);}.cls-45{fill:url(#linear-gradient-41);}.cls-46{fill:url(#linear-gradient-42);}.cls-47{fill:url(#linear-gradient-43);}.cls-48{fill:url(#linear-gradient-44);}.cls-49{fill:#d1d3d4;}</style><linearGradient id="linear-gradient" x1="101.49" y1="662.4" x2="1455.3" y2="662.4" gradientUnits="userSpaceOnUse"><stop offset="0" stop-color="#482d9d"/><stop offset="0.21" stop-color="#3e51b3"/><stop offset="0.75" stop-color="#26a7ea"/><stop offset="1" stop-color="#1dc9ff"/></linearGradient><linearGradient id="linear-gradient-2" x1="-172.81" y1="854.9" x2="1586.34" y2="466.44" xlink:href="#linear-gradient"/><linearGradient id="linear-gradient-3" x1="-216.17" y1="658.58" x2="1542.98" y2="270.11" gradientTransform="translate(445.81 100.58) rotate(45)" xlink:href="#linear-gradient"/><linearGradient id="linear-gradient-4" x1="-301.54" y1="271.99" x2="1457.61" y2="-116.47" xlink:href="#linear-gradient"/><linearGradient id="linear-gradient-5" x1="191.68" y1="227.04" x2="803.56" y2="227.04" xlink:href="#linear-gradient"/><linearGradient id="linear-gradient-6" x1="144.91" y1="306.01" x2="311.02" y2="306.01" xlink:href="#linear-gradient"/><linearGradient id="linear-gradient-7" x1="105.41" y1="656.87" x2="386.56" y2="656.87" xlink:href="#linear-gradient"/><linearGradient id="linear-gradient-8" x1="789.25" y1="110.36" x2="827.73" y2="110.36" xlink:href="#linear-gradient"/><linearGradient id="linear-gradient-9" x1="803.56" y1="211.14" x2="1388.46" y2="211.14" xlink:href="#linear-gradient"/><linearGradient id="linear-gradient-10" x1="1164.23" y1="603.55" x2="1442.55" y2="603.55" xlink:href="#linear-gradient"/><linearGradient id="linear-gradient-11" x1="1338.07" y1="844.65" x2="1455.3" y2="844.65" xlink:href="#linear-gradient"/><linearGradient id="linear-gradient-12" x1="106.1" y1="1094.58" x2="643.07" y2="1094.58" xlink:href="#linear-gradient"/><linearGradient id="linear-gradient-13" x1="101.51" y1="916.2" x2="208.25" y2="916.2" xlink:href="#linear-gradient"/><linearGradient id="linear-gradient-14" x1="1100.31" y1="1025.05" x2="1454.69" y2="1025.05" xlink:href="#linear-gradient"/><linearGradient id="linear-gradient-15" x1="803.56" y1="1338.02" x2="803.56" y2="1118.04" gradientUnits="userSpaceOnUse"><stop offset="0" stop-color="#9d9e9f"/><stop offset="1" stop-color="#d1d3d4"/></linearGradient><linearGradient id="linear-gradient-16" x1="337.12" y1="589.72" x2="1270" y2="589.72" gradientUnits="userSpaceOnUse"><stop offset="0" stop-color="#ffde39"/><stop offset="0.09" stop-color="#ffc63c"/><stop offset="0.29" stop-color="#fe9843"/><stop offset="0.42" stop-color="#fe7d4b"/><stop offset="0.65" stop-color="#fe4f59"/><stop offset="1" stop-color="#ed327f"/></linearGradient><linearGradient id="linear-gradient-17" x1="1067.78" y1="732.87" x2="1338.35" y2="388.69" xlink:href="#linear-gradient-16"/><linearGradient id="linear-gradient-18" x1="1065.88" y1="820.95" x2="418.68" y2="382.53" xlink:href="#linear-gradient-16"/><linearGradient id="linear-gradient-19" x1="337.12" y1="772.42" x2="1270" y2="772.42" xlink:href="#linear-gradient-16"/><linearGradient id="linear-gradient-20" x1="532.11" y1="972.43" x2="676.96" y2="747.59" xlink:href="#linear-gradient-16"/><linearGradient id="linear-gradient-21" x1="1120.54" y1="462.74" x2="892.57" y2="903.35" xlink:href="#linear-gradient-16"/><linearGradient id="linear-gradient-22" x1="548.71" y1="636.1" x2="358.53" y2="993.74" xlink:href="#linear-gradient-16"/><linearGradient id="linear-gradient-23" x1="337.12" y1="619.9" x2="1270" y2="619.9" xlink:href="#linear-gradient-16"/><linearGradient id="linear-gradient-24" x1="803.56" y1="979.26" x2="803.56" y2="1286.02" xlink:href="#linear-gradient-16"/><linearGradient id="linear-gradient-25" x1="552.04" y1="1005.06" x2="552.04" y2="1347.72" xlink:href="#linear-gradient-16"/><linearGradient id="linear-gradient-26" x1="1014.88" y1="887.8" x2="1014.88" y2="1058.51" gradientUnits="userSpaceOnUse"><stop offset="0" stop-color="#42e397"/><stop offset="1" stop-color="#3cb6b5"/></linearGradient><linearGradient id="linear-gradient-27" x1="1014.88" y1="887.8" x2="1014.88" y2="1058.51" xlink:href="#linear-gradient-26"/><linearGradient id="linear-gradient-28" x1="1014.88" y1="887.8" x2="1014.88" y2="1058.51" xlink:href="#linear-gradient-26"/><linearGradient id="linear-gradient-29" x1="1242.62" y1="-20.18" x2="1242.62" y2="457.47" xlink:href="#linear-gradient-26"/><linearGradient id="linear-gradient-30" x1="1300.25" y1="-20.18" x2="1300.25" y2="457.48" xlink:href="#linear-gradient-26"/><linearGradient id="linear-gradient-31" x1="1240.57" y1="311.81" x2="1228.72" y2="518.67" gradientUnits="userSpaceOnUse"><stop offset="0" stop-color="#582d7f"/><stop offset="0.21" stop-color="#4b5194"/><stop offset="0.75" stop-color="#2aa7c8"/><stop offset="1" stop-color="#1dc9dc"/></linearGradient><linearGradient id="linear-gradient-32" x1="1244.66" y1="199.52" x2="1214.49" y2="386.99" xlink:href="#linear-gradient-31"/><linearGradient id="linear-gradient-33" x1="1251.85" y1="-57.92" x2="1238.92" y2="230.82" xlink:href="#linear-gradient-31"/><linearGradient id="linear-gradient-34" x1="-58.85" y1="2280.38" x2="-145.78" y2="2280.38" gradientTransform="matrix(0.97, -0.26, 0.26, 0.97, -136.15, -2003.26)" gradientUnits="userSpaceOnUse"><stop offset="0" stop-color="#f1f2f2"/><stop offset="1" stop-color="#fff"/></linearGradient><linearGradient id="linear-gradient-35" x1="-187.7" y1="2280.77" x2="75.44" y2="2280.77" gradientTransform="matrix(0.97, -0.26, 0.26, 0.97, -136.15, -2003.26)" xlink:href="#linear-gradient-16"/><linearGradient id="linear-gradient-36" x1="-284.9" y1="2280.77" x2="-23.59" y2="2280.77" gradientTransform="matrix(0.97, -0.26, 0.26, 0.97, -136.15, -2003.26)" xlink:href="#linear-gradient-16"/><linearGradient id="linear-gradient-37" x1="-450.85" y1="2280.38" x2="-349.93" y2="2280.38" gradientTransform="matrix(0.97, -0.26, 0.26, 0.97, -136.15, -2003.26)" gradientUnits="userSpaceOnUse"><stop offset="0" stop-color="#ceecfa"/><stop offset="1" stop-color="#ee6ee4"/></linearGradient><linearGradient id="linear-gradient-38" x1="-374.77" y1="2280.38" x2="-86" y2="2280.38" gradientTransform="translate(455.17 -2021.16)" xlink:href="#linear-gradient-37"/><linearGradient id="linear-gradient-39" x1="-226.9" y1="2147.26" x2="-226.9" y2="2228.82" gradientTransform="matrix(0.97, -0.26, 0.26, 0.97, -136.15, -2003.26)" gradientUnits="userSpaceOnUse"><stop offset="0" stop-color="#a7a9ac"/><stop offset="1" stop-color="#808285"/></linearGradient><linearGradient id="linear-gradient-40" x1="-201.43" y1="2147.26" x2="-201.43" y2="2228.82" xlink:href="#linear-gradient-39"/><linearGradient id="linear-gradient-41" x1="-279.44" y1="2147.26" x2="-279.44" y2="2228.82" xlink:href="#linear-gradient-39"/><linearGradient id="linear-gradient-42" x1="-166.35" y1="2147.26" x2="-166.35" y2="2228.82" xlink:href="#linear-gradient-39"/><linearGradient id="linear-gradient-43" x1="-229.08" y1="2147.26" x2="-229.08" y2="2228.82" xlink:href="#linear-gradient-39"/><linearGradient id="linear-gradient-44" x1="-290.21" y1="2147.26" x2="-290.21" y2="2228.82" xlink:href="#linear-gradient-39"/></defs><title>Fichier 1</title><g id="Calque_2" data-name="Calque 2"><g id="Layer_11" data-name="Layer 11"><path class="cls-1" d="M700.15,184a4,4,0,0,1-2.95-4.77l2.3-9.74a4,4,0,0,1,7.71,1.81l-2.3,9.75A4,4,0,0,1,700.15,184Z"/><path class="cls-1" d="M693.87,210.65a4,4,0,0,1-3-4.77l2.3-9.74a4,4,0,0,1,7.71,1.81l-2.29,9.75A4,4,0,0,1,693.87,210.65Z"/><path class="cls-1" d="M716.35,196.74l-9.75-2.29a4,4,0,0,1,1.82-7.72l9.75,2.3a4,4,0,0,1-1.82,7.71Z"/><path class="cls-1" d="M689.71,190.46,680,188.17a4,4,0,0,1,1.82-7.71l9.75,2.29a4,4,0,1,1-1.82,7.71Z"/><path class="cls-1" d="M866.77,233.08a4,4,0,0,1-2.95-4.77l2.3-9.74a4,4,0,0,1,7.71,1.81l-2.3,9.75A4,4,0,0,1,866.77,233.08Z"/><path class="cls-1" d="M860.49,259.72a4,4,0,0,1-3-4.77l2.3-9.74a4,4,0,1,1,7.71,1.81l-2.29,9.75A4,4,0,0,1,860.49,259.72Z"/><path class="cls-1" d="M883,245.81l-9.75-2.29A4,4,0,0,1,875,235.8l9.75,2.3a4,4,0,0,1-1.82,7.71Z"/><path class="cls-1" d="M856.33,239.54l-9.75-2.3a4,4,0,0,1,1.82-7.71l9.75,2.29a4,4,0,0,1-1.82,7.72Z"/><path class="cls-1" d="M619.39,297.59a4,4,0,0,1-2.95-4.77l2.3-9.75a4,4,0,0,1,7.71,1.82l-2.29,9.75A4,4,0,0,1,619.39,297.59Z"/><path class="cls-1" d="M613.12,324.22a4,4,0,0,1-3-4.76l2.29-9.75a4,4,0,0,1,7.72,1.82l-2.3,9.75A3.94,3.94,0,0,1,613.12,324.22Z"/><path class="cls-1" d="M635.6,310.32l-9.75-2.3a4,4,0,1,1,1.82-7.71l9.74,2.3a4,4,0,1,1-1.81,7.71Z"/><path class="cls-1" d="M609,304l-9.75-2.29A4,4,0,0,1,601,294l9.74,2.3A4,4,0,1,1,609,304Z"/><path class="cls-1" d="M290.82,456.56a4,4,0,0,1-2.95-4.76l2.3-9.75a4,4,0,0,1,7.71,1.82l-2.29,9.75A4,4,0,0,1,290.82,456.56Z"/><path class="cls-1" d="M284.54,483.2a4,4,0,0,1-2.94-4.76l2.29-9.75a4,4,0,0,1,7.72,1.82l-2.3,9.75A4,4,0,0,1,284.54,483.2Z"/><path class="cls-1" d="M307,469.3l-9.74-2.3a4,4,0,0,1,1.81-7.71l9.75,2.29A4,4,0,1,1,307,469.3Z"/><path class="cls-1" d="M280.38,463l-9.74-2.3a4,4,0,0,1,1.81-7.71l9.75,2.3a4,4,0,1,1-1.82,7.71Z"/><path class="cls-1" d="M653.08,226.87a2.61,2.61,0,0,1-3.51-1.13l-3-5.88a2.61,2.61,0,0,1,4.65-2.38l3,5.88A2.6,2.6,0,0,1,653.08,226.87Z"/><path class="cls-1" d="M661.3,242.93a2.62,2.62,0,0,1-3.52-1.13l-3-5.88a2.61,2.61,0,0,1,4.65-2.38l3,5.88A2.61,2.61,0,0,1,661.3,242.93Z"/><path class="cls-1" d="M666.66,226.36l-5.88,3a2.61,2.61,0,0,1-2.38-4.65l5.88-3a2.61,2.61,0,0,1,2.38,4.65Z"/><path class="cls-1" d="M650.6,234.57l-5.88,3a2.61,2.61,0,0,1-2.38-4.65l5.88-3a2.61,2.61,0,0,1,2.38,4.65Z"/><path class="cls-1" d="M842.85,296.64a2.61,2.61,0,0,1-3.51-1.13l-3-5.88a2.61,2.61,0,1,1,4.64-2.37l3,5.87A2.6,2.6,0,0,1,842.85,296.64Z"/><path class="cls-1" d="M851.07,312.7a2.62,2.62,0,0,1-3.52-1.13l-3-5.88a2.61,2.61,0,0,1,4.65-2.38l3,5.88A2.6,2.6,0,0,1,851.07,312.7Z"/><path class="cls-1" d="M856.42,296.13l-5.87,3a2.61,2.61,0,0,1-2.38-4.65l5.88-3a2.61,2.61,0,1,1,2.37,4.65Z"/><path class="cls-1" d="M840.37,304.34l-5.88,3a2.61,2.61,0,0,1-2.38-4.65l5.88-3a2.61,2.61,0,0,1,2.38,4.65Z"/><path class="cls-1" d="M552.22,257.14a2.6,2.6,0,0,1-3.51-1.14l-3-5.87a2.61,2.61,0,1,1,4.65-2.38l3,5.88A2.6,2.6,0,0,1,552.22,257.14Z"/><path class="cls-1" d="M560.44,273.2a2.62,2.62,0,0,1-3.52-1.14l-3-5.87a2.61,2.61,0,1,1,4.65-2.38l3,5.87A2.62,2.62,0,0,1,560.44,273.2Z"/><path class="cls-1" d="M565.8,256.62l-5.88,3a2.61,2.61,0,0,1-2.38-4.65l5.88-3a2.61,2.61,0,0,1,2.38,4.65Z"/><path class="cls-1" d="M549.74,264.83l-5.88,3a2.61,2.61,0,0,1-2.38-4.65l5.88-3a2.61,2.61,0,0,1,2.38,4.64Z"/><path class="cls-1" d="M520.55,323.21a1.27,1.27,0,0,1-1.79-.09l-2.15-2.38a1.27,1.27,0,1,1,1.88-1.7l2.15,2.38A1.27,1.27,0,0,1,520.55,323.21Z"/><path class="cls-1" d="M526.42,329.72a1.27,1.27,0,0,1-1.79-.09l-2.15-2.39a1.27,1.27,0,0,1,1.89-1.7l2.14,2.39A1.27,1.27,0,0,1,526.42,329.72Z"/><path class="cls-1" d="M526.86,321.26l-2.38,2.15a1.27,1.27,0,1,1-1.7-1.88l2.38-2.15a1.27,1.27,0,0,1,1.7,1.88Z"/><path class="cls-1" d="M520.35,327.14,518,329.28a1.27,1.27,0,1,1-1.7-1.88l2.38-2.15a1.27,1.27,0,0,1,1.7,1.89Z"/><path class="cls-1" d="M769.63,209.63a1.27,1.27,0,0,1-1.79-.09l-2.15-2.38a1.27,1.27,0,0,1,1.89-1.7l2.14,2.38A1.27,1.27,0,0,1,769.63,209.63Z"/><path class="cls-1" d="M775.5,216.14a1.27,1.27,0,0,1-1.79-.09l-2.15-2.38a1.27,1.27,0,0,1,1.89-1.7l2.15,2.38A1.27,1.27,0,0,1,775.5,216.14Z"/><path class="cls-1" d="M775.94,207.69l-2.38,2.14a1.27,1.27,0,0,1-1.7-1.88l2.38-2.15a1.27,1.27,0,0,1,1.7,1.89Z"/><path class="cls-1" d="M769.43,213.56l-2.38,2.15a1.27,1.27,0,0,1-1.7-1.89l2.38-2.15a1.27,1.27,0,0,1,1.7,1.89Z"/><path class="cls-1" d="M688.09,304a1.27,1.27,0,0,1-1.79-.09l-2.15-2.38a1.27,1.27,0,0,1,1.89-1.7l2.14,2.38A1.27,1.27,0,0,1,688.09,304Z"/><path class="cls-1" d="M694,310.51a1.27,1.27,0,0,1-1.79-.09L690,308a1.27,1.27,0,1,1,1.89-1.7l2.15,2.38A1.27,1.27,0,0,1,694,310.51Z"/><path class="cls-1" d="M694.4,302.06,692,304.2a1.27,1.27,0,0,1-1.7-1.88l2.38-2.15a1.27,1.27,0,0,1,1.7,1.89Z"/><path class="cls-1" d="M687.89,307.93l-2.38,2.14a1.27,1.27,0,0,1-1.7-1.88l2.38-2.15a1.27,1.27,0,0,1,1.7,1.89Z"/><path class="cls-1" d="M349.59,550.35a1.27,1.27,0,0,1-1.79-.1l-2.15-2.38a1.27,1.27,0,0,1,1.89-1.7l2.15,2.38A1.29,1.29,0,0,1,349.59,550.35Z"/><path class="cls-1" d="M355.47,556.85a1.28,1.28,0,0,1-1.8-.09l-2.14-2.38a1.27,1.27,0,0,1,1.88-1.7l2.15,2.38A1.27,1.27,0,0,1,355.47,556.85Z"/><path class="cls-1" d="M355.9,548.4l-2.38,2.15a1.27,1.27,0,0,1-1.7-1.89l2.38-2.14a1.27,1.27,0,0,1,1.7,1.88Z"/><path class="cls-1" d="M349.39,554.27,347,556.42a1.27,1.27,0,0,1-1.7-1.88l2.38-2.15a1.27,1.27,0,0,1,1.7,1.88Z"/><path class="cls-1" d="M765.74,287.73a1.27,1.27,0,0,1-1.79-.09l-2.15-2.38a1.27,1.27,0,0,1,1.88-1.7l2.15,2.38A1.27,1.27,0,0,1,765.74,287.73Z"/><path class="cls-1" d="M771.61,294.24a1.27,1.27,0,0,1-1.79-.09l-2.15-2.38a1.27,1.27,0,0,1,1.88-1.7l2.15,2.38A1.27,1.27,0,0,1,771.61,294.24Z"/><path class="cls-1" d="M772,285.79l-2.38,2.15a1.27,1.27,0,0,1-1.7-1.89l2.38-2.15a1.27,1.27,0,0,1,1.7,1.89Z"/><path class="cls-1" d="M765.54,291.66l-2.38,2.15a1.27,1.27,0,1,1-1.7-1.89l2.38-2.14a1.27,1.27,0,0,1,1.7,1.88Z"/><path class="cls-2" d="M383.68,1249.46c-119.65-17.23-216.54-97.4-259.85-211.8-27.63-73-29.29-153.88-6.87-228.25,10.87-36,27.33-71.18,49.59-102.25,24.62-34.36,53.57-65.35,54.33-109.16,1.41-80.85-74-140.71-75.9-223.3-1.82-79.52,31.49-160,92.67-215.82,48.92-44.63,119-75.78,187.51-81.38,84.66-6.93,168.23,27.64,252.36,31.57,158.08,7.39,311.61-54.69,470.08-32.28,66.58,9.42,132.15,34.73,179.19,79.67,44.88,42.88,70.11,103.14,59.1,163.09-8.79,47.79-36,90.68-44,138.78-9.15,54.55,7,110.68,28.75,161,46.13,106.77,105.63,201.58,77.39,321.32-17.79,75.46-67.35,144.8-137.75,185.53-134.63,77.88-292.36,37.15-439.67,33.79-57.44-1.3-119.11,2.71-173.71,20.21-69,22.11-130.42,55.31-203.48,67.6A355.13,355.13,0,0,1,383.68,1249.46Z"/><ellipse class="cls-3" cx="1462.91" cy="493.69" rx="99.62" ry="165.27"/><circle class="cls-4" cx="101.49" cy="588.43" r="101.49" transform="translate(-386.36 244.11) rotate(-45)"/><ellipse class="cls-5" cx="707.82" cy="49.1" rx="130.35" ry="49.1"/><path class="cls-6" d="M294.83,286.47c14.75,27.85,16.55,59.06,16.13,91A363.8,363.8,0,0,0,362.35,351c59.45-36.74,109.27-86.79,163.12-131.32,25.39-21,52.41-41.18,83.78-51.26,41.33-13.28,86.47-7.85,128.8-17.52a179.75,179.75,0,0,0,65.51-30.13,149.61,149.61,0,0,1-14.31-16.13c-37.07,4-74.27,6.15-111.73,4.4-84.13-3.93-167.7-38.5-252.36-31.57-68.56,5.6-138.59,36.75-187.51,81.38a282,282,0,0,0-46,54.12C234.81,226.52,274.26,247.63,294.83,286.47Z"/><path class="cls-7" d="M311,377.49c.42-32-1.38-63.17-16.13-91-20.57-38.84-60-60-103.15-73.47-31.55,48.27-48,105.22-46.7,161.7.1,4.17.39,8.29.84,12.36a92.51,92.51,0,0,0,16.94,6.06C211.93,405.68,263.59,397.16,311,377.49Z"/><path class="cls-8" d="M208.25,936.24q4.51-2.21,9-4.52c66.07-34.37,124.39-88.09,152-157.24,26.11-65.29,22.49-141.83-9.68-204.37-13.36-26-31.42-49.77-40.73-77.47-12.2-36.34-8.4-76.29-7.89-115.15-47.37,19.67-99,28.19-148.2,15.63a92.51,92.51,0,0,1-16.94-6.06c8.5,76.34,76.4,134.19,75.06,210.94-.76,43.81-29.71,74.8-54.33,109.16-22.26,31.07-38.72,66.2-49.59,102.25a365.19,365.19,0,0,0-11.55,51.76c24.32,3.77,47.27,11.51,66.07,27.18C187.1,901.37,198,918.47,208.25,936.24Z"/><path class="cls-9" d="M803.56,120.8a193.54,193.54,0,0,0,24.17-20.87c-12.81,1.74-25.64,3.35-38.48,4.74A149.61,149.61,0,0,0,803.56,120.8Z"/><path class="cls-10" d="M1353.43,187.17a215.63,215.63,0,0,0-26.64-30.71c-47-44.94-112.61-70.25-179.19-79.67-107.91-15.26-213.54,8.66-319.87,23.14a193.54,193.54,0,0,1-24.17,20.87,158.24,158.24,0,0,0,38.93,27.86c41.36,20.94,89.56,24.79,135.7,20.27,34.93-3.43,70.36-11.38,104.7-4.14,55.9,11.79,95.22,60.1,133,103,20.59,23.37,44.34,46.88,70.92,62.82,22.17,13.3,46.31,21.32,72.24,19.58a109.39,109.39,0,0,0,19.92-3.26,230.86,230.86,0,0,0,6.93-27.34C1394.47,272.82,1381,225.9,1353.43,187.17Z"/><path class="cls-11" d="M1341.85,458.33c6.5-38.77,25.42-74.15,37.11-111.44a109.39,109.39,0,0,1-19.92,3.26c-25.93,1.74-50.07-6.28-72.24-19.58-2.54,13.79-5.71,27.39-10.67,40.49-16.8,44.34-52.3,78.69-76.53,119.45-53.95,90.76-45.09,214,19.12,297.78,30.57,39.9,72.58,70,119.35,88.25,29-23.17,51.74-54.15,83.18-73.95a98.64,98.64,0,0,1,21.3-10c-16.54-58.29-46.31-114-72-173.3C1348.87,569,1332.7,512.88,1341.85,458.33Z"/><path class="cls-12" d="M1338.07,876.54a292.86,292.86,0,0,0,116.62,20c2.46-36.29-2.68-70.52-12.14-103.89a98.64,98.64,0,0,0-21.3,10C1389.81,822.39,1367,853.37,1338.07,876.54Z"/><path class="cls-13" d="M593.63,1130.61c-52.36-48-123.46-70.36-193.66-81.23-52.5-8.12-110.3-12.6-148.6-49.41-18.49-17.78-30.23-41.29-43.12-63.73a433.94,433.94,0,0,1-102.15,35,343.33,343.33,0,0,0,17.73,66.43c43.31,114.4,140.2,194.57,259.85,211.8a355.13,355.13,0,0,0,109.7-1.7c53.64-9,101-29.31,149.69-48.21A209.3,209.3,0,0,0,593.63,1130.61Z"/><path class="cls-14" d="M171.48,888.35c-18.8-15.67-41.75-23.41-66.07-27.18a359.13,359.13,0,0,0,.69,110.06,433.94,433.94,0,0,0,102.15-35C198,918.47,187.1,901.37,171.48,888.35Z"/><path class="cls-15" d="M1338.07,876.54c-3.53,2.82-7.15,5.54-10.89,8.1-23.61,16.14-51,25.66-76.34,39-61.77,32.5-110.65,88.75-134.21,154.45a281.85,281.85,0,0,0-16.32,95.5c72.88.38,144.16-9.36,209.93-47.4,70.4-40.73,120-110.07,137.75-185.53a272.24,272.24,0,0,0,6.7-44.13A292.86,292.86,0,0,1,1338.07,876.54Z"/></g><g id="DIGITAL"><path class="cls-1" d="M569.89,205.15a4,4,0,0,1-2.95-4.76l2.3-9.75a4,4,0,0,1,7.71,1.82l-2.3,9.75A3.94,3.94,0,0,1,569.89,205.15Z"/><path class="cls-1" d="M563.61,231.79a4,4,0,0,1-3-4.76l2.3-9.75a4,4,0,0,1,7.71,1.82l-2.29,9.75A4,4,0,0,1,563.61,231.79Z"/><path class="cls-1" d="M586.09,217.89l-9.75-2.3a4,4,0,0,1,1.82-7.71l9.75,2.3a4,4,0,1,1-1.82,7.71Z"/><path class="cls-1" d="M559.45,211.61l-9.75-2.29a4,4,0,0,1,1.82-7.72l9.75,2.3a4,4,0,1,1-1.82,7.71Z"/><path class="cls-1" d="M648.34,171.74a2.61,2.61,0,0,1-3.52-1.14l-3-5.87a2.61,2.61,0,0,1,4.65-2.38l3,5.88A2.61,2.61,0,0,1,648.34,171.74Z"/><path class="cls-1" d="M656.55,187.8a2.61,2.61,0,0,1-3.51-1.14l-3-5.87a2.61,2.61,0,1,1,4.65-2.38l3,5.87A2.63,2.63,0,0,1,656.55,187.8Z"/><path class="cls-1" d="M661.91,171.22l-5.88,3a2.61,2.61,0,1,1-2.37-4.65l5.87-3a2.61,2.61,0,0,1,2.38,4.65Z"/><path class="cls-1" d="M645.85,179.43l-5.87,3a2.61,2.61,0,1,1-2.38-4.65l5.87-3a2.61,2.61,0,1,1,2.38,4.64Z"/><path class="cls-1" d="M630.17,215.81a1.27,1.27,0,0,1-1.79-.09l-2.15-2.38a1.27,1.27,0,0,1,1.88-1.7l2.15,2.38A1.27,1.27,0,0,1,630.17,215.81Z"/><path class="cls-1" d="M636,222.32a1.27,1.27,0,0,1-1.79-.1l-2.15-2.38a1.27,1.27,0,0,1,1.88-1.7l2.15,2.38A1.28,1.28,0,0,1,636,222.32Z"/><path class="cls-1" d="M636.47,213.86,634.09,216a1.27,1.27,0,0,1-1.7-1.88l2.38-2.15a1.27,1.27,0,1,1,1.7,1.88Z"/><path class="cls-1" d="M630,219.73l-2.39,2.15a1.26,1.26,0,1,1-1.69-1.88l2.38-2.15a1.27,1.27,0,1,1,1.7,1.88Z"/><path class="cls-1" d="M602.56,260.25a1.28,1.28,0,0,1-1.8-.09l-2.14-2.38a1.27,1.27,0,0,1,1.88-1.7l2.15,2.38A1.27,1.27,0,0,1,602.56,260.25Z"/><path class="cls-1" d="M608.43,266.76a1.27,1.27,0,0,1-1.79-.09l-2.15-2.38a1.27,1.27,0,0,1,1.88-1.7l2.15,2.38A1.27,1.27,0,0,1,608.43,266.76Z"/><path class="cls-1" d="M608.86,258.31l-2.38,2.14a1.27,1.27,0,0,1-1.7-1.88l2.38-2.15a1.27,1.27,0,0,1,1.7,1.89Z"/><path class="cls-1" d="M602.35,264.18,600,266.33a1.27,1.27,0,0,1-1.7-1.89l2.38-2.15a1.29,1.29,0,0,1,1.8.1A1.27,1.27,0,0,1,602.35,264.18Z"/><path class="cls-1" d="M782.49,255.16a4,4,0,0,1-3-4.77l2.3-9.74a4,4,0,1,1,7.71,1.82l-2.3,9.74A4,4,0,0,1,782.49,255.16Z"/><path class="cls-1" d="M776.21,281.8a4,4,0,0,1-3-4.77l2.3-9.74a4,4,0,1,1,7.71,1.82l-2.3,9.74A4,4,0,0,1,776.21,281.8Z"/><path class="cls-1" d="M798.69,267.89l-9.75-2.29a4,4,0,0,1,1.82-7.72l9.75,2.3a4,4,0,0,1-1.82,7.71Z"/><path class="cls-1" d="M772.05,261.62l-9.75-2.3a4,4,0,0,1,1.82-7.71l9.75,2.29a4,4,0,0,1-1.82,7.72Z"/><path class="cls-1" d="M860.94,221.74a2.62,2.62,0,0,1-3.52-1.13l-3-5.88a2.61,2.61,0,1,1,4.65-2.37l3,5.87A2.6,2.6,0,0,1,860.94,221.74Z"/><path class="cls-1" d="M869.15,237.8a2.6,2.6,0,0,1-3.51-1.13l-3-5.88a2.61,2.61,0,0,1,4.65-2.38l3,5.88A2.62,2.62,0,0,1,869.15,237.8Z"/><path class="cls-1" d="M874.51,221.23l-5.88,3a2.61,2.61,0,1,1-2.37-4.65l5.87-3a2.61,2.61,0,0,1,2.38,4.65Z"/><path class="cls-1" d="M858.45,229.44l-5.88,3a2.61,2.61,0,1,1-2.37-4.65l5.87-3a2.61,2.61,0,0,1,2.38,4.65Z"/><path class="cls-1" d="M842.77,265.81a1.28,1.28,0,0,1-1.8-.09l-2.14-2.38a1.27,1.27,0,0,1,1.88-1.7l2.15,2.38A1.27,1.27,0,0,1,842.77,265.81Z"/><path class="cls-1" d="M848.64,272.32a1.27,1.27,0,0,1-1.79-.09l-2.15-2.38a1.27,1.27,0,0,1,1.88-1.7l2.15,2.38A1.27,1.27,0,0,1,848.64,272.32Z"/><path class="cls-1" d="M849.07,263.87,846.69,266a1.27,1.27,0,0,1-1.7-1.89l2.38-2.15a1.27,1.27,0,0,1,1.7,1.89Z"/><path class="cls-1" d="M842.56,269.74l-2.38,2.15a1.27,1.27,0,0,1-1.7-1.89l2.38-2.14a1.27,1.27,0,1,1,1.7,1.88Z"/><path class="cls-1" d="M815.15,310.26a1.27,1.27,0,0,1-1.79-.09l-2.15-2.38a1.27,1.27,0,1,1,1.89-1.7l2.15,2.38A1.27,1.27,0,0,1,815.15,310.26Z"/><path class="cls-1" d="M821,316.76a1.28,1.28,0,0,1-1.8-.09l-2.14-2.38a1.27,1.27,0,0,1,1.88-1.7l2.15,2.38A1.27,1.27,0,0,1,821,316.76Z"/><path class="cls-1" d="M821.46,308.31l-2.38,2.15a1.27,1.27,0,0,1-1.7-1.88l2.38-2.15a1.27,1.27,0,1,1,1.7,1.88Z"/><path class="cls-1" d="M815,314.18l-2.38,2.15a1.27,1.27,0,0,1-1.7-1.88l2.38-2.15a1.27,1.27,0,1,1,1.7,1.88Z"/><path class="cls-1" d="M1427.81,465.62a4,4,0,0,1-3-4.76l2.29-9.75a4,4,0,0,1,7.72,1.82l-2.3,9.74A4,4,0,0,1,1427.81,465.62Z"/><path class="cls-1" d="M1421.53,492.26a4,4,0,0,1-3-4.76l2.3-9.75a4,4,0,1,1,7.71,1.82l-2.3,9.74A4,4,0,0,1,1421.53,492.26Z"/><path class="cls-1" d="M1444,478.35l-9.75-2.29a4,4,0,1,1,1.82-7.71l9.75,2.29a4,4,0,0,1-1.82,7.71Z"/><path class="cls-1" d="M1417.37,472.08l-9.75-2.3a4,4,0,1,1,1.82-7.71l9.75,2.3a4,4,0,0,1-1.82,7.71Z"/><path class="cls-1" d="M1506.26,432.21a2.63,2.63,0,0,1-3.52-1.14l-3-5.88a2.61,2.61,0,1,1,4.65-2.37l3,5.87A2.62,2.62,0,0,1,1506.26,432.21Z"/><path class="cls-1" d="M1514.47,448.26a2.62,2.62,0,0,1-3.52-1.13l-3-5.88a2.61,2.61,0,0,1,4.65-2.37l3,5.87A2.6,2.6,0,0,1,1514.47,448.26Z"/><path class="cls-1" d="M1519.83,431.69l-5.88,3a2.61,2.61,0,0,1-2.38-4.65l5.88-3a2.61,2.61,0,0,1,2.38,4.65Z"/><path class="cls-1" d="M1503.77,439.9l-5.88,3a2.61,2.61,0,0,1-2.37-4.65l5.87-3a2.61,2.61,0,0,1,2.38,4.65Z"/><path class="cls-1" d="M1488.08,476.28a1.28,1.28,0,0,1-1.79-.1l-2.15-2.38a1.27,1.27,0,0,1,1.89-1.7l2.15,2.38A1.28,1.28,0,0,1,1488.08,476.28Z"/><path class="cls-1" d="M1494,482.78a1.28,1.28,0,0,1-1.8-.09l-2.14-2.38a1.27,1.27,0,0,1,1.88-1.7l2.15,2.38A1.27,1.27,0,0,1,1494,482.78Z"/><path class="cls-1" d="M1494.39,474.33l-2.38,2.15a1.27,1.27,0,0,1-1.7-1.89l2.38-2.15a1.27,1.27,0,0,1,1.7,1.89Z"/><path class="cls-1" d="M1487.88,480.2l-2.38,2.15a1.27,1.27,0,0,1-1.7-1.89l2.38-2.14a1.27,1.27,0,1,1,1.7,1.88Z"/><path class="cls-1" d="M1460.47,520.72a1.27,1.27,0,0,1-1.79-.09l-2.15-2.38a1.27,1.27,0,0,1,1.89-1.7l2.14,2.38A1.27,1.27,0,0,1,1460.47,520.72Z"/><path class="cls-1" d="M1466.34,527.23a1.27,1.27,0,0,1-1.79-.1l-2.15-2.38a1.27,1.27,0,0,1,1.89-1.7l2.15,2.38A1.28,1.28,0,0,1,1466.34,527.23Z"/><path class="cls-1" d="M1466.78,518.77l-2.38,2.15a1.27,1.27,0,0,1-1.7-1.88l2.38-2.15a1.27,1.27,0,0,1,1.7,1.88Z"/><path class="cls-1" d="M1460.27,524.64l-2.38,2.15a1.27,1.27,0,0,1-1.7-1.88l2.38-2.15a1.27,1.27,0,0,1,1.7,1.88Z"/><path class="cls-16" d="M1341.67,1132.25V540.54a57.24,57.24,0,0,0-57.24-57.23H322.68a57.23,57.23,0,0,0-57.23,57.23v591.71l0,27.72H1341.68Zm-71.67-36H337.12V564.26H1270Z"/><path class="cls-17" d="M1360.5,1224.18H246.62a69.37,69.37,0,0,1-68.16-56.5h0a21.28,21.28,0,0,1,20.91-25.22H1407.74a21.28,21.28,0,0,1,20.91,25.22h0A69.35,69.35,0,0,1,1360.5,1224.18Z"/><path class="cls-1" d="M959.69,1177.92H647.42a11.16,11.16,0,0,1-11.16-11.16v-24.3H970.85v24.3A11.16,11.16,0,0,1,959.69,1177.92Z"/><rect class="cls-1" x="337.12" y="564.26" width="932.87" height="531.94"/><path class="cls-18" d="M943.15,592.17c18.61-2.75,37.09-11.69,55.27-7.38,15.89,3.77,25.59,16.45,30.19,30.32,3.35-4,6.54-8.14,9.51-12.41,8.49-12.23,15.14-25.23,21.51-38.36H870a61.51,61.51,0,0,0,9.83,10.7C896,588.92,920.44,595.53,943.15,592.17Z"/><path class="cls-19" d="M1028.61,615.11a63.7,63.7,0,0,1,2.79,12.58c2.13,18.06-.87,36.82,6,54,10.43,26.22,45.39,43.62,77.54,38.59,30.51-4.77,53.07-25.84,78.81-40.49,23.14-13.17,49.08-21.12,76.28-25.28V564.34H1059.63c-6.37,13.13-13,26.13-21.51,38.36C1035.15,607,1032,611.1,1028.61,615.11Z"/><path class="cls-20" d="M626.48,667.62c29.59,5.6,56.5,20.51,74.76,41,38.8-1.66,77.81.34,116.55-2.34,81.21-5.61,164.14-35.42,210.82-91.13-4.6-13.87-14.3-26.55-30.19-30.32-18.18-4.31-36.66,4.63-55.27,7.38-22.71,3.36-47.16-3.25-63.36-17.13a61.51,61.51,0,0,1-9.83-10.7H496.83c4.31,26.27-1.21,55.09,18.15,75.43C539.93,666,587.66,660.28,626.48,667.62Z"/><path class="cls-21" d="M1270,806.39V738.44c-59.31,11.85-115.47,34.88-162.16,67.95Z"/><path class="cls-22" d="M710.29,720.26a106.75,106.75,0,0,0-9-11.68c-3.22.14-6.42.29-9.63.49-42,2.52-85,10.77-118.33,32.54-24,15.72-41.77,39.74-45.54,64.78H680.59c2.46,9.83,12.76,17.21,25.11,17.21h41.71c-1.17-2.71-2.29-5.42-3.32-8.16C732.21,783.76,729.59,749.2,710.29,720.26Z"/><path class="cls-23" d="M1193.72,679.81c-25.74,14.65-48.3,35.72-78.81,40.49-32.15,5-67.11-12.37-77.54-38.59-6.84-17.2-3.84-36-6-54a63.7,63.7,0,0,0-2.79-12.58C981.93,670.82,899,700.63,817.79,706.24c-38.74,2.68-77.75.68-116.55,2.34a106.75,106.75,0,0,1,9,11.68c19.3,28.94,21.92,63.5,33.8,95.18,1,2.74,2.15,5.45,3.32,8.16h154c12.34,0,22.64-7.38,25.1-17.21h181.32c46.69-33.07,102.85-56.1,162.16-67.95V654.53C1242.8,658.69,1216.86,666.64,1193.72,679.81Z"/><path class="cls-24" d="M573.28,741.61c33.3-21.77,76.35-30,118.33-32.54,3.21-.2,6.41-.35,9.63-.49-18.26-20.45-45.17-35.36-74.76-41-38.82-7.34-86.55-1.64-111.5-27.85-19.36-20.34-13.84-49.16-18.15-75.43h-1.17c-7.61,13.08-14.85,26.37-23,39.15-18.83,29.47-45.47,58.15-83.32,68-16.79,4.35-34.71,4.65-52.2,3.25V806.39H527.74C531.51,781.35,549.24,757.33,573.28,741.61Z"/><path class="cls-25" d="M389.32,671.46c37.85-9.82,64.49-38.5,83.32-68,8.17-12.78,15.41-26.07,23-39.15H337.12V674.71C354.61,676.11,372.53,675.81,389.32,671.46Z"/><path class="cls-26" d="M877.74,661.44a74.19,74.19,0,1,0-118.58,59.44v-3.33c0-26.2,18.2-44.14,44.4-44.14S848,691.35,848,717.55v3.33A74.06,74.06,0,0,0,877.74,661.44Z"/><path class="cls-1" d="M803.56,673.41c-26.2,0-44.4,17.94-44.4,44.14v3.33a74.19,74.19,0,0,0,88.79,0v-3.33C848,691.35,829.76,673.41,803.56,673.41Z"/><circle class="cls-1" cx="803.56" cy="647.31" r="28.52" transform="translate(-11.05 1280.65) rotate(-76.72)"/><path class="cls-1" d="M880.19,759.16H726.92a4.41,4.41,0,0,1-4.41-4.41h0a4.42,4.42,0,0,1,4.41-4.41H880.19a4.41,4.41,0,0,1,4.41,4.41h0A4.4,4.4,0,0,1,880.19,759.16Z"/><path class="cls-1" d="M880.19,782.68H726.92a4.42,4.42,0,0,1-4.41-4.41h0a4.41,4.41,0,0,1,4.41-4.41H880.19a4.4,4.4,0,0,1,4.41,4.41h0A4.41,4.41,0,0,1,880.19,782.68Z"/><path class="cls-27" d="M385.64,864.23h332.8a5.52,5.52,0,0,1,5.52,5.52v27.16a5.52,5.52,0,0,1-5.52,5.52H385.64a5.51,5.51,0,0,1-5.51-5.51V869.75A5.52,5.52,0,0,1,385.64,864.23Z"/><rect class="cls-28" x="802.78" y="964.89" width="424.21" height="17.34" rx="3.51"/><rect class="cls-29" x="802.78" y="1004.94" width="424.21" height="17.34" rx="3.51"/><rect class="cls-30" x="802.78" y="864.23" width="424.21" height="78.03" rx="4.75"/><path class="cls-31" d="M524.8,950.76H389.17c-4.26,0-7.72-3-7.72-6.6s3.46-6.61,7.72-6.61H524.8c4.27,0,7.73,3,7.73,6.61S529.07,950.76,524.8,950.76Z"/><path class="cls-31" d="M587,950.76H552.7c-4.26,0-7.72-3-7.72-6.6s3.46-6.61,7.72-6.61H587c4.27,0,7.72,3,7.72,6.61S591.31,950.76,587,950.76Z"/><path class="cls-31" d="M716.23,950.76H615.8c-4.27,0-7.73-3-7.73-6.6s3.46-6.61,7.73-6.61H716.23c4.27,0,7.73,3,7.73,6.61S720.5,950.76,716.23,950.76Z"/><path class="cls-31" d="M403.34,989.82H389.17c-4.26,0-7.72-3-7.72-6.6s3.46-6.61,7.72-6.61h14.17c4.26,0,7.72,3,7.72,6.61S407.6,989.82,403.34,989.82Z"/><path class="cls-31" d="M547.55,989.82H429.09c-4.27,0-7.73-3-7.73-6.6s3.46-6.61,7.73-6.61H547.55c4.27,0,7.73,3,7.73,6.61S551.82,989.82,547.55,989.82Z"/><path class="cls-31" d="M716.23,989.82H569.87c-4.27,0-7.73-3-7.73-6.6s3.46-6.61,7.73-6.61H716.23c4.27,0,7.73,3,7.73,6.61S720.5,989.82,716.23,989.82Z"/><path class="cls-31" d="M467.72,1028.88H389.17c-4.26,0-7.72-3-7.72-6.61s3.46-6.6,7.72-6.6h78.55c4.26,0,7.72,3,7.72,6.6S472,1028.88,467.72,1028.88Z"/><path class="cls-31" d="M676.32,1028.88H493.47c-4.27,0-7.73-3-7.73-6.61s3.46-6.6,7.73-6.6H676.32c4.26,0,7.72,3,7.72,6.6S680.58,1028.88,676.32,1028.88Z"/><path class="cls-31" d="M716.23,1028.88h-17.6c-4.26,0-7.72-3-7.72-6.61s3.46-6.6,7.72-6.6h17.6c4.27,0,7.73,3,7.73,6.6S720.5,1028.88,716.23,1028.88Z"/><rect class="cls-32" x="380.13" y="1054.52" width="846.86" height="41.68"/><path class="cls-33" d="M1369.16,382.71H1116.07a149,149,0,0,1-149-149h0a149,149,0,0,1,149-149h253.09a149,149,0,0,1,149,149h0A149,149,0,0,1,1369.16,382.71Z"/><path class="cls-1" d="M1017.82,170.61a7.11,7.11,0,0,1-3.54-.94,5.25,5.25,0,0,1-1.83-7.84A139.4,139.4,0,0,1,1046,130.12a7.08,7.08,0,0,1,9,1,5.22,5.22,0,0,1-1.17,7.94,127.7,127.7,0,0,0-30.63,29A6.72,6.72,0,0,1,1017.82,170.61Z"/><path class="cls-1" d="M997.3,264.73a6.32,6.32,0,0,1-6.31-4.52,116.73,116.73,0,0,1,12.09-84,6.89,6.89,0,0,1,8.63-2.59c3.2,1.38,4.52,4.77,2.95,7.58a106.74,106.74,0,0,0-11,76.73c.72,3.06-1.52,6.05-5,6.68A7.34,7.34,0,0,1,997.3,264.73Z"/><path class="cls-1" d="M1017.83,308.18a6.72,6.72,0,0,1-5.39-2.55,125.19,125.19,0,0,1-14.12-23.83c-1.31-2.91.31-6.2,3.62-7.35s7.06.27,8.37,3.18a114.66,114.66,0,0,0,12.9,21.77,5.27,5.27,0,0,1-1.84,7.85A7.07,7.07,0,0,1,1017.83,308.18Z"/><path class="cls-1" d="M1489.88,223.85c-3.21,0-6-2.1-6.39-5a108.38,108.38,0,0,0-14.6-40.82c-1.67-2.77-.46-6.19,2.69-7.65a6.92,6.92,0,0,1,8.71,2.36,118.59,118.59,0,0,1,16,44.72c.44,3.11-2.07,5.93-5.6,6.32A7.26,7.26,0,0,1,1489.88,223.85Z"/><path class="cls-1" d="M1459.25,160.66a6.8,6.8,0,0,1-5-2.1c-17-18.46-39.62-31.93-65.3-38.94-3.4-.93-5.3-4.11-4.25-7.09s4.68-4.66,8.08-3.73c28.12,7.69,52.85,22.43,71.49,42.64a5.2,5.2,0,0,1-1,8A7,7,0,0,1,1459.25,160.66Z"/><path class="cls-34" d="M1257.34,366.3c4,3,19.87,15.49,21.77,35.6,2.37,25-18.75,41.48-21.77,43.75,13.71-4.67,36.18-14,56.8-31.89a129.83,129.83,0,0,0,29-35.33Z"/><polygon class="cls-35" points="1411.36 276.13 1242.62 366.3 1073.87 276.13 1242.62 185.96 1411.36 276.13"/><polygon class="cls-36" points="1411.36 212.2 1242.62 302.37 1073.87 212.2 1242.62 122.03 1411.36 212.2"/><polygon class="cls-37" points="1411.36 148.27 1242.62 238.44 1073.87 148.27 1242.62 58.1 1411.36 148.27"/><path class="cls-38" d="M432.28,424.87,185.46,490.23,76.77,79.78,323.59,14.42a21,21,0,0,1,25.69,14.92l97.93,369.85A21,21,0,0,1,432.28,424.87Z"/><path class="cls-39" d="M372.25,131.21l-13.89,3.68L335.52,48.64a9.76,9.76,0,0,0-11.92-6.93L273.74,54.92,369.12,415.1,419,401.89A9.75,9.75,0,0,0,425.91,390L385.18,236.19l13.89-3.68a13.18,13.18,0,0,0,9.37-16.12l-20.07-75.8A13.19,13.19,0,0,0,372.25,131.21Z"/><path class="cls-40" d="M388.94,264.3l-14.55,3.85L314.83,43.24a10.1,10.1,0,0,0-12.35-7.17l-53,14L350.45,431.28l53-14a10.1,10.1,0,0,0,7.17-12.35l-7.82-29.55,14.55-3.85a14.13,14.13,0,0,0,10-17.26l-21.17-79.92A14.1,14.1,0,0,0,388.94,264.3Z"/><path class="cls-41" d="M24.72,107.61,126.45,491.8a13.58,13.58,0,0,0,16.61,9.66l25.14-6.66L59.51,84.35,34.37,91A13.59,13.59,0,0,0,24.72,107.61Z"/><rect class="cls-42" x="109.91" y="46.97" width="236.75" height="424.6" transform="translate(-58.76 67.08) rotate(-14.83)"/><path class="cls-1" d="M290.82,172.45,131,214.78a6.6,6.6,0,0,1-8.06-4.68L105.15,143a6.6,6.6,0,0,1,4.68-8.06L269.68,92.61a6.6,6.6,0,0,1,8.06,4.68l17.76,67.1A6.58,6.58,0,0,1,290.82,172.45Z"/><path class="cls-43" d="M238.42,125.84l-85,22.5a4.65,4.65,0,1,1-2.38-9l85-22.5a4.65,4.65,0,1,1,2.38,9Z"/><path class="cls-44" d="M270.7,142l-88.07,23.33a4.66,4.66,0,1,1-2.39-9L268.32,133a4.65,4.65,0,1,1,2.38,9Z"/><path class="cls-45" d="M169.12,168.88l-35.74,9.47a4.66,4.66,0,0,1-2.38-9l35.73-9.46a4.66,4.66,0,1,1,2.39,9Z"/><path class="cls-46" d="M275.77,161.12l-20.26,5.36a4.66,4.66,0,1,1-2.39-9l20.26-5.37a4.66,4.66,0,1,1,2.39,9Z"/><path class="cls-47" d="M244.53,169.39l-79.07,20.94a4.66,4.66,0,0,1-2.38-9l79.07-20.93a4.65,4.65,0,1,1,2.38,9Z"/><path class="cls-48" d="M153.36,193.53l-14.91,3.95a4.66,4.66,0,1,1-2.39-9L151,184.53a4.65,4.65,0,0,1,2.38,9Z"/><path class="cls-49" d="M58.9,183l-26.58,7A6.83,6.83,0,0,1,24,185.18h0a6.82,6.82,0,0,1,4.84-8.34l26.59-7a6.83,6.83,0,0,1,8.34,4.85h0A6.83,6.83,0,0,1,58.9,183Z"/><path class="cls-49" d="M80.05,262.85l-26.58,7A6.81,6.81,0,0,1,45.13,265h0A6.82,6.82,0,0,1,50,256.7l26.58-7a6.84,6.84,0,0,1,8.35,4.85h0A6.83,6.83,0,0,1,80.05,262.85Z"/><path class="cls-49" d="M101.2,342.71l-26.59,7a6.82,6.82,0,0,1-8.34-4.84h0a6.82,6.82,0,0,1,4.85-8.34l26.58-7a6.81,6.81,0,0,1,8.34,4.84h0A6.81,6.81,0,0,1,101.2,342.71Z"/><path class="cls-49" d="M122.34,422.58l-26.58,7a6.83,6.83,0,0,1-8.34-4.85h0a6.83,6.83,0,0,1,4.85-8.34l26.58-7a6.81,6.81,0,0,1,8.34,4.85h0A6.81,6.81,0,0,1,122.34,422.58Z"/></g></g></svg>