<svg xmlns="http://www.w3.org/2000/svg" xmlns:xlink="http://www.w3.org/1999/xlink" viewBox="0 0 1557.07 1266.66"><defs><style>.cls-1{fill:url(#linear-gradient);}.cls-2{fill:url(#linear-gradient-2);}.cls-3{fill:url(#linear-gradient-3);}.cls-4{fill:url(#linear-gradient-4);}.cls-5{fill:url(#linear-gradient-5);}.cls-6{fill:url(#linear-gradient-6);}.cls-7{fill:url(#linear-gradient-7);}.cls-8{fill:url(#linear-gradient-8);}.cls-9{fill:url(#linear-gradient-9);}.cls-10{fill:url(#linear-gradient-10);}.cls-11{fill:url(#linear-gradient-11);}.cls-12{fill:url(#linear-gradient-12);}.cls-13{fill:url(#linear-gradient-13);}.cls-14{fill:url(#linear-gradient-14);}.cls-15{fill:#fff;}.cls-16{fill:url(#linear-gradient-15);}.cls-17{fill:url(#linear-gradient-16);}.cls-18{fill:#d1d3d4;}.cls-19{fill:#e6e7e8;}.cls-20{fill:url(#linear-gradient-17);}.cls-21{fill:#a7a9ac;}.cls-22{fill:url(#linear-gradient-18);}.cls-23{fill:#fcd118;}.cls-24{fill:url(#linear-gradient-19);}.cls-25{fill:url(#linear-gradient-20);}.cls-26{fill:url(#linear-gradient-21);}.cls-27{fill:url(#linear-gradient-22);}.cls-28{fill:url(#linear-gradient-23);}.cls-29{fill:url(#linear-gradient-24);}.cls-30{fill:url(#linear-gradient-25);}.cls-31{fill:url(#linear-gradient-26);}.cls-32{fill:url(#linear-gradient-27);}.cls-33{fill:url(#linear-gradient-28);}.cls-34{fill:url(#linear-gradient-29);}.cls-35{fill:url(#linear-gradient-30);}.cls-36{fill:url(#linear-gradient-31);}.cls-37{fill:url(#linear-gradient-32);}.cls-38{fill:url(#linear-gradient-33);}.cls-39{fill:url(#linear-gradient-34);}.cls-40{fill:url(#linear-gradient-35);}.cls-41{fill:url(#linear-gradient-36);}.cls-42{fill:url(#linear-gradient-37);}.cls-43{fill:url(#linear-gradient-38);}.cls-44{fill:url(#linear-gradient-39);}.cls-45{fill:url(#linear-gradient-40);}.cls-46{fill:url(#linear-gradient-41);}.cls-47{fill:url(#linear-gradient-42);}.cls-48{fill:url(#linear-gradient-43);}.cls-49{fill:url(#linear-gradient-44);}.cls-50{fill:url(#linear-gradient-45);}.cls-51{fill:url(#linear-gradient-46);}.cls-52{fill:url(#linear-gradient-47);}.cls-53{fill:url(#linear-gradient-48);}.cls-54{fill:#f1f2f2;}.cls-55{fill:url(#linear-gradient-49);}</style><linearGradient id="linear-gradient" x1="286.28" y1="1250.43" x2="1272.6" y2="63.28" gradientUnits="userSpaceOnUse"><stop offset="0" stop-color="#482d9d"/><stop offset="0.21" stop-color="#3e51b3"/><stop offset="0.75" stop-color="#26a7ea"/><stop offset="1" stop-color="#1dc9ff"/></linearGradient><linearGradient id="linear-gradient-2" x1="-76.61" y1="1745.37" x2="899.62" y2="570.36" xlink:href="#linear-gradient"/><linearGradient id="linear-gradient-3" x1="924.15" y1="168.2" x2="1034.02" y2="35.95" xlink:href="#linear-gradient"/><linearGradient id="linear-gradient-4" x1="800.6" y1="56.85" x2="831.18" y2="20.05" xlink:href="#linear-gradient"/><linearGradient id="linear-gradient-5" x1="1110.14" y1="127.16" x2="1173.83" y2="50.5" xlink:href="#linear-gradient"/><linearGradient id="linear-gradient-6" x1="1244.45" y1="238.58" x2="1334.99" y2="129.6" xlink:href="#linear-gradient"/><linearGradient id="linear-gradient-7" x1="463.72" y1="197.4" x2="679.57" y2="-62.41" xlink:href="#linear-gradient"/><linearGradient id="linear-gradient-8" x1="1356.12" y1="627.95" x2="1586.98" y2="350.09" xlink:href="#linear-gradient"/><linearGradient id="linear-gradient-9" x1="1191.69" y1="1245.5" x2="1495.14" y2="880.26" xlink:href="#linear-gradient"/><linearGradient id="linear-gradient-10" x1="1132.93" y1="1268.76" x2="1215.08" y2="1169.88" xlink:href="#linear-gradient"/><linearGradient id="linear-gradient-11" x1="42.38" y1="935.44" x2="229.64" y2="710.05" xlink:href="#linear-gradient"/><linearGradient id="linear-gradient-12" x1="135.61" y1="1024.67" x2="217.04" y2="926.66" xlink:href="#linear-gradient"/><linearGradient id="linear-gradient-13" x1="359.47" y1="1159.84" x2="459.98" y2="1038.85" xlink:href="#linear-gradient"/><linearGradient id="linear-gradient-14" x1="794.9" y1="1352.81" x2="1028.12" y2="1072.1" xlink:href="#linear-gradient"/><linearGradient id="linear-gradient-15" x1="875.78" y1="1163.53" x2="875.78" y2="1038.58" gradientUnits="userSpaceOnUse"><stop offset="0" stop-color="#d1d3d4"/><stop offset="1" stop-color="#9d9e9f"/></linearGradient><linearGradient id="linear-gradient-16" x1="875.78" y1="933.69" x2="875.78" y2="1220.25" gradientUnits="userSpaceOnUse"><stop offset="0" stop-color="#9d9e9f"/><stop offset="1" stop-color="#d1d3d4"/></linearGradient><linearGradient id="linear-gradient-17" x1="589.64" y1="409.86" x2="623.09" y2="409.86" gradientUnits="userSpaceOnUse"><stop offset="0" stop-color="#42e397"/><stop offset="1" stop-color="#3cb6b5"/></linearGradient><linearGradient id="linear-gradient-18" x1="545.42" y1="453.06" x2="578.87" y2="453.06" xlink:href="#linear-gradient-17"/><linearGradient id="linear-gradient-19" x1="857.08" y1="622.97" x2="857.08" y2="584.94" xlink:href="#linear-gradient-17"/><linearGradient id="linear-gradient-20" x1="793.36" y1="578.61" x2="1287.33" y2="578.61" xlink:href="#linear-gradient-17"/><linearGradient id="linear-gradient-21" x1="861.25" y1="745.43" x2="1071.85" y2="534.83" gradientUnits="userSpaceOnUse"><stop offset="0" stop-color="#582d7f"/><stop offset="0.21" stop-color="#4b5194"/><stop offset="0.75" stop-color="#2aa7c8"/><stop offset="1" stop-color="#1dc9dc"/></linearGradient><linearGradient id="linear-gradient-22" x1="854.48" y1="735.07" x2="854.48" y2="1255.07" gradientUnits="userSpaceOnUse"><stop offset="0" stop-color="#fcde8a"/><stop offset="1" stop-color="#f38381"/></linearGradient><linearGradient id="linear-gradient-23" x1="577.26" y1="903.67" x2="632" y2="848.93" gradientUnits="userSpaceOnUse"><stop offset="0" stop-color="#ffde39"/><stop offset="0.09" stop-color="#ffc63c"/><stop offset="0.29" stop-color="#fe9843"/><stop offset="0.42" stop-color="#fe7d4b"/><stop offset="0.65" stop-color="#fe4f59"/><stop offset="1" stop-color="#ed327f"/></linearGradient><linearGradient id="linear-gradient-24" x1="871.7" y1="834.62" x2="895.11" y2="811.21" gradientTransform="translate(392.66 -309.4) rotate(23.81)" xlink:href="#linear-gradient-23"/><linearGradient id="linear-gradient-25" x1="801.56" y1="862.97" x2="932.1" y2="732.43" gradientTransform="translate(16.51 -17.95) rotate(1.19)" xlink:href="#linear-gradient-23"/><linearGradient id="linear-gradient-26" x1="635.3" y1="866.72" x2="749.85" y2="752.16" xlink:href="#linear-gradient-23"/><linearGradient id="linear-gradient-27" x1="803.56" y1="1041.97" x2="929.59" y2="915.94" xlink:href="#linear-gradient-23"/><linearGradient id="linear-gradient-28" x1="1047.66" y1="840.66" x2="1118.31" y2="840.66" xlink:href="#linear-gradient-23"/><linearGradient id="linear-gradient-29" x1="1013.36" y1="-2230.44" x2="1388.5" y2="-2089.76" gradientTransform="matrix(0.95, 0.31, -0.31, 0.95, -1536.01, 2369.75)" xlink:href="#linear-gradient-21"/><linearGradient id="linear-gradient-30" x1="446.49" y1="-107.81" x2="277.88" y2="-161.97" gradientTransform="translate(16.4 906.53) rotate(5.56)" xlink:href="#linear-gradient-16"/><linearGradient id="linear-gradient-31" x1="1517.36" y1="-1995.14" x2="1386.37" y2="-2042.92" gradientTransform="matrix(0.95, 0.31, -0.31, 0.95, -1521.84, 2323.92)" xlink:href="#linear-gradient-16"/><linearGradient id="linear-gradient-32" x1="1285.87" y1="379.06" x2="1469.65" y2="145.42" gradientUnits="userSpaceOnUse"><stop offset="0" stop-color="#fff"/><stop offset="1" stop-color="#f1f2f2"/></linearGradient><linearGradient id="linear-gradient-33" x1="1586.72" y1="536.25" x2="1712.95" y2="536.25" gradientTransform="translate(-423.81 -334.92)" gradientUnits="userSpaceOnUse"><stop offset="0" stop-color="#ffde39"/><stop offset="0.33" stop-color="#ffc63c"/><stop offset="1" stop-color="#fe9843"/></linearGradient><linearGradient id="linear-gradient-34" x1="1711.55" y1="632.24" x2="1711.55" y2="718.21" gradientTransform="translate(-487.11 474.66) rotate(-27.07)" xlink:href="#linear-gradient-23"/><linearGradient id="linear-gradient-35" x1="1711.55" y1="694.23" x2="1711.55" y2="417.37" gradientTransform="translate(-487.11 474.66) rotate(-27.07)" xlink:href="#linear-gradient-33"/><linearGradient id="linear-gradient-36" x1="1711.55" y1="685.15" x2="1711.55" y2="402.51" gradientTransform="translate(-487.11 474.66) rotate(-27.07)" xlink:href="#linear-gradient-33"/><linearGradient id="linear-gradient-37" x1="1712.34" y1="751.56" x2="1712.34" y2="619.31" gradientTransform="translate(-487.11 474.66) rotate(-27.07)" xlink:href="#linear-gradient-23"/><linearGradient id="linear-gradient-38" x1="1609.26" y1="863.97" x2="1609.26" y2="729.38" gradientTransform="translate(-322.06 -339.88)" xlink:href="#linear-gradient-23"/><linearGradient id="linear-gradient-39" x1="1609.26" y1="863.97" x2="1609.26" y2="729.38" gradientTransform="matrix(1, 0, 0, 1, -292.55, -346.98)" xlink:href="#linear-gradient-23"/><linearGradient id="linear-gradient-40" x1="557.13" y1="219.85" x2="19.71" y2="219.85" gradientTransform="matrix(1, 0, 0, -1, 0, 469.71)" xlink:href="#linear-gradient-17"/><linearGradient id="linear-gradient-41" x1="157.01" y1="-277.91" x2="271.21" y2="-277.91" gradientTransform="matrix(0.98, -0.19, 0.19, 0.98, -116.76, 555.84)" gradientUnits="userSpaceOnUse"><stop offset="0" stop-color="#fc9e18"/><stop offset="0.31" stop-color="#fcaf18"/><stop offset="1" stop-color="#fcd118"/></linearGradient><linearGradient id="linear-gradient-42" x1="298.04" y1="-277.92" x2="585.67" y2="-277.92" xlink:href="#linear-gradient-41"/><linearGradient id="linear-gradient-43" x1="1352.58" y1="-782.91" x2="1352.58" y2="-704.58" gradientTransform="matrix(0.98, -0.19, 0.19, 0.98, -927.56, 1117.58)" gradientUnits="userSpaceOnUse"><stop offset="0" stop-color="#a7a9ac"/><stop offset="1" stop-color="#808285"/></linearGradient><linearGradient id="linear-gradient-44" x1="1377.04" y1="-782.92" x2="1377.04" y2="-704.59" xlink:href="#linear-gradient-43"/><linearGradient id="linear-gradient-45" x1="1302.14" y1="-782.91" x2="1302.14" y2="-704.59" xlink:href="#linear-gradient-43"/><linearGradient id="linear-gradient-46" x1="1410.72" y1="-782.92" x2="1410.72" y2="-704.6" xlink:href="#linear-gradient-43"/><linearGradient id="linear-gradient-47" x1="1350.49" y1="-782.93" x2="1350.49" y2="-704.59" xlink:href="#linear-gradient-43"/><linearGradient id="linear-gradient-48" x1="1291.8" y1="-782.91" x2="1291.8" y2="-704.6" xlink:href="#linear-gradient-43"/><linearGradient id="linear-gradient-49" x1="365.45" y1="-22.51" x2="365.45" y2="-162.88" gradientTransform="matrix(0.98, -0.19, 0.19, 0.98, -116.76, 555.84)" xlink:href="#linear-gradient-23"/></defs><title>Fichier 2</title><g id="Calque_2" data-name="Calque 2"><g id="Layer_11" data-name="Layer 11"><path class="cls-1" d="M235.39,367.19c-15.28,7.22-113.17,54.65-174.53,141.48C12,577.87,8,644.28,2.61,688.92c-12.19,101.57,18.16,213,94,291.82,36.09,37.48,84,68.11,137.64,82.73,83.45,22.75,165,3,244.26,45.84,41,22.18,72,55.41,111,78.65,40.65,24.27,92.86,39.93,139.47,52.41,152.67,40.86,322.61,33.63,470.94-18.41,108.92-38.22,206.77-104.26,268.33-192.25,73.39-104.91,81.35-224.2,78.72-344.26-2.83-129.5-25.58-259.66-80.09-380.43-44-97.4-122.14-202.45-248.55-221.32C1129.16,70.4,1038,90.14,949.1,75.26c-49.79-8.33-94.49-34.12-142.82-47.51A774.51,774.51,0,0,0,630.69.63C514.27-4,396.29,16.9,292,63.14c-31.36,13.91-61.87,39.29-65.95,71.64-6,47.86,50.07,64.83,75.75,98.51C342.8,287.07,288.12,342.28,235.39,367.19Z"/><ellipse class="cls-2" cx="392.25" cy="1181.04" rx="81.93" ry="72.27"/><path class="cls-3" d="M829.62,77.45c69,54.57,164.48,81.83,257.54,63A295.93,295.93,0,0,0,1126,129.77c-21.47-9.65-36.62-28.9-41.07-49.74-45.47,1.43-90.93,2.74-135.83-4.77-29.23-4.89-56.7-15.8-84.18-26.68A155.6,155.6,0,0,1,829.62,77.45Z"/><path class="cls-4" d="M829.62,77.45a155.6,155.6,0,0,0,35.3-28.87c-19.33-7.65-38.67-15.3-58.64-20.83q-16-4.42-32.19-8.14A287.49,287.49,0,0,0,829.62,77.45Z"/><path class="cls-5" d="M1126,129.77a289.21,289.21,0,0,0,85.4-47c-41.89-5.47-84.19-4-126.47-2.72C1089.38,100.87,1104.53,120.12,1126,129.77Z"/><path class="cls-6" d="M1129,131c22.09,8.8,48.22,8.23,69.23,18.89,29,14.69,40.07,45.77,55.72,71.81,17.81,29.65,44.21,55.24,76,73.67,18,10.42,38.3,18.7,59.64,19.95-.26-17-.33-34,1.55-50.93,2.24-20.07,7.73-40.51,18-58.38C1363.7,145.78,1301.43,96.11,1218.31,83.7c-2.3-.34-4.6-.65-6.91-1a289.21,289.21,0,0,1-85.4,47C1127,130.21,1128,130.63,1129,131Z"/><path class="cls-7" d="M383.08,83.57c29.14,2.49,57.12-9.87,86.19-13,37.38-4,74.38,7.35,110.44,16.93,57.71,15.33,118.87,26.51,178,16.39a207.47,207.47,0,0,0,71.86-26.45,287.49,287.49,0,0,1-55.53-57.84,780.92,780.92,0,0,0-143.4-19c-106.82-4.24-215,13-312.6,51.6C336.11,68.48,357.86,81.42,383.08,83.57Z"/><path class="cls-8" d="M1547,685.45c-2.83-129.5-25.58-259.66-80.09-380.43q-2.31-5.11-4.75-10.26c-14.26-30.07-31.79-60.56-53-88.73-10.28,17.87-15.77,38.31-18,58.38-1.88,16.91-1.81,33.91-1.55,50.93.24,16.5.66,33-.38,49.49-6.71,106.43-22.2,196.47,48.57,291.48,29,39,66.59,72.44,109.12,100.25C1547.57,733,1547.47,709.22,1547,685.45Z"/><path class="cls-9" d="M1336.86,1062.39c-12.09,22.59-22.95,47-44.7,63-36.93,27.16-93.45,22-133.53,45.41a87.29,87.29,0,0,0-9,6,845.51,845.51,0,0,1,101.79,24.58c87.89-39.45,165.14-97.83,216.81-171.69C1495,991.5,1513,951.37,1525,910a227.94,227.94,0,0,0-59.42,19.76C1407.23,958.84,1365.49,1008.91,1336.86,1062.39Z"/><path class="cls-10" d="M1116.53,1246a776.51,776.51,0,0,0,83.37-24q26.24-9.21,51.52-20.56a845.51,845.51,0,0,0-101.79-24.58C1127.48,1193.77,1114.89,1220.18,1116.53,1246Z"/><path class="cls-11" d="M182.19,935.36c28.7,16.69,50.36,42.09,80.74,56.28,14.72,6.88,30.67,10.76,47.05,13.56a128.91,128.91,0,0,0,6-17.46c10.5-40.2-1.41-83.44-26.5-118.26S227,807.7,186.24,787.5c-42.34-21-92.71-38.6-112.21-77.82C56.5,674.39,70.38,633,60.7,595.41c-4.15-16.11-13.05-31-25.16-43.6C10.24,604.86,6.84,653.67,2.61,688.92-6.82,767.49,9.23,852,52.09,922.69,94.7,909.59,144.34,913.37,182.19,935.36Z"/><path class="cls-12" d="M310,1005.2c-16.38-2.8-32.33-6.68-47.05-13.56-30.38-14.19-52-39.59-80.74-56.28-37.85-22-87.49-25.77-130.1-12.67a330.17,330.17,0,0,0,44.53,58c36.09,37.48,84,68.11,137.64,82.73,10.25,2.79,20.48,4.94,30.67,6.65a245,245,0,0,0,26.58-32A181.27,181.27,0,0,0,310,1005.2Z"/><path class="cls-13" d="M362.24,1012.72c-17.26-2.8-35-4.56-52.26-7.52a181.27,181.27,0,0,1-18.47,33,245,245,0,0,1-26.58,32c72.79,12.18,144.09,1.57,213.59,39.19,23.34,12.64,43.47,28.86,63.67,44.79a124.91,124.91,0,0,0-24-59.59C484,1048.77,423.38,1022.67,362.24,1012.72Z"/><path class="cls-14" d="M1149.63,1176.82a895.15,895.15,0,0,0-185.48-13.11c-91.32,3-208,17.29-294.29,59.29,19.85,6.57,39.95,12.24,59.1,17.37,124.73,33.38,261,34.66,387.57,5.63C1114.89,1220.18,1127.48,1193.77,1149.63,1176.82Z"/></g><g id="DIGITAL"><path class="cls-15" d="M773.34,167.38a4,4,0,0,1-3-4.77l2.3-9.74a4,4,0,1,1,7.71,1.81l-2.3,9.75A4,4,0,0,1,773.34,167.38Z"/><path class="cls-15" d="M767.06,194a4,4,0,0,1-2.94-4.77l2.29-9.74a4,4,0,1,1,7.71,1.81l-2.29,9.75A4,4,0,0,1,767.06,194Z"/><path class="cls-15" d="M789.54,180.11l-9.74-2.29a4,4,0,0,1,1.81-7.72l9.75,2.3a4,4,0,1,1-1.82,7.71Z"/><path class="cls-15" d="M762.9,173.83l-9.74-2.29a4,4,0,1,1,1.81-7.71l9.75,2.29a4,4,0,1,1-1.82,7.71Z"/><path class="cls-15" d="M851.79,134a2.6,2.6,0,0,1-3.51-1.13l-3-5.88a2.61,2.61,0,0,1,4.65-2.38l3,5.88A2.62,2.62,0,0,1,851.79,134Z"/><path class="cls-15" d="M860,150a2.61,2.61,0,0,1-3.51-1.13l-3-5.88a2.61,2.61,0,0,1,4.65-2.38l3,5.88A2.61,2.61,0,0,1,860,150Z"/><path class="cls-15" d="M865.36,133.45l-5.87,3a2.61,2.61,0,1,1-2.38-4.65l5.87-3a2.61,2.61,0,1,1,2.38,4.65Z"/><path class="cls-15" d="M849.3,141.66l-5.87,3a2.61,2.61,0,1,1-2.38-4.65l5.87-3a2.61,2.61,0,1,1,2.38,4.65Z"/><path class="cls-15" d="M833.62,178a1.27,1.27,0,0,1-1.79-.09l-2.15-2.38a1.27,1.27,0,0,1,1.88-1.7l2.15,2.38A1.27,1.27,0,0,1,833.62,178Z"/><path class="cls-15" d="M839.49,184.54a1.27,1.27,0,0,1-1.79-.09l-2.15-2.38a1.27,1.27,0,0,1,1.88-1.7l2.15,2.38A1.27,1.27,0,0,1,839.49,184.54Z"/><path class="cls-15" d="M839.92,176.09l-2.38,2.14a1.27,1.27,0,0,1-1.7-1.88l2.38-2.15a1.27,1.27,0,1,1,1.7,1.89Z"/><path class="cls-15" d="M833.42,182,831,184.11a1.27,1.27,0,0,1-1.7-1.89l2.38-2.15a1.27,1.27,0,0,1,1.7,1.89Z"/><path class="cls-15" d="M806,222.48a1.27,1.27,0,0,1-1.79-.09L802.07,220a1.27,1.27,0,0,1,1.88-1.7l2.15,2.39A1.27,1.27,0,0,1,806,222.48Z"/><path class="cls-15" d="M811.88,229a1.27,1.27,0,0,1-1.79-.09l-2.15-2.38a1.27,1.27,0,0,1,1.88-1.7l2.15,2.38A1.27,1.27,0,0,1,811.88,229Z"/><path class="cls-15" d="M812.31,220.53l-2.38,2.15a1.27,1.27,0,0,1-1.7-1.89l2.38-2.14a1.27,1.27,0,1,1,1.7,1.88Z"/><path class="cls-15" d="M805.81,226.4l-2.38,2.15a1.27,1.27,0,1,1-1.7-1.88l2.38-2.15a1.27,1.27,0,1,1,1.7,1.88Z"/><path class="cls-15" d="M901.19,245.48a4,4,0,0,1-3-4.76l2.3-9.75a4,4,0,1,1,7.71,1.82L906,242.53A4,4,0,0,1,901.19,245.48Z"/><path class="cls-15" d="M894.91,272.12a4,4,0,0,1-2.94-4.76l2.29-9.75a4,4,0,1,1,7.72,1.82l-2.3,9.74A4,4,0,0,1,894.91,272.12Z"/><path class="cls-15" d="M917.39,258.21l-9.74-2.29a4,4,0,1,1,1.81-7.71l9.75,2.29a4,4,0,1,1-1.82,7.71Z"/><path class="cls-15" d="M890.75,251.94l-9.74-2.3a4,4,0,1,1,1.82-7.71l9.74,2.3a4,4,0,1,1-1.82,7.71Z"/><path class="cls-15" d="M979.64,212.07a2.62,2.62,0,0,1-3.51-1.14l-3-5.88a2.61,2.61,0,0,1,4.65-2.37l3,5.87A2.62,2.62,0,0,1,979.64,212.07Z"/><path class="cls-15" d="M987.85,228.12a2.61,2.61,0,0,1-3.51-1.13l-3-5.88a2.61,2.61,0,1,1,4.64-2.37l3,5.87A2.6,2.6,0,0,1,987.85,228.12Z"/><path class="cls-15" d="M993.21,211.55l-5.87,3A2.61,2.61,0,1,1,985,209.9l5.87-3a2.61,2.61,0,1,1,2.38,4.65Z"/><path class="cls-15" d="M977.15,219.76l-5.87,3a2.61,2.61,0,0,1-2.38-4.65l5.88-3a2.61,2.61,0,0,1,2.37,4.65Z"/><path class="cls-15" d="M961.47,256.14a1.27,1.27,0,0,1-1.79-.1l-2.15-2.38a1.27,1.27,0,0,1,1.88-1.7l2.15,2.38A1.28,1.28,0,0,1,961.47,256.14Z"/><path class="cls-15" d="M967.34,262.64a1.27,1.27,0,0,1-1.79-.09l-2.15-2.38a1.27,1.27,0,0,1,1.89-1.7l2.14,2.38A1.27,1.27,0,0,1,967.34,262.64Z"/><path class="cls-15" d="M967.78,254.19l-2.38,2.15a1.27,1.27,0,1,1-1.7-1.89l2.38-2.14a1.27,1.27,0,1,1,1.7,1.88Z"/><path class="cls-15" d="M961.27,260.06l-2.38,2.15a1.27,1.27,0,1,1-1.7-1.88l2.38-2.15a1.27,1.27,0,0,1,1.7,1.88Z"/><path class="cls-15" d="M933.86,300.58a1.27,1.27,0,0,1-1.79-.09l-2.15-2.38a1.27,1.27,0,1,1,1.88-1.7l2.15,2.38A1.27,1.27,0,0,1,933.86,300.58Z"/><path class="cls-15" d="M939.73,307.09a1.27,1.27,0,0,1-1.79-.1l-2.15-2.38a1.27,1.27,0,1,1,1.88-1.7l2.15,2.38A1.28,1.28,0,0,1,939.73,307.09Z"/><path class="cls-15" d="M940.16,298.63l-2.38,2.15a1.27,1.27,0,1,1-1.7-1.88l2.38-2.15a1.27,1.27,0,1,1,1.7,1.88Z"/><path class="cls-15" d="M933.66,304.5l-2.38,2.15a1.27,1.27,0,1,1-1.7-1.88l2.38-2.15a1.27,1.27,0,1,1,1.7,1.88Z"/><path class="cls-15" d="M1401.35,820.78a4,4,0,0,1-2.95-4.76l2.3-9.75a4,4,0,1,1,7.71,1.82l-2.29,9.74A4,4,0,0,1,1401.35,820.78Z"/><path class="cls-15" d="M1395.08,847.42a4,4,0,0,1-2.95-4.76l2.29-9.75a4,4,0,0,1,7.72,1.82l-2.3,9.74A4,4,0,0,1,1395.08,847.42Z"/><path class="cls-15" d="M1417.55,833.51l-9.74-2.29a4,4,0,1,1,1.82-7.71l9.74,2.29a4,4,0,1,1-1.82,7.71Z"/><path class="cls-15" d="M1390.92,827.24l-9.75-2.3a4,4,0,1,1,1.82-7.71l9.74,2.29a4,4,0,0,1-1.81,7.72Z"/><path class="cls-15" d="M1479.8,787.36a2.61,2.61,0,0,1-3.51-1.13l-3-5.88a2.61,2.61,0,0,1,4.65-2.37l3,5.87A2.61,2.61,0,0,1,1479.8,787.36Z"/><path class="cls-15" d="M1488,803.42a2.61,2.61,0,0,1-3.51-1.13l-3-5.88a2.61,2.61,0,0,1,4.65-2.38l3,5.88A2.6,2.6,0,0,1,1488,803.42Z"/><path class="cls-15" d="M1493.37,786.85l-5.87,3a2.61,2.61,0,1,1-2.38-4.65l5.88-3a2.61,2.61,0,1,1,2.37,4.65Z"/><path class="cls-15" d="M1477.31,795.06l-5.87,3a2.61,2.61,0,1,1-2.38-4.64l5.88-3a2.61,2.61,0,1,1,2.37,4.65Z"/><path class="cls-15" d="M1461.63,831.43a1.27,1.27,0,0,1-1.79-.09l-2.15-2.38a1.27,1.27,0,1,1,1.88-1.7l2.15,2.38A1.27,1.27,0,0,1,1461.63,831.43Z"/><path class="cls-15" d="M1467.5,837.94a1.27,1.27,0,0,1-1.79-.09l-2.15-2.38a1.27,1.27,0,0,1,1.89-1.7l2.14,2.38A1.27,1.27,0,0,1,1467.5,837.94Z"/><path class="cls-15" d="M1467.94,829.49l-2.38,2.15a1.27,1.27,0,1,1-1.7-1.89l2.38-2.15a1.27,1.27,0,0,1,1.7,1.89Z"/><path class="cls-15" d="M1461.43,835.36l-2.38,2.15a1.27,1.27,0,0,1-1.7-1.89l2.38-2.14a1.27,1.27,0,0,1,1.7,1.88Z"/><path class="cls-15" d="M1434,875.88a1.27,1.27,0,0,1-1.79-.09l-2.15-2.38a1.27,1.27,0,1,1,1.88-1.7l2.15,2.38A1.27,1.27,0,0,1,1434,875.88Z"/><path class="cls-15" d="M1439.89,882.39a1.27,1.27,0,0,1-1.79-.1l-2.15-2.38a1.27,1.27,0,1,1,1.88-1.7l2.15,2.38A1.28,1.28,0,0,1,1439.89,882.39Z"/><path class="cls-15" d="M1440.32,873.93l-2.38,2.15a1.27,1.27,0,1,1-1.7-1.88l2.38-2.15a1.28,1.28,0,0,1,1.8.09A1.26,1.26,0,0,1,1440.32,873.93Z"/><path class="cls-15" d="M1433.82,879.8l-2.38,2.15a1.27,1.27,0,1,1-1.7-1.88l2.38-2.15a1.27,1.27,0,1,1,1.7,1.88Z"/><path class="cls-16" d="M782.12,1057.45c0,22.1.11,51.76.16,78,0,19.2-.18,39.59-.16,50.89,16.74-3.77,34-6.77,51.13-10.2,21.89-4.38,44.87-5.53,70.15-7.88,23.69-2.21,43.11-4.08,66-3.74v-107.1Z"/><path class="cls-17" d="M450.24,991.77v18a52,52,0,0,0,52,52h747.09a52,52,0,0,0,52-52v-18Z"/><path class="cls-18" d="M1249.32,489.85H502.23a52,52,0,0,0-52,52V991.77h851.08V541.84A52,52,0,0,0,1249.32,489.85Z"/><path class="cls-15" d="M906.55,1034.94H845.39a8.52,8.52,0,0,1-8.65-8,8.28,8.28,0,0,1,8.27-8.5h61.15a8.54,8.54,0,0,1,8.66,8.06A8.27,8.27,0,0,1,906.55,1034.94Z"/><path class="cls-19" d="M1233.18,991.77V456.9a28.66,28.66,0,0,0-28.66-28.66H789l-5.12-35.88a21.33,21.33,0,0,0-21.11-18.31H583.91a21.33,21.33,0,0,0-21.32,21.32v596.4Z"/><circle class="cls-20" cx="606.37" cy="409.86" r="16.72"/><path class="cls-18" d="M723.69,414.92H643.26a6.08,6.08,0,0,1,0-12.16h80.43a6.08,6.08,0,0,1,0,12.16Z"/><path class="cls-18" d="M762.48,414.92H743.82a6.08,6.08,0,0,1,0-12.16h18.66a6.08,6.08,0,0,1,0,12.16Z"/><path class="cls-21" d="M1198.47,478.41a5.1,5.1,0,0,1-3.62-1.5L1177,459.06a5.12,5.12,0,0,1,7.23-7.24l17.86,17.86a5.12,5.12,0,0,1-3.62,8.73Z"/><path class="cls-21" d="M1180.62,478.41a5.12,5.12,0,0,1-3.62-8.73l17.85-17.86a5.12,5.12,0,0,1,7.24,7.24l-17.86,17.85A5.08,5.08,0,0,1,1180.62,478.41Z"/><path class="cls-15" d="M1189,991.77V501.12a28.66,28.66,0,0,0-28.66-28.66H744.78l-5.13-35.88a21.32,21.32,0,0,0-21.11-18.31H539.7a21.32,21.32,0,0,0-21.32,21.32V991.77Z"/><circle class="cls-22" cx="562.15" cy="453.06" r="16.72"/><path class="cls-18" d="M615.3,448.49H599a6.08,6.08,0,0,1,0-12.16H615.3a6.08,6.08,0,1,1,0,12.16Z"/><path class="cls-18" d="M718.26,448.49H635.43a6.08,6.08,0,0,1,0-12.16h82.83a6.08,6.08,0,1,1,0,12.16Z"/><path class="cls-18" d="M665.62,470.8H599a6.08,6.08,0,0,1,0-12.16h66.58a6.08,6.08,0,1,1,0,12.16Z"/><path class="cls-21" d="M1156.9,526.79a6.61,6.61,0,0,1-4.69-1.94l-23.15-23.15a6.63,6.63,0,0,1,9.38-9.38l23.15,23.15a6.63,6.63,0,0,1-4.69,11.32Z"/><path class="cls-21" d="M1133.75,526.79a6.63,6.63,0,0,1-4.69-11.32l23.15-23.15a6.63,6.63,0,1,1,9.38,9.38l-23.15,23.15A6.59,6.59,0,0,1,1133.75,526.79Z"/><path class="cls-23" d="M570.57,681.4h0a25.15,25.15,0,0,1-25.15-25.15h0a25.15,25.15,0,0,1,25.15-25.14h0a25.14,25.14,0,0,1,25.14,25.14h0A25.14,25.14,0,0,1,570.57,681.4Z"/><path class="cls-19" d="M749.23,647.44H618a4.68,4.68,0,0,1-4.74-4.11,4.52,4.52,0,0,1,4.5-4.92H749a4.67,4.67,0,0,1,4.74,4.11A4.52,4.52,0,0,1,749.23,647.44Z"/><path class="cls-19" d="M786.73,647.44H765.45a4.68,4.68,0,0,1-4.74-4.11,4.52,4.52,0,0,1,4.5-4.92h21.28a4.67,4.67,0,0,1,4.74,4.11A4.52,4.52,0,0,1,786.73,647.44Z"/><path class="cls-19" d="M641.68,674.1H618a4.68,4.68,0,0,1-4.74-4.11,4.52,4.52,0,0,1,4.5-4.93h23.73a4.68,4.68,0,0,1,4.74,4.12A4.52,4.52,0,0,1,641.68,674.1Z"/><path class="cls-19" d="M878.23,674.1H660.18a4.67,4.67,0,0,1-4.73-4.11,4.52,4.52,0,0,1,4.5-4.93H878a4.69,4.69,0,0,1,4.74,4.12A4.52,4.52,0,0,1,878.23,674.1Z"/><path class="cls-19" d="M996.61,674.1H892.24A4.69,4.69,0,0,1,887.5,670a4.52,4.52,0,0,1,4.5-4.93H996.38a4.69,4.69,0,0,1,4.74,4.12A4.53,4.53,0,0,1,996.61,674.1Z"/><rect class="cls-19" x="545.42" y="965.81" width="618.11" height="25.96"/><path class="cls-18" d="M659.1,945.07H559a6,6,0,0,1,0-12H659.1a6,6,0,0,1,0,12Z"/><path class="cls-18" d="M822.73,945.07H722.61a6,6,0,0,1,0-12H822.73a6,6,0,0,1,0,12Z"/><path class="cls-18" d="M986.35,945.07H886.23a6,6,0,0,1,0-12H986.35a6,6,0,0,1,0,12Z"/><path class="cls-18" d="M1150,945.07H1049.86a6,6,0,0,1,0-12H1150a6,6,0,0,1,0,12Z"/><rect class="cls-24" x="550.62" y="555.1" width="612.92" height="47.02" rx="23.51"/><path class="cls-15" d="M633.53,589.22H581.62A10.61,10.61,0,0,1,571,578.61h0A10.61,10.61,0,0,1,581.62,568h51.91a10.61,10.61,0,0,1,10.61,10.61h0A10.61,10.61,0,0,1,633.53,589.22Z"/><path class="cls-25" d="M1129.72,589.22H693.56A10.61,10.61,0,0,1,683,578.61h0A10.61,10.61,0,0,1,693.56,568h436.16a10.61,10.61,0,0,1,10.61,10.61h0A10.61,10.61,0,0,1,1129.72,589.22Z"/><polygon class="cls-26" points="1028.95 599.89 972.89 578.61 982.5 637.8 998.21 624.98 1014.34 644.75 1029.38 632.48 1013.24 612.71 1028.95 599.89"/><rect class="cls-27" x="545.42" y="704.32" width="618.11" height="206.05"/><circle class="cls-28" cx="629.69" cy="851.23" r="39.83"/><circle class="cls-15" cx="766.29" cy="816.01" r="38.42" transform="translate(-161.93 1441.69) rotate(-80.78)"/><circle class="cls-29" cx="929.97" cy="776.36" r="20.11" transform="translate(-234.3 441.61) rotate(-23.81)"/><circle class="cls-30" cx="875.74" cy="788.78" r="49.16" transform="matrix(1, -0.02, 0.02, 1, -16.14, 18.29)"/><circle class="cls-31" cx="682.95" cy="819.07" r="66"/><circle class="cls-32" cx="1033.37" cy="812.16" r="53"/><circle class="cls-33" cx="1082.98" cy="840.66" r="35.32"/><circle class="cls-15" cx="960.34" cy="829.63" r="10.57" transform="translate(-305.36 922.06) rotate(-45)"/><rect class="cls-34" x="239.97" y="679.85" width="244.12" height="156.36"/><polygon class="cls-35" points="373.17 727.26 288.09 836.21 458.25 836.21 373.17 727.26"/><polygon class="cls-36" points="484.09 775.68 434.85 717.94 335.27 836.21 484.09 836.21 484.09 775.68"/><circle class="cls-23" cx="279.97" cy="721.4" r="11.68" transform="translate(-459.15 950.53) rotate(-86.01)"/><path class="cls-15" d="M315,858.23H244.64a3.5,3.5,0,1,1,0-7H315a3.5,3.5,0,0,1,0,7Z"/><path class="cls-15" d="M362,858.23H328.68a3.5,3.5,0,0,1,0-7H362a3.5,3.5,0,0,1,0,7Z"/><path class="cls-15" d="M185,878.9H133.62a3.5,3.5,0,0,1,0-7H185a3.5,3.5,0,0,1,0,7Z"/><path class="cls-15" d="M205.3,878.9h-9.66a3.5,3.5,0,0,1,0-7h9.66a3.5,3.5,0,1,1,0,7Z"/><path class="cls-15" d="M328.68,878.9H216.3a3.5,3.5,0,0,1,0-7H328.68a3.5,3.5,0,0,1,0,7Z"/><polygon class="cls-37" points="1337.54 101.33 1136.36 204.15 1302.55 529.34 1557.07 399.26 1415.41 122.06 1372.65 130.41 1337.54 101.33"/><polygon class="cls-18" points="1337.54 101.33 1362.07 149.33 1415.41 122.06 1337.54 101.33"/><rect class="cls-38" x="1163" y="188.63" width="126.25" height="25.45" transform="translate(42.69 580.03) rotate(-27.07)"/><polygon class="cls-39" points="1371.76 258.68 1323.53 256.33 1294.41 328.37 1254.84 313.48 1244.17 371.91 1243.53 374.13 1247.96 382.8 1249.37 382.08 1260.04 323.65 1299.6 338.54 1328.72 266.5 1376.96 268.85 1386.35 175.39 1432.05 194.34 1426.85 184.17 1381.16 165.22 1371.76 258.68"/><polygon class="cls-40" points="1242.77 372.63 1244.17 371.91 1254.84 313.48 1294.41 328.37 1323.53 256.33 1371.76 258.68 1381.16 165.22 1426.85 184.17 1407.88 147.06 1185.55 260.68 1242.77 372.63"/><polygon class="cls-41" points="1243.96 374.97 1244.17 371.91 1254.84 313.48 1294.41 328.37 1323.53 256.33 1371.76 258.68 1381.16 165.22 1426.85 184.17 1407.88 147.06 1185.55 260.68 1243.96 374.97"/><polygon class="cls-42" points="1376.96 268.85 1328.72 266.5 1299.6 338.54 1260.04 323.65 1249.37 382.08 1470.29 269.18 1432.05 194.34 1386.35 175.39 1376.96 268.85"/><rect class="cls-43" x="1264.74" y="387.67" width="45.09" height="45.09" transform="translate(-45.66 630.74) rotate(-27.07)"/><path class="cls-21" d="M1354.29,363,1319,381a2.4,2.4,0,1,1-2.19-4.28l35.33-18.06a2.4,2.4,0,0,1,2.19,4.28Z"/><path class="cls-21" d="M1412.66,351l-51.12,26.13a2.4,2.4,0,1,1-2.19-4.28l51.12-26.13a2.4,2.4,0,0,1,2.19,4.28Z"/><path class="cls-21" d="M1352.17,382l-26,13.27a2.41,2.41,0,0,1-2.18-4.29l26-13.27a2.41,2.41,0,0,1,2.19,4.29Z"/><path class="cls-21" d="M1462,339.31l-66.65,34.06a2.41,2.41,0,0,1-2.19-4.29L1459.84,335a2.41,2.41,0,0,1,2.19,4.29Z"/><path class="cls-21" d="M1385.83,378.25l-54.15,27.67a2.4,2.4,0,1,1-2.19-4.28L1383.64,374a2.41,2.41,0,1,1,2.19,4.29Z"/><path class="cls-21" d="M1383.33,419.8,1348,437.85a2.4,2.4,0,1,1-2.19-4.28l35.33-18.05a2.4,2.4,0,0,1,2.19,4.28Z"/><path class="cls-21" d="M1441.7,407.86l-8.3,4.24a2.4,2.4,0,0,1-2.19-4.28l8.3-4.24a2.4,2.4,0,1,1,2.19,4.28Z"/><path class="cls-21" d="M1424,416.89,1355.25,452a2.4,2.4,0,1,1-2.19-4.28l68.78-35.16a2.41,2.41,0,0,1,2.19,4.29Z"/><path class="cls-21" d="M1491.07,396.13l-93.42,47.74a2.4,2.4,0,0,1-2.19-4.28l93.42-47.74a2.4,2.4,0,0,1,2.19,4.28Z"/><path class="cls-21" d="M1388.11,448.75l-27.39,14a2.41,2.41,0,0,1-2.19-4.29l27.39-14a2.4,2.4,0,0,1,2.19,4.28Z"/><polygon class="cls-15" points="1281.5 398.89 1276.25 424.73 1305.52 409.77 1281.5 398.89"/><rect class="cls-44" x="1294.25" y="445.41" width="45.09" height="45.09" transform="translate(-68.7 650.49) rotate(-27.07)"/><polygon class="cls-15" points="1322.58 479.27 1327.83 453.44 1298.57 468.39 1322.58 479.27"/><path class="cls-45" d="M528.8,268c-3.21.39-6.31.88-9.32,1.44A138,138,0,0,1,382.9,387.83h-238a138,138,0,0,1-138-138h0a138,138,0,0,1,138-138h238A138,138,0,0,1,517.54,219.63,195,195,0,0,1,541.06,228a200.72,200.72,0,0,1,74.24,55.51C601.43,276.61,569.5,263.14,528.8,268Z"/><path class="cls-15" d="M43.4,309.28a4.17,4.17,0,0,1-3.66-2.17,118.74,118.74,0,0,1-11.65-30.95,4.16,4.16,0,0,1,8.12-1.82,110.59,110.59,0,0,0,10.84,28.79,4.16,4.16,0,0,1-1.66,5.64A4.1,4.1,0,0,1,43.4,309.28Z"/><path class="cls-15" d="M175.94,369.58h-31a120.34,120.34,0,0,1-96.12-48.34,4.16,4.16,0,1,1,6.68-5,110.51,110.51,0,0,0,89.44,45h31a4.16,4.16,0,0,1,0,8.32Z"/><path class="cls-15" d="M230.92,369.58H193.34a4.16,4.16,0,0,1,0-8.32h37.58a4.16,4.16,0,1,1,0,8.32Z"/><path class="cls-15" d="M494.52,231.92a4.16,4.16,0,0,1-4.08-3.37,112,112,0,0,0-48.49-72,4.16,4.16,0,0,1,4.56-7A120.35,120.35,0,0,1,498.61,227a4.15,4.15,0,0,1-3.29,4.87A3.68,3.68,0,0,1,494.52,231.92Z"/><path class="cls-15" d="M427.45,148.13a4.1,4.1,0,0,1-1.67-.35A110.65,110.65,0,0,0,392.46,139a4.16,4.16,0,0,1,.84-8.27,118.6,118.6,0,0,1,35.82,9.41,4.16,4.16,0,0,1-1.67,8Z"/><path class="cls-46" d="M116.81,71.49a29.13,29.13,0,0,0-23.18,34.06h0l52.2,274.58,34.72-6.6L122.92,70.33Z"/><polygon class="cls-47" points="122.92 70.33 180.55 373.53 426.22 326.84 379.46 80.86 368.58 23.63 122.92 70.33"/><path class="cls-15" d="M346.07,142.35,187.42,172.51a5,5,0,0,1-5.8-4l-13-68.14a5,5,0,0,1,4-5.81L331.26,64.45a5,5,0,0,1,5.8,4l13,68.14A5,5,0,0,1,346.07,142.35Z"/><path class="cls-48" d="M297.72,94.4,214.8,110.16a4.47,4.47,0,1,1-1.67-8.79l82.92-15.76a4.47,4.47,0,1,1,1.67,8.79Z"/><path class="cls-49" d="M327.54,112.06,241.6,128.39a4.47,4.47,0,1,1-1.67-8.78l85.94-16.34a4.47,4.47,0,0,1,1.67,8.79Z"/><path class="cls-50" d="M228.42,130.9l-34.87,6.63a4.47,4.47,0,1,1-1.67-8.79l34.87-6.63a4.47,4.47,0,0,1,1.67,8.79Z"/><path class="cls-51" d="M331.08,130.73l-19.76,3.75a4.47,4.47,0,1,1-1.67-8.78l19.76-3.76a4.47,4.47,0,1,1,1.67,8.79Z"/><path class="cls-52" d="M300.61,136.52l-77.16,14.67a4.47,4.47,0,0,1-1.67-8.79l77.16-14.67a4.47,4.47,0,1,1,1.67,8.79Z"/><path class="cls-53" d="M211.65,153.43,197.1,156.2a4.47,4.47,0,1,1-1.67-8.79L210,144.64a4.47,4.47,0,0,1,1.67,8.79Z"/><path class="cls-15" d="M186.7,372.37l239.52-45.53-5.44-28.62L169,346.08a29.12,29.12,0,0,0-23.17,34.05h0A29.08,29.08,0,0,0,163,401.49,29.12,29.12,0,0,1,186.7,372.37Z"/><path class="cls-54" d="M431.66,355.45l-5.44-28.61L186.7,372.37A29.12,29.12,0,0,0,163,401.49a29,29,0,0,0,16.86,1.82Z"/><polygon class="cls-55" points="243.54 412.1 226.42 404.27 213.37 417.83 204.1 369.06 234.27 363.32 243.54 412.1"/></g></g></svg>